<?xml version="1.0" standalone="no"?>
<!DOCTYPE svg PUBLIC "-//W3C//DTD SVG 1.1//EN" "http://www.w3.org/Graphics/SVG/1.1/DTD/svg11.dtd" >
<svg>
<metadata>
Created by FontForge 20090914 at Fri Feb 24 16:28:06 2012
 By root
Digitized data copyright The Monotype Corporation 1991-1995. All rights reserved. Andy&#226;&#132;&#162; is a trademark of The Monotype Corporation which may be registered in certain jurisdictions.
</metadata>
<defs>
<font id="Andy-Bold" horiz-adv-x="469" >
  <font-face 
    font-family="Andy"
    font-weight="700"
    font-stretch="semi-condensed"
    units-per-em="2048"
    panose-1="3 8 6 2 3 3 2 3 2 3"
    ascent="1638"
    descent="-410"
    x-height="903"
    cap-height="1317"
    bbox="-303 -692 2037 1769"
    underline-thickness="102"
    underline-position="-129"
    unicode-range="U+0020-U+F002"
  />
<missing-glyph horiz-adv-x="1434" 
d="M89 0v1434h1256v-1434h-1256zM1256 89v1256h-1078v-1256h1078z" />
    <glyph glyph-name=".notdef" horiz-adv-x="1434" 
d="M89 0v1434h1256v-1434h-1256zM1256 89v1256h-1078v-1256h1078z" />
    <glyph glyph-name="glyph1" horiz-adv-x="0" 
 />
    <glyph glyph-name="glyph2" horiz-adv-x="659" 
 />
    <glyph glyph-name="space" unicode=" " horiz-adv-x="659" 
 />
    <glyph glyph-name="Eth" unicode="&#xd0;" horiz-adv-x="1165" 
d="M322 557q6 -50 32 -178q19 -97 19 -111q0 -32 -48 -63t-75 -31q-48 0 -67.5 21.5t-32.5 92t-22 161.5q-1 9 -4 25q-5 32 -5 54q-40 -10 -58 -10q-25 0 -47 25t-22 49q0 36 7.5 55t25 27t88.5 24v25q2 46 8 154q8 125 8 155q0 41 -9 79q-5 24 -5 40q0 28 18.5 50t40.5 22
q38 0 80 -15q68 -24 166 -24q168 0 326 -57t245.5 -152.5t87.5 -214.5q0 -281 -299 -519q-127 -102 -278 -170.5t-234 -68.5q-71 0 -71 72q0 61 90 90q249 82 417 240t168 327q0 157 -133 232t-415 75q6 -42 6 -98q0 -88 -6 -217q71 22 104 22q76 0 76 -73q0 -35 -6.5 -50.5
t-21.5 -24.5t-154 -40z" />
    <glyph glyph-name="eth" unicode="&#xf0;" horiz-adv-x="909" 
d="M551 1329q131 43 174 43q82 0 82 -65q0 -90 -68 -103q-14 -2 -57 -19q-27 -10 -39 -14q105 -217 139.5 -364t34.5 -320q0 -143 -59 -252.5t-169 -175t-218 -65.5q-136 0 -217.5 101t-81.5 280q0 189 117 378t245 189q74 0 74 -59q0 -90 -43 -105q-55 -19 -107.5 -138
t-52.5 -263q0 -246 117 -246q73 0 123.5 103.5t50.5 238.5v44q1 30 1 46q0 157 -32 276.5t-100 247.5q-15 -5 -56 -24q-83 -37 -104 -37q-27 0 -45 30.5t-18 63.5q0 34 21 50.5t122 62.5q-33 29 -51.5 60t-18.5 77v9v8q0 24 14 32t48 8q39 0 89 -26.5t85 -71.5z" />
    <glyph glyph-name="Lslash" unicode="&#x141;" horiz-adv-x="1047" 
d="M332 584q3 -80 7 -217q4 -124 5 -144q8 12 83 28.5t126 16.5t154 13.5t148 29.5q83 31 138 31q48 0 74.5 -23.5t26.5 -62.5q0 -33 -19 -60.5t-49 -42.5q-38 -18 -349 -41q-157 -12 -202 -18q-15 -2 -42 -5q-90 -10 -111 -31q-18 -18 -32 -23.5t-54 -5.5q-32 0 -61.5 20
t-29.5 43q0 15 4 86q5 77 5 94q0 89 -7 174q-27 -24 -39.5 -27t-33.5 -3q-24 0 -45 18t-21 43q0 47 35 70q1 0 92 71q-9 96 -31 304q-15 134 -22 202q-1 7 -3 23q-5 33 -5 47q0 32 33.5 55t74.5 23q32 0 64 -18t44 -45q15 -33 34 -445l53 41q16 13 18 14q4 2 10 6
q31 19 74 19q21 0 36 -24t15 -48q0 -50 -36 -74q-66 -43 -162 -114z" />
    <glyph glyph-name="lslash" unicode="&#x142;" horiz-adv-x="459" 
d="M317 680q17 -124 19 -160q6 -85 46 -277q26 -122 26 -149q0 -44 -29.5 -69t-79.5 -25q-59 0 -97.5 19.5t-41.5 54.5q-2 37 -22 212q-18 158 -25 230q-15 -12 -41 -24v0q-16 -14 -36 -14t-40.5 25.5t-20.5 49.5q0 82 54 117q1 0 16 11l41 30l-18 113q-48 299 -48 419
q0 184 138 184q45 0 80.5 -19.5t35.5 -59.5q0 -20 -3 -76q-7 -103 -7 -170q0 -53 27 -238l65 50q50 38 82 38q60 0 60 -78q0 -34 -13.5 -63.5t-31.5 -39.5q-55 -31 -136 -91z" />
    <glyph glyph-name="Yacute" unicode="&#xdd;" horiz-adv-x="895" 
d="M-4 1147q0 30 27 51t65 21q56 0 84 -23.5t44 -75.5q19 -61 151 -301q57 -105 73 -137q8 21 36 107q50 147 68 196q78 213 93 277q10 45 44.5 70.5t80.5 25.5q37 0 64.5 -31t27.5 -74q0 -27 -88 -249q-126 -318 -161 -449l-18 -63q-69 -249 -69 -316q0 -15 10 -41
q15 -37 15 -65q0 -41 -48 -78t-104 -37q-36 0 -61 62.5t-25 140.5q0 43 32 163q32 122 32 166q-23 15 -151 228t-150 260q-5 12 -21 42q-51 92 -51 130zM234 1373q0 40 94 117q26 25 55 74q25 41 42 52t42 11q28 0 59.5 -31t31.5 -55q0 -45 -49 -104.5t-112 -100.5t-85 -41
q-27 0 -52.5 24.5t-25.5 53.5z" />
    <glyph glyph-name="yacute" unicode="&#xfd;" horiz-adv-x="743" 
d="M20 666q0 37 27.5 65.5t65.5 28.5q31 0 50.5 -10.5t53.5 -56.5l18 -24q54 -70 110 -160.5t71 -135.5q0 3 4 32q35 252 35 431q0 45 36.5 71.5t96.5 26.5q40 0 72 -26t32 -56q0 -37 -12 -82q-46 -182 -78.5 -430t-32.5 -465q0 -45 23 -161q20 -102 20 -137
q0 -47 -37.5 -80.5t-72.5 -33.5q-69 0 -105 39q-18 21 -22.5 68t-8.5 136.5t-4 137.5q0 127 15 273q0 28 -96 156.5t-205 252.5q-56 63 -56 140zM148 1143q0 40 94 117q26 25 55 74q25 41 42 52t42 11q28 0 59.5 -31t31.5 -55q0 -45 -49 -104.5t-112 -100.5t-85 -41
q-27 0 -52.5 24.5t-25.5 53.5z" />
    <glyph glyph-name="Thorn" unicode="&#xde;" horiz-adv-x="1014" 
d="M334 1092q4 -39 11 -130q12 -148 27 -245q13 -81 13 -107q4 2 11 6q198 97 278 185.5t80 187.5q0 67 -69 104t-179 37q-42 0 -93 -11.5t-79 -26.5zM565 1280q194 0 309 -68t115 -190q0 -163 -164 -324.5t-424 -279.5q0 -27 16 -115t32 -148q14 -55 14 -59
q0 -41 -49 -73.5t-95 -32.5q-26 0 -51 11t-38.5 31.5t-23.5 102.5q-18 146 -18 191q-38 43 -38 98q0 76 36 98q0 23 -37 270q-69 454 -69 533q0 39 24 67.5t58 28.5q66 0 94 -14.5t39 -46.5l18 -115q101 35 252 35z" />
    <glyph glyph-name="thorn" unicode="&#xfe;" horiz-adv-x="891" 
d="M117 582q-23 0 -39.5 25t-16.5 48q0 14 27 53q14 20 18 29q-28 350 -28 574q0 48 33.5 82t87.5 34q50 0 83 -22.5t33 -63.5q0 -32 -5 -169q-7 -206 -7 -277q13 20 47.5 36.5t61.5 16.5q69 0 181.5 -83.5t182.5 -191t70 -204.5q0 -104 -125.5 -236.5t-342.5 -265.5
q-6 -4 -7 -4q20 -370 20 -389q0 -41 -30.5 -69.5t-73.5 -28.5q-113 0 -113 141q0 19 2 77q3 90 3 136q0 73 -22 270q-40 374 -40 482zM315 676q0 -106 25 -372q14 -148 14 -181q28 0 97.5 65.5t112 138.5t42.5 132q0 66 -30.5 142t-77.5 134t-78 58q-39 0 -72 -40t-33 -77z
" />
    <glyph glyph-name="Zcaron" unicode="&#x17d;" horiz-adv-x="1004" 
d="M571 1081q-91 0 -264 -43q-172 -43 -223 -43q-64 0 -64 84q0 39 33 61.5t84 22.5q34 0 141 15.5t173 28.5q132 26 227 26q61 0 99 -15t38 -42q0 -58 -102 -232q-27 -46 -145 -284.5t-159.5 -335t-41.5 -127.5q106 8 293.5 37t331.5 78q65 22 93 22t51 -28.5t23 -57.5
q0 -66 -34.5 -95t-304.5 -67q-340 -48 -494 -53q-31 -1 -72 -8q-32 -5 -49 -5q-30 0 -50 31t-20 76q0 38 138 343t223 464q51 94 75 147zM725 1610q0 -29 -75 -89l-48 -41l-119 -103.5t-69 -34.5q-31 0 -61.5 20.5t-102.5 83.5q-75 67 -96.5 100.5t-21.5 65.5
q0 25 13.5 43.5t33.5 18.5q63 0 152 -103q48 -56 75 -69q42 33 111 102q68 68 124 68q27 0 55.5 -19.5t28.5 -42.5z" />
    <glyph glyph-name="zcaron" unicode="&#x17e;" horiz-adv-x="842" 
d="M348 170q51 0 161 16t227 54q85 28 112 28q59 0 59 -92q0 -33 -26.5 -64t-83.5 -45.5t-170 -30.5q-281 -40 -434 -40q-113 0 -113 63q0 58 132 334q32 66 40 86q23 52 81.5 147t88.5 134q-25 0 -120 -19q-133 -26 -183 -26q-42 0 -70.5 21t-28.5 48q0 46 20.5 73.5
t53.5 27.5q161 0 393 61q88 23 111 23q107 0 107 -60q0 -31 -109 -224q-67 -117 -83 -153q-6 -14 -40 -85q-112 -229 -125 -277zM683 1335q0 -29 -75 -89l-48 -41l-119 -103.5t-69 -34.5q-31 0 -61.5 20.5t-102.5 83.5q-75 67 -96.5 100.5t-21.5 65.5q0 25 13.5 43.5
t33.5 18.5q63 0 152 -103q48 -56 75 -69q42 33 111 102q68 68 124 68q27 0 55.5 -19.5t28.5 -42.5z" />
    <glyph glyph-name="onehalf" unicode="&#xbd;" horiz-adv-x="1370" 
d="M814 475q0 54 43 95t92.5 68.5t85.5 27.5q89 0 136 -39t47 -109q0 -86 -103 -229q-31 -43 -80 -150l82 19q117 26 166 26q21 0 34 -19.5t13 -45.5q0 -30 -22 -53t-60 -23q-36 0 -92.5 -6t-104 -14.5t-74.5 -24.5q-47 -29 -77 -29q-39 0 -39 47q0 78 59 167q40 61 88 167
t48 146q0 35 -9.5 48t-33.5 13q-34 0 -55 -66q-13 -41 -31.5 -54t-42.5 -13q-16 0 -43 17.5t-27 33.5zM891 1277q1 1 2 3q71 104 144 104q56 0 56 -59q0 -26 -83 -143q-46 -65 -132.5 -216l-166.5 -293q-112 -199 -159.5 -299l-100.5 -215.5t-61 -140.5q-17 -45 -86 -45
q-90 0 -90 58t278.5 564t398.5 682zM198 1368v3q0 23 27.5 37.5t54.5 14.5q32 0 55.5 -6.5t31.5 -18.5q11 -16 11 -325q0 -95 14 -188q4 -27 4 -35q0 -24 -31.5 -43t-56.5 -19q-29 0 -50 10.5t-30.5 31t-9.5 286.5q0 72 -13 178q-7 55 -7 74z" />
    <glyph glyph-name="onequarter" unicode="&#xbc;" horiz-adv-x="1370" 
d="M891 1277q1 1 2 3q71 104 144 104q56 0 56 -59q0 -26 -83 -143q-46 -65 -132.5 -216l-166.5 -293q-112 -199 -159.5 -299l-100.5 -215.5t-61 -140.5q-17 -45 -86 -45q-90 0 -90 58t278.5 564t398.5 682zM1283 367q22 0 29.5 -14.5t7.5 -59.5q0 -32 -10 -54t-27 -22
q-11 0 -17 1q-10 1 -30 1q0 -72 21 -139q14 -44 14 -72q0 -15 -31 -30t-53 -15q-20 0 -47 14.5t-30.5 34.5l-8.5 50q-14 99 -14 155q-108 0 -183 -14q-71 -25 -98 -25q-61 0 -61 78q0 24 26 86t51 107q22 37 82.5 174t70.5 176q14 55 120 55q24 0 39.5 -16.5t15.5 -38.5
q0 -42 -54 -131q-33 -54 -83.5 -155t-73.5 -165q47 6 148 8q1 9 1 18q0 31 -9 93q-7 44 -7 61q0 35 21.5 57.5t58.5 22.5q36 0 61 -25t25 -55q0 -10 -2 -43q-2 -52 -2 -77q0 -26 2 -41h47zM198 1368v3q0 23 27.5 37.5t54.5 14.5q32 0 55.5 -6.5t31.5 -18.5q11 -16 11 -325
q0 -95 14 -188q4 -27 4 -35q0 -24 -31.5 -43t-56.5 -19q-29 0 -50 10.5t-30.5 31t-9.5 286.5q0 72 -13 178q-7 55 -7 74z" />
    <glyph glyph-name="onesuperior" unicode="&#xb9;" horiz-adv-x="492" 
d="M153 1368v3q0 23 27.5 37.5t54.5 14.5q32 0 55 -6.5t31 -18.5q12 -17 12 -325q0 -95 14 -188q4 -27 4 -35q0 -24 -31.5 -43t-56.5 -19q-29 0 -50 10.5t-30.5 31t-9.5 286.5q0 72 -13 178q-7 55 -7 74z" />
    <glyph glyph-name="threequarters" unicode="&#xbe;" horiz-adv-x="1370" 
d="M894 1277q1 1 2 3q71 104 144 104q56 0 56 -59q0 -26 -83 -143q-46 -65 -132.5 -216l-166.5 -293q-112 -199 -159.5 -299l-100.5 -215.5t-61 -140.5q-17 -45 -86 -45q-90 0 -90 58t278.5 564t398.5 682zM39 1292q0 21 7.5 40t21 30.5t63.5 20.5q68 11 92 18
q110 31 154 31q68 0 106.5 -30t38.5 -87q0 -58 -90 -140q-25 -23 -33 -32q28 10 62 10q36 0 58 -28.5t22 -77.5q0 -108 -117 -214t-195 -106q-24 0 -43.5 12t-19.5 31q0 61 35 72q80 26 126 80.5t46 103.5q0 23 -25 23q-40 0 -92 -38q-47 -34 -80 -34q-12 0 -38.5 20.5
t-26.5 38.5q0 22 8.5 33.5t36.5 22.5q68 28 135 79.5t67 116.5q0 28 -36 28q-31 0 -99 -32q-85 -39 -137 -39q-15 0 -31 15t-16 32zM1286 367q22 0 29.5 -14.5t7.5 -59.5q0 -32 -10 -54t-27 -22q-11 0 -17 1q-10 1 -30 1q0 -72 21 -139q14 -44 14 -72q0 -15 -31 -30t-53 -15
q-20 0 -47 14.5t-30.5 34.5l-8.5 50q-14 99 -14 155q-108 0 -183 -14q-71 -25 -98 -25q-61 0 -61 78q0 24 26 86t51 107q22 37 82.5 174t70.5 176q14 55 120 55q24 0 39.5 -16.5t15.5 -38.5q0 -42 -54 -131q-33 -54 -83.5 -155t-73.5 -165q47 6 148 8q1 9 1 18q0 31 -9 93
q-7 44 -7 61q0 35 21.5 57.5t58.5 22.5q36 0 61 -25t25 -55q0 -10 -2 -43q-2 -52 -2 -77q0 -26 2 -41h47z" />
    <glyph glyph-name="threesuperior" unicode="&#xb3;" horiz-adv-x="881" 
d="M150 1292q0 21 7.5 40t21 31t64.5 20q67 11 91 18q110 31 153 31q69 0 107.5 -30.5t38.5 -86.5q0 -58 -90 -140q-25 -23 -33 -32q27 10 61 10q36 0 58 -28.5t22 -77.5q0 -109 -117 -214.5t-194 -105.5q-24 0 -44 12t-20 31q0 60 35 72q81 26 126.5 80t45.5 104
q0 23 -24 23q-40 0 -93 -38q-47 -34 -79 -34q-13 0 -39.5 20.5t-26.5 38.5q0 22 9 33.5t35 22.5q69 27 136.5 79.5t67.5 116.5q0 28 -37 28q-30 0 -98 -31q-86 -40 -137 -40q-16 0 -31.5 15t-15.5 32z" />
    <glyph glyph-name="twosuperior" unicode="&#xb2;" horiz-adv-x="901" 
d="M180 1237q0 65 82.5 127.5t138.5 62.5q89 0 136 -38.5t47 -108.5q0 -84 -103 -229q-30 -43 -80 -150l82 19q117 26 166 26q21 0 34 -19.5t13 -45.5q0 -30 -22 -53t-60 -23q-35 0 -91 -6t-105 -14.5t-76 -25.5q-46 -28 -76 -28q-39 0 -39 47q0 78 59 167q40 61 88 167
t48 145q0 62 -43 62q-34 0 -55 -66q-13 -41 -31.5 -54t-42.5 -13q-17 0 -43.5 17.5t-26.5 33.5z" />
    <glyph glyph-name="brokenbar" unicode="&#xa6;" horiz-adv-x="737" 
d="M369 625q27 0 55.5 -13t28.5 -30q2 -136 10 -399q4 -134 4 -152q0 -34 -26 -56t-56 -22q-27 0 -68 22t-41 43t2 127q3 171 3 226q0 23 -1 78q-1 70 -1 108q0 25 31 46.5t59 21.5zM369 778q-64 0 -95 58q-5 158 -15 361q-5 93 -5 114q0 28 33.5 58t62.5 30t57.5 -37.5
t28.5 -79.5q0 -77 7 -272q4 -121 6 -187q0 -45 -80 -45z" />
    <glyph glyph-name="minus" unicode="&#xad;" horiz-adv-x="1065" 
d="M190 540q0 35 28 73t65 38q24 0 145 18q74 11 98 14q26 3 97 14q108 18 137 18q44 0 71 -29t27 -65q0 -39 -23 -71t-61 -32q-141 0 -337 -44q-145 -32 -163 -32q-36 0 -60 31t-24 67z" />
    <glyph glyph-name="multiply" unicode="&#xd7;" horiz-adv-x="950" 
d="M232 260q0 26 38 79q65 90 106 155q-11 11 -55 50q-106 96 -121.5 121.5t-15.5 46.5q0 25 33.5 59t60.5 34q37 0 112 -91q44 -52 74 -81q10 17 34 75q46 109 70.5 133.5t71.5 24.5q22 0 38.5 -21.5t16.5 -51.5q0 -32 -26 -80v-1q-74 -135 -101 -175q16 -16 103 -94
q49 -44 56 -56t10 -28.5t3 -39.5q0 -27 -30.5 -50t-53.5 -23q-25 0 -64 39q-73 73 -106 100q-55 -92 -91 -146t-50 -58.5t-37 -4.5q-18 0 -47 29.5t-29 54.5z" />
    <glyph glyph-name="exclam" unicode="!" 
d="M356 449q0 -54 -24.5 -88.5t-66.5 -34.5q-41 0 -79.5 26t-38.5 58q0 18 2 132q3 209 3 269q0 55 -14 298q-9 165 -9 191q0 48 31.5 87.5t75.5 39.5q112 0 112 -135q0 -8 -1 -44q-2 -126 -2 -218q0 -140 7 -407q4 -139 4 -174zM139 76q0 41 37.5 74.5t83.5 33.5
q42 0 77.5 -48.5t35.5 -90.5q0 -32 -34 -56t-79 -24q-121 0 -121 111z" />
    <glyph glyph-name="quotedbl" unicode="&#x22;" horiz-adv-x="627" 
d="M285 1075q0 29 56 105q25 33 59 96q36 66 54.5 85t37.5 19q45 0 85.5 -30.5t40.5 -57.5q0 -30 -36 -102t-102.5 -124t-100.5 -52q-39 0 -66.5 17t-27.5 44zM-29 1122q0 29 56 104q24 32 58 95q37 67 55.5 86.5t37.5 19.5q46 0 86.5 -30.5t40.5 -57.5q0 -29 -36.5 -101
t-102.5 -124.5t-100 -52.5q-40 0 -67.5 17t-27.5 44z" />
    <glyph glyph-name="numbersign" unicode="#" horiz-adv-x="1032" 
d="M680 1087q31 0 53.5 -21.5t22.5 -47.5q0 -20 -11 -97q-5 -32 -6 -40q44 12 74 12q29 0 48.5 -19.5t19.5 -44.5q0 -59 -60 -63q-13 -1 -98 -23q0 -76 4 -186q34 9 87 31q47 20 63 20q45 0 45 -63q0 -80 -45 -96q-30 -12 -85 -26.5t-59 -14.5q27 -224 27 -273
q0 -36 -23 -64t-53 -28q-88 0 -88 78q0 20 -6 102q-8 99 -8 128v9q-7 -2 -34 -7q-57 -11 -75 -19q0 -64 8 -98q24 0 30.5 -5.5t6.5 -27.5q0 -9 -16 -33q-35 -52 -40 -74q-3 -15 -23 -26t-38 -11q-29 0 -53 15.5t-24 34.5q0 9 -4 50q-7 83 -7 122v14q-84 -21 -131 -21
q-17 0 -36 26.5t-19 53.5q0 16 6 30.5t17 24.5t64 18q81 13 95 22q0 8 -1 44q-2 70 -2 100q0 21 1 32q-7 -2 -23 -8q-54 -21 -85 -21q-78 0 -78 63q0 26 13.5 48t33.5 27q105 23 131 34q0 74 10.5 155t27.5 107q17 24 43 40.5t42 16.5q67 0 67 -65q0 -20 -16 -82
q-14 -54 -14 -135q16 6 55 17q42 12 57 18q0 247 109 247zM573 514q-6 135 -6 182q-9 -3 -40 -10q-56 -13 -74 -22v-43q-1 -60 -1 -88q0 -40 1 -52q46 7 120 33z" />
    <glyph glyph-name="dollar" unicode="$" horiz-adv-x="1106" 
d="M1075 379q0 -251 -348 -383q3 -40 9 -104q5 -51 5 -60q0 -36 -21 -62t-40 -26q-43 0 -77 23t-34 63q0 23 -1 58q-1 38 -1 65h-86q-83 0 -145.5 39.5t-99.5 114t-37 147.5q0 172 125 172q96 0 96 -72q0 -26 -13 -45q-16 -24 -16 -63q0 -56 32 -84t65.5 -37.5t58.5 -9.5
q-18 269 -41 403q-1 2 -2 12q-4 40 -10 50q-80 17 -313 51q-89 13 -125 53t-36 113q0 104 128 235.5t272 192.5q-5 33 -5 66q0 51 26 88.5t63 37.5q74 0 74 -63q0 -6 -2 -41q-3 -41 -3 -49q58 -5 119.5 -24.5t99 -67.5t37.5 -103q0 -111 -69 -111q-75 0 -103 67
q-12 31 -27.5 38.5t-47.5 7.5q34 -295 45 -334q46 -11 180 -58q10 -3 14 -5q137 -47 195.5 -118t58.5 -177zM465 782q-5 71 -20 172q-10 63 -15 103q-73 -42 -150 -108.5t-77 -96.5q0 -21 82 -39q20 -2 81 -14q70 -14 99 -17zM879 379q0 55 -45 92t-121 49q-17 8 -66 21
q46 -285 55 -402q177 76 177 240z" />
    <glyph glyph-name="percent" unicode="%" horiz-adv-x="1389" 
d="M322 1028q0 -70 43 -70q34 0 64 33.5t30 83.5q0 43 -19 70.5t-43 27.5q-21 0 -48 -45.5t-27 -99.5zM479 31q-46 -43 -104 -43q-31 0 -31 63q0 54 108 302.5t194 412.5q94 177 186.5 331t133 198t85.5 44q73 0 73 -67q0 -27 -95 -171q-129 -196 -219.5 -353t-182.5 -371
t-92 -227v0q22 -19 22 -41q0 -33 -50 -60q-20 -12 -28 -18zM731 186q0 73 35 148t97.5 140t84.5 65q18 0 34.5 -10.5t16.5 -18.5q27 4 45 4q72 0 121 -60t49 -145q0 -104 -87.5 -191t-219.5 -87q-93 0 -134.5 33.5t-41.5 121.5zM983 389q-5 -6 -9 -19q-2 -9 -5 -10
q-2 -1 -8 -6q-21 -13 -35 -14q-35 -62 -35 -121q0 -65 47 -65q39 0 77 45t38 112q0 84 -43 84q-7 0 -20 -4q-5 -2 -7 -2zM436 1276q80 0 132.5 -63.5t52.5 -143.5q0 -83 -81.5 -151t-209.5 -68q-158 0 -158 156q0 131 71 200.5t193 69.5z" />
    <glyph glyph-name="ampersand" unicode="&#x26;" horiz-adv-x="1139" 
d="M981 352q4 -16 12 -71q9 -79 19 -115q13 -53 29 -135.5t16 -102.5q0 -23 -35.5 -47.5t-68.5 -24.5t-68 23t-35 49q0 3 -16 101q-3 -2 -6 -6q-12 -13 -35 -13q-107 0 -193 -9q-274 -30 -324 -30q-82 0 -140 43.5t-58 118.5q0 131 66.5 231.5t209.5 198.5q-71 -14 -147 -14
q-66 0 -109 39t-43 102q0 120 211 317q116 108 196 152.5t113 44.5q44 0 83.5 -23t39.5 -57q0 -45 -21.5 -86t-47.5 -41q-78 0 -230.5 -99t-152.5 -183q0 -11 17.5 -24t33.5 -13q53 0 166.5 30t193.5 74q32 13 58 13q29 0 48 -21t19 -55q0 -103 -75 -133
q-169 -67 -288.5 -174.5t-119.5 -216.5q0 -27 26 -42.5t64 -15.5q26 0 124 27q57 16 85 22q31 7 88 22q90 23 108 23h3q0 26 -21 97q-21 -3 -73 -17q-42 -12 -50 -12q-30 0 -55 19.5t-25 46.5q0 40 27 74t59 34q29 0 164 16l97 12q33 3 130 20q121 22 152 22q40 0 69 -20.5
t29 -45.5q0 -48 -18 -81.5t-45 -33.5q-21 0 -139 -5q-89 -4 -117 -5z" />
    <glyph glyph-name="quotesingle" unicode="'" horiz-adv-x="356" 
d="M-18 1118q0 29 56 105q25 34 59 97q36 65 54 84t37 19q46 0 86.5 -30.5t40.5 -57.5q0 -16 -23 -67t-52 -97q-28 -38 -83 -76t-81 -38q-39 0 -66.5 17t-27.5 44z" />
    <glyph glyph-name="parenleft" unicode="(" horiz-adv-x="655" 
d="M121 637q0 140 66.5 334.5t138.5 290.5l26 35q63 86 94 108t68 22q45 0 75 -18.5t30 -52.5q0 -63 -58 -135q-132 -166 -177.5 -302t-45.5 -307q0 -158 45.5 -305t132.5 -271t180 -186q86 -57 86 -137q0 -25 -27 -44t-71 -19q-45 0 -146.5 84.5t-189.5 190.5
q-107 130 -167 320.5t-60 391.5z" />
    <glyph glyph-name="parenright" unicode=")" horiz-adv-x="690" 
d="M567 465q0 -104 -38 -246.5t-98 -273.5q-46 -99 -119 -197t-138 -98q-104 0 -104 76q0 70 56 132q117 126 170.5 279.5t53.5 351.5q0 233 -101 431t-257 307q-86 59 -86 137q0 26 27 44.5t71 18.5q95 0 254 -172.5t234 -369.5t75 -420z" />
    <glyph glyph-name="asterisk" unicode="*" horiz-adv-x="1008" 
d="M238 1039q101 15 138 34q-5 10 -20 34q-58 91 -58 148q0 21 16.5 37.5t38.5 16.5q17 0 36 -8.5t24 -20.5q24 -57 65 -115q28 35 51 95q22 55 88 55q22 0 37 -22t15 -46q0 -16 -88 -143q119 40 154 61q36 21 57 21q45 0 45 -58q0 -37 -16 -59.5t-66 -35.5
q-163 -43 -181 -52q68 -105 138 -127q32 -10 32 -59q0 -22 -20 -40t-53 -18q-46 0 -110.5 56.5t-104.5 123.5q-63 -130 -82 -150.5t-33 -29t-27 -8.5q-20 0 -46.5 21t-26.5 41q0 13 35 58q42 54 49 79q-50 -6 -110 -17q-39 -8 -54 -8q-44 0 -44 46q0 38 25.5 58.5t95.5 31.5
z" />
    <glyph glyph-name="plus" unicode="+" horiz-adv-x="1065" 
d="M188 410q0 36 23 79.5t53 48.5q23 3 86 16l88 17v8q0 17 -5 70q-7 64 -7 90q0 46 35 82.5t82 36.5q69 0 69 -86q0 -33 -1 -115q-1 -42 -1 -51q15 0 98 29q118 41 150 41q21 0 35 -34t14 -67q0 -21 -21.5 -52t-47.5 -36q-44 -10 -150 -40q-54 -15 -65 -17q0 -3 1 -36
q3 -109 3 -134q0 -28 -33.5 -58t-65.5 -30q-33 0 -53 22t-20 54q0 106 -4 137q-29 -5 -105 -27q-87 -26 -106 -26q-21 0 -36.5 25t-15.5 53z" />
    <glyph glyph-name="comma" unicode="," 
d="M43 -158q0 29 56 105q25 33 59 95q36 67 54.5 86t37.5 19q45 0 86 -30.5t41 -57.5q0 -26 -44 -106.5t-105 -126t-91 -45.5q-39 0 -66.5 17t-27.5 44z" />
    <glyph glyph-name="hyphen" unicode="-" horiz-adv-x="1188" 
d="M262 539q0 36 28 74t64 38q24 0 147 18q73 11 97 14q26 3 97 14q107 18 136 18q44 0 71.5 -29t27.5 -65q0 -38 -23.5 -70.5t-60.5 -32.5q-142 0 -336 -43q-146 -33 -164 -33q-36 0 -60 31t-24 66z" />
    <glyph glyph-name="period" unicode="." 
d="M139 76q0 41 37.5 74.5t83.5 33.5q42 0 77.5 -48.5t35.5 -90.5q0 -32 -34 -56t-79 -24q-121 0 -121 111z" />
    <glyph glyph-name="slash" unicode="/" horiz-adv-x="805" 
d="M564 1294q14 45 52 75t74 30q49 0 83 -22.5t34 -61.5q0 -27 -72 -161.5t-139 -244.5q-36 -59 -133 -256q-50 -102 -79.5 -169.5t-116.5 -332.5q-38 -114 -45 -125.5t-16.5 -21t-21.5 -16.5q-35 -23 -84 -23q-31 0 -59.5 22.5t-28.5 55.5q0 39 105.5 294t186.5 408
q222 421 260 549z" />
    <glyph glyph-name="zero" unicode="0" horiz-adv-x="985" 
d="M90 416q0 151 32 265.5t98 220.5t124.5 158t91.5 52q37 0 58 -41q34 12 92 12q65 0 140.5 -77.5t124 -194t48.5 -223.5q0 -136 -73.5 -269.5t-192 -218t-234.5 -84.5q-144 0 -226.5 112.5t-82.5 287.5zM481 889q-10 0 -37 -25l-24 -33q-103 -152 -103 -389
q0 -123 37.5 -191.5t91.5 -68.5q39 0 101 57t96.5 137t34.5 171q0 90 -22.5 170t-64 138t-65.5 58q-9 0 -22 -11t-23 -13z" />
    <glyph glyph-name="one" unicode="1" horiz-adv-x="532" 
d="M143 1030q0 44 27.5 68t73.5 24q89 0 108 -76q16 -66 29.5 -211.5t13.5 -283.5q0 -160 22 -322q7 -48 7 -63q0 -33 -38.5 -66.5t-74.5 -33.5q-28 0 -53 12.5t-39 32.5t-22 134q-11 178 -11 365q0 120 -29 298q-14 91 -14 122z" />
    <glyph glyph-name="two" unicode="2" horiz-adv-x="985" 
d="M20 852q0 63 82 117q9 5 49 36q210 164 320 164q124 0 200.5 -81.5t76.5 -196.5q0 -78 -25.5 -153t-95.5 -181q-49 -74 -242 -313l184 20q54 6 177 32q128 28 165 28q90 0 90 -64q0 -61 -38 -105t-105 -44q-115 0 -327 -21q-90 -9 -152.5 -17.5t-82.5 -16.5
q-16 -6 -53 -23q-56 -27 -71 -27q-28 0 -49 23.5t-21 62.5q0 38 75 158t178 253q67 88 121 206t54 186q0 54 -13 68t-58 14q-87 0 -236 -201q-15 -20 -50.5 -34.5t-72.5 -14.5t-58.5 37.5t-21.5 87.5z" />
    <glyph glyph-name="three" unicode="3" horiz-adv-x="961" 
d="M627 612q-72 0 -256 -71q-119 -47 -150 -47q-21 0 -54.5 28.5t-33.5 59.5q0 35 17.5 55t62.5 35q58 18 157 89.5t172.5 150.5t73.5 102q0 25 -47 25q-45 0 -227 -39q-67 -15 -96 -21q-158 -25 -183 -25q-32 0 -62 22.5t-30 51.5q0 64 26.5 91.5t84.5 27.5q100 0 171 4
t195 26q157 27 199 27q197 0 197 -135q0 -51 -40 -106.5t-152 -144.5q-47 -37 -62 -52q171 0 236 -39t65 -129q0 -75 -34 -143q-16 -35 -40.5 -64.5t-124.5 -110.5q-172 -139 -205 -174q-20 -22 -63.5 -39.5t-75.5 -17.5q-34 0 -63 25t-29 61q0 43 25 83t53 40q29 0 91 47
l93 71q93 72 122.5 107t29.5 72q0 18 -13 36t-30 21z" />
    <glyph glyph-name="four" unicode="4" horiz-adv-x="985" 
d="M862 614q37 0 60.5 -29.5t23.5 -66.5q0 -30 -27.5 -61t-56.5 -31q-36 6 -90 6q1 -29 16.5 -133.5t26.5 -147.5q14 -56 14 -85t-31.5 -54.5t-66.5 -25.5q-122 0 -138 95q-11 70 -25.5 187t-14.5 148l-53 2q-171 0 -257 -17.5t-110 -17.5q-92 0 -92 139q0 27 44.5 117.5
t90.5 163.5q36 58 144 284.5t108 251.5q0 86 86 86q50 0 93.5 -31.5t43.5 -64.5q0 -81 -61 -168q-45 -64 -153.5 -262t-155.5 -309q173 10 270 10q-1 50 -17 198q-14 130 -14 163q0 38 36 69t91 31q46 0 86.5 -41.5t40.5 -87.5q0 -29 -3 -158q-3 -136 -3 -168q80 8 94 8z
" />
    <glyph glyph-name="five" unicode="5" horiz-adv-x="940" 
d="M45 532q0 76 34 271q23 128 23 145q0 16 -10 25q-26 21 -26 47q0 17 20.5 40.5t50.5 33.5q159 72 488 159q20 5 52 17q52 20 89 20q46 0 77 -28.5t31 -73.5q0 -53 -19 -86t-44 -33q-22 0 -70 8q-47 8 -67 8q-53 0 -214 -55q-68 -23 -114.5 -42t-46.5 -37v-3
q7 0 13.5 -12.5t6.5 -26.5q0 -22 -19 -62q-29 -65 -40 -165q203 59 358 59q281 0 291 -254q0 -120 -88 -266.5t-220.5 -255t-223.5 -108.5q-58 0 -93.5 28t-35.5 72q0 59 25.5 96t58.5 37q16 0 46 -9q26 -7 38 -7q32 0 61 26.5t55 53.5t48 54q110 134 110 243q0 61 -28 87.5
t-109 26.5q-79 0 -182.5 -28.5t-171.5 -65.5q-53 -29 -80 -29q-74 0 -74 90z" />
    <glyph glyph-name="six" unicode="6" horiz-adv-x="1051" 
d="M821 567q-37 0 -93 -119t-56 -176v-28l28 22q52 45 103.5 131t51.5 126q0 17 -11 30.5t-23 13.5zM498 221v10q0 104 57 245t136.5 228t156.5 87q63 0 112.5 -78.5t49.5 -177.5q0 -218 -249 -437q-3 -2 -4 -3q-3 -3 -10 -9q-64 -56 -75 -82q-19 -43 -72 -43q-23 0 -64 29
q-22 16 -30 18q-56 15 -151 58t-133.5 78.5t-69.5 90.5q-86 153 -86 361q0 139 52 430q34 195 52 228t50 48t83 15q35 0 62.5 -33.5t27.5 -64.5q0 -18 -29 -80q-33 -69 -43 -127.5t-22 -152.5q-25 -195 -25 -259q0 -182 71 -280q20 -28 69.5 -63.5t83.5 -35.5z" />
    <glyph glyph-name="seven" unicode="7" horiz-adv-x="760" 
d="M-129 1069q0 52 24 80.5t64 28.5q18 0 79 -4q74 -5 101 -5q55 0 162 17.5t210 51.5q66 22 85 22q34 0 60 -28.5t26 -68.5q0 -4 -10 -65l-14 -84q-2 -17 -20 -128l-48.5 -316t-15.5 -199.5t-3 -288.5q0 -35 -35.5 -58.5t-84.5 -23.5q-45 0 -80 23.5t-35 48.5q0 41 13 155
q9 75 9 92q0 40 17 181.5t51 313.5q35 177 35 210q-74 0 -201 -33q-94 -24 -240 -24q-59 0 -104 30.5t-45 71.5z" />
    <glyph glyph-name="eight" unicode="8" horiz-adv-x="940" 
d="M43 778q0 105 68 215t174.5 178t214.5 68q132 0 221.5 -74.5t89.5 -175.5q0 -46 -30.5 -96.5t-135.5 -153.5q-103 -101 -149 -161q-156 -241 -156 -336q0 -43 15 -60.5t51 -17.5q49 0 131.5 56t136 127.5t53.5 129.5q0 61 -88 79q-25 5 -42 24t-17 41q0 25 36.5 52
t57.5 27q67 0 93 -24q32 -31 81 -39t79.5 -54.5t30.5 -93.5q0 -66 -44 -147.5t-182 -180.5q-101 -73 -202 -118t-168 -45q-105 0 -163 47t-58 125q0 204 174 424q-48 -16 -122 -16q-79 0 -114.5 47.5t-35.5 152.5zM475 1071q-57 0 -110 -41.5t-91 -113.5t-38 -123
q0 -74 75 -74q71 0 142 57q145 100 145 221q0 74 -123 74z" />
    <glyph glyph-name="nine" unicode="9" horiz-adv-x="895" 
d="M100 743q0 155 92 283t253 209h1q103 52 220 52q53 0 100 -38.5t47 -75.5q0 -100 -31 -200q-21 -68 -42 -190.5t-21 -180.5q0 -39 -4 -229q-4 -191 -4 -230q0 -43 6 -141q4 -70 4 -92q0 -33 -29.5 -56.5t-64.5 -23.5q-49 0 -90 20.5t-41 53.5q0 24 3 98q5 99 5 141
q0 151 12 508l-8 -10q-50 -50 -124 -93.5t-122 -43.5q-76 0 -119 64t-43 175zM563 1135q-52 0 -116 -60.5t-102 -148.5t-38 -182q0 -60 47 -60q25 0 66 37.5t87 125.5t52 128q9 56 16.5 80t26.5 35q10 6 10 8q0 38 -41 38q-4 0 -8 -1z" />
    <glyph glyph-name="colon" unicode=":" 
d="M139 754q0 41 37.5 74.5t83.5 33.5q42 0 77.5 -48.5t35.5 -90.5q0 -32 -34 -56t-79 -24q-121 0 -121 111zM139 88q0 41 37.5 75t83.5 34q42 0 77.5 -49t35.5 -91q0 -32 -34 -56t-79 -24q-121 0 -121 111z" />
    <glyph glyph-name="semicolon" unicode=";" 
d="M109 754q0 41 37 74.5t83 33.5q42 0 77.5 -48.5t35.5 -90.5q0 -33 -34 -56.5t-79 -23.5q-120 0 -120 111zM12 -158q0 29 56 104q24 32 58 95q37 67 55.5 86.5t37.5 19.5q46 0 86.5 -30.5t40.5 -57.5q0 -26 -44 -106.5t-105 -126t-91 -45.5q-39 0 -66.5 17t-27.5 44z" />
    <glyph glyph-name="less" unicode="&#x3c;" horiz-adv-x="1188" 
d="M283 608q0 39 22 56q14 17 146 106q106 72 137 96q119 95 196 95q29 0 57.5 -23.5t28.5 -46.5q0 -34 -41.5 -73t-146.5 -103q-142 -87 -160 -107q41 -56 214 -181q42 -31 67.5 -70.5t25.5 -69.5q0 -34 -26.5 -63t-61.5 -29q-38 0 -121 79q-39 37 -61 56l-124 110.5
l-113 104.5q-39 38 -39 63z" />
    <glyph glyph-name="equal" unicode="=" horiz-adv-x="1188" 
d="M262 588q0 36 28 74t64 38q24 0 147 18q73 11 97 14q26 3 97 14q107 18 136 18q44 0 71.5 -29t27.5 -65q0 -38 -23.5 -70.5t-60.5 -32.5q-145 0 -340 -43q-142 -32 -160 -32q-36 0 -60 30.5t-24 65.5zM301 267q0 35 28 73.5t64 38.5q25 0 156 19q66 10 88 12q24 3 89 14
q113 18 144 18q45 0 72 -29t27 -65q0 -38 -23.5 -70t-60.5 -32q-114 0 -240 -25q-21 -3 -120 -24q-124 -27 -140 -27q-36 0 -60 30.5t-24 66.5z" />
    <glyph glyph-name="greater" unicode="&#x3e;" horiz-adv-x="1188" 
d="M596 330q-22 -19 -61 -56q-83 -79 -121 -79q-34 0 -61 29t-27 63q0 30 25.5 69.5t67.5 70.5q173 125 214 181q-18 20 -160 107q-105 64 -146.5 103t-41.5 73q0 23 28.5 46.5t57.5 23.5q77 0 196 -95q31 -24 137 -96q132 -89 146 -106q22 -17 22 -56q0 -25 -39 -63
l-113 -104.5z" />
    <glyph glyph-name="question" unicode="?" horiz-adv-x="917" 
d="M834 1020q0 -128 -86 -245t-289 -253q-41 -27 -41 -108q0 -7 6 -37q6 -31 6 -39q0 -18 -26 -33.5t-56 -15.5q-48 0 -72.5 20.5t-44.5 80t-20 97.5q0 87 93 140q308 179 308 399q0 102 -59 162.5t-147 60.5q-104 0 -185 -79q-47 -46 -84 -46q-36 0 -66 27t-30 51
q0 92 109 156.5t245 64.5q193 0 316 -112.5t123 -290.5zM475 45q0 -33 -34 -56.5t-79 -23.5q-120 0 -120 111q0 41 37 74.5t83 33.5q42 0 77.5 -48.5t35.5 -90.5z" />
    <glyph glyph-name="at" unicode="@" horiz-adv-x="1143" 
d="M755 324q-89 0 -107 155q-25 -49 -78.5 -88t-107.5 -39q-98 0 -98 142q0 58 46.5 167.5t104 152t119.5 42.5q54 0 72 -51q11 35 45 35q17 0 34 -11.5t17 -29.5q0 -25 -9 -60q-16 -67 -16 -145q0 -59 6.5 -96t14.5 -37q19 0 45 41.5t39.5 109.5t13.5 160q0 107 -50 154
t-183 47q-137 0 -217 -92q-72 -82 -129.5 -212.5t-57.5 -236.5q0 -142 72.5 -220.5t181.5 -78.5q44 0 100 21t95 49q53 39 108 39q17 0 32 -17.5t15 -29.5q0 -28 -15 -55t-35 -39q-1 -1 -7 -4q-153 -97 -320 -97q-172 0 -279 120t-107 288q0 173 147 433q78 139 195 200
t282 61q319 0 319 -314q0 -132 -38.5 -235.5t-109.5 -166t-140 -62.5zM650 696q0 52 -26 52h-4q-28 0 -53.5 -36t-46.5 -102.5t-21 -89.5q0 -33 24 -33q21 0 74 84t53 125z" />
    <glyph glyph-name="A" unicode="A" horiz-adv-x="1120" 
d="M303 373q-31 -104 -31 -166q0 -26 3 -75q4 -50 4 -77q0 -36 -34.5 -59t-80.5 -23q-45 0 -74 34.5t-29 94.5q0 90 53 307t85 293q16 38 38.5 141.5t22.5 141.5q0 16 -2 54q-2 29 -2 38q0 36 31.5 63t81.5 27q47 0 77.5 -33t30.5 -71q0 -129 -91 -394q-24 -68 -30 -91
l303 145q-36 117 -123 293t-130 176q-21 0 -42.5 27.5t-21.5 58.5q0 41 39.5 63.5t103.5 22.5q58 0 170 -194.5t170 -354.5q99 0 99 -89q0 -50 -31 -64q28 -46 114.5 -171.5t113.5 -152.5q83 -85 83 -125q0 -107 -102 -107q-37 0 -67 16t-67 63q-7 8 -10 12q-33 47 -132 226
q-77 137 -93 159z" />
    <glyph glyph-name="B" unicode="B" horiz-adv-x="1339" 
d="M108 1014q0 3 -12 10q-38 23 -38 50q0 35 31 64.5t226 87.5q257 77 443 77q256 0 256 -121q0 -79 -91.5 -180t-217.5 -164q134 36 292 36q146 0 225 -49t79 -137q0 -162 -217 -329t-610 -315q-30 -11 -46 -28q-22 -24 -49 -24q-49 0 -88 23t-39 61q0 52 -38 307
q-20 137 -26 188q-25 0 -50 19.5t-25 42.5q0 37 47 84q0 36 -27 164q-21 98 -25 133zM326 1069q3 -133 30 -289q68 26 177.5 96t169 132.5t59.5 109.5q0 49 -111 49q-50 0 -167.5 -35t-157.5 -63zM389 627q11 -65 38 -250q21 -141 24 -156q46 38 166 69q162 43 304 155
t142 192q0 52 -30 76t-124 24q-207 0 -520 -110z" />
    <glyph glyph-name="C" unicode="C" horiz-adv-x="1159" 
d="M1075 209q-73 -41 -341 -95.5t-410 -54.5q-147 0 -205 38.5t-58 138.5q0 263 103.5 498t283 392.5t330.5 157.5q109 0 109 -70q0 -45 -50 -88.5t-135 -76.5q-212 -95 -324 -286t-112 -452q0 -56 24.5 -77t121.5 -21q71 0 288.5 70t278.5 106q61 34 92 34q40 0 64 -23
t24 -60q0 -38 -17 -67t-67 -64z" />
    <glyph glyph-name="D" unicode="D" horiz-adv-x="1161" 
d="M1079 760q0 -281 -299 -519q-127 -102 -278 -170.5t-234 -68.5q-71 0 -71 72q0 61 90 90q249 82 417 240t168 327q0 157 -133 232t-415 75q8 -56 8 -98q0 -30 -4 -135q-6 -154 -6 -221q0 -51 28 -218q15 -86 15 -100q0 -32 -44.5 -62t-70.5 -30q-54 0 -74 29t-37 151
q-26 180 -26 326q0 53 9 207q7 116 7 145q0 41 -9 79q-5 24 -5 40q0 28 18.5 50t40.5 22q38 0 80 -15q68 -24 166 -24q168 0 326 -57t245.5 -152.5t87.5 -214.5z" />
    <glyph glyph-name="E" unicode="E" horiz-adv-x="1202" 
d="M137 993q0 32 38.5 57t98.5 25q39 0 65 -19.5t26 -43.5q0 -9 1 -49q1 -103 1 -160q61 14 201 62q131 46 167 46q21 0 36 -32t15 -66q0 -31 -150 -89t-267 -83q1 0 0.5 -139.5t34.5 -216t128 -76.5q63 0 195.5 51.5t190.5 90.5q49 34 93 112q47 82 115 82q54 0 54 -82
q0 -111 -111.5 -207t-311.5 -162.5t-341 -66.5q-132 0 -200.5 123.5t-68.5 355.5q0 51 -2 94l-47 -2q-17 0 -27 24t-10 60q0 27 26.5 51t59.5 29q0 33 -4 93q-6 80 -6 138zM150 1112q0 78 304 156t406 78q84 0 109.5 -15t25.5 -53q0 -58 -26 -91.5t-72 -33.5q-42 0 -159 -9
q-21 -1 -71 -4.5t-344 -49.5q-106 -17 -114 -17q-24 0 -41.5 10.5t-17.5 28.5z" />
    <glyph glyph-name="F" unicode="F" horiz-adv-x="1047" 
d="M117 1159q0 35 32.5 60.5t69.5 25.5q38 0 69 -29.5t31 -74.5q0 -25 7 -141q14 -239 14 -341q0 -148 73 -470q17 -76 17 -85q0 -51 -35 -84.5t-90 -33.5q-41 0 -71.5 26t-30.5 66q0 29 -24 215q-30 242 -46 500t-16 366zM340 678q0 92 59 92q107 9 281 43q52 14 122 39
q55 20 72 20q25 0 44.5 -16t19.5 -35q0 -72 -55.5 -98.5t-155.5 -52.5q-85 -23 -178 -39.5t-127 -16.5q-82 0 -82 64zM293 1233q0 68 228.5 124t404.5 56q94 0 94 -59q0 -52 -60.5 -83.5t-204.5 -45.5q-85 -8 -256 -47q-106 -25 -126 -25q-80 0 -80 80z" />
    <glyph glyph-name="G" unicode="G" horiz-adv-x="1341" 
d="M1282 680q0 -29 -12 -139q-17 -154 -17 -281q0 -48 16 -137q9 -53 9 -70q0 -27 -24 -47t-50 -20q-56 0 -80 48t-24 163q0 69 10 172q-193 -178 -388 -275.5t-357 -97.5q-139 0 -221.5 97t-82.5 253q0 140 63 319.5t175 366.5q75 124 156.5 224t143 134.5t98.5 34.5
q33 0 55 -20t39 -107q2 -7 4 -21q8 -38 8 -46q0 -19 -8.5 -34t-22.5 -15q-23 0 -44 7q-24 7 -30 7q-39 0 -84.5 -48.5t-89.5 -109.5t-81 -128q-162 -286 -162 -578q0 -90 37.5 -138.5t105.5 -48.5q110 0 313.5 121.5t321.5 263.5q-16 0 -55 -15q-37 -14 -66 -22
q-26 -9 -66 -26q-56 -23 -88 -23q-34 0 -60 30t-26 61q0 30 23 60t51 30q47 0 221 46q235 62 248 62q14 0 27.5 -16.5t13.5 -36.5z" />
    <glyph glyph-name="H" unicode="H" horiz-adv-x="1143" 
d="M102 1157q0 49 35.5 80t77.5 31q48 0 85.5 -38.5t37.5 -101.5q0 -219 27 -346q238 34 370 90q-2 45 -25 183q-32 187 -32 256q0 48 40 82t91 34q45 0 74.5 -24.5t29.5 -67.5q0 -67 23 -305q9 -88 10 -108l15 2q21 0 39.5 -26.5t18.5 -60.5q0 -32 -18 -75t-36 -43l6 -117
q8 -71 39 -282q30 -208 30 -232q0 -42 -27 -68t-75 -26q-55 0 -88 39t-33 104q0 61 -43 412q-13 109 -16 137q-170 -27 -387 -84q5 -47 26 -193t35 -214q21 -5 26 -16t5 -36q0 -30 -49.5 -72t-85.5 -42q-120 0 -131 180q-3 64 -18 229q-12 132 -13 158q-18 0 -39 32.5
t-21 55.5q0 30 13.5 53t36.5 27q-1 23 -18 119q-36 200 -36 274z" />
    <glyph glyph-name="I" unicode="I" horiz-adv-x="551" 
d="M117 1167q0 70 37 110t94 40q54 0 89.5 -32.5t35.5 -74.5q0 -17 -8 -104q-19 -205 -19 -297q0 -304 78 -653q12 -54 12 -62q0 -36 -40.5 -62t-76.5 -26q-51 0 -89 29t-41 67q-3 21 -12 93q-60 483 -60 972z" />
    <glyph glyph-name="J" unicode="J" horiz-adv-x="1057" 
d="M776 375q0 -334 -106 -334q-187 0 -400 128.5t-213 229.5q0 35 29.5 66t73.5 31q47 0 142 -112q52 -61 135 -132.5t116 -71.5q35 0 35 197q0 110 -45 409t-78 318q-51 0 -222 -32q-132 -25 -163 -25q-37 0 -58.5 28t-21.5 66q0 28 21.5 59t50.5 31q54 0 212 12.5
t204 23.5q24 6 60 21q34 15 48 15q13 0 46 -6q36 -6 53 -6q39 0 145.5 32.5t150.5 71.5q43 37 84 37q35 0 55.5 -25.5t20.5 -60.5q0 -55 -25.5 -82t-83.5 -49q-108 -42 -356 -76q90 -441 90 -764z" />
    <glyph glyph-name="K" unicode="K" horiz-adv-x="1208" 
d="M250 1399q121 0 121 -125q0 -45 -5 -173q-4 -128 -4 -173q69 30 280 187l84 62q38 28 116 97q99 89 145.5 116t83.5 27q33 0 59.5 -31.5t26.5 -62.5q0 -84 -48 -119l-96 -63l-281 -181q-326 -208 -367 -237v-29q108 -31 442 -186q209 -98 251.5 -125t62.5 -53.5t20 -55.5
q0 -37 -18 -68.5t-46 -31.5q-31 0 -166 59t-225 108q-236 125 -317 144q18 -231 37 -404q16 -138 16 -185q0 -44 -26.5 -71t-73.5 -28h-8q-56 0 -96 64q-25 39 -34 90.5t-18 395.5q-5 198 -8 255q-2 6 -15 24q-37 54 -37 81q0 23 19.5 57t40.5 51q0 11 -9 116
q-23 271 -23 340q0 57 35 92.5t81 35.5z" />
    <glyph glyph-name="L" unicode="L" horiz-adv-x="1047" 
d="M72 1182q0 35 33.5 62.5t76.5 27.5q57 0 88 -31q15 -14 21.5 -33.5t13 -102.5t13.5 -231q20 -398 26 -651q8 12 83 28.5t126 16.5t154 13.5t148 29.5q83 31 138 31q48 0 74.5 -23.5t26.5 -62.5q0 -33 -19 -60.5t-49 -42.5q-38 -18 -349 -41q-157 -12 -202 -18
q-15 -2 -42 -5q-90 -10 -111 -31q-18 -18 -32 -23.5t-54 -5.5q-32 0 -61.5 20t-29.5 43q0 15 2 86q3 77 3 94q0 139 -24.5 432.5t-44.5 407.5q-9 55 -9 70z" />
    <glyph glyph-name="M" unicode="M" horiz-adv-x="1552" 
d="M1126 868q-93 -148 -172 -328.5t-88 -243.5q-6 -43 -34 -56t-107 -13q-22 0 -40.5 18t-47.5 77q-35 32 -232 342l-92 143q2 -24 5 -80q19 -320 47 -454q32 -155 32 -203q0 -35 -34.5 -56.5t-75.5 -21.5q-95 0 -111 89.5t-33.5 400.5t-17.5 476q0 28 -10 65q-5 21 -5 30
q0 5 1 10q2 28 28 53q47 47 59 65q18 27 48 27q18 0 32 -4t24.5 -12.5t57.5 -91.5q297 -532 400 -613q18 65 199 402q104 194 122 236q19 43 62 70.5t94 27.5t81 -68t30 -180q0 -164 60 -521q40 -235 40 -307q0 -31 -29.5 -51t-70.5 -20q-30 0 -60.5 18.5t-44.5 45.5
q-19 36 -49 312q-38 335 -68 416z" />
    <glyph glyph-name="N" unicode="N" horiz-adv-x="1401" 
d="M119 578q-1 30 -6 94q-11 132 -11 243q0 209 121 209q62 0 120 -48q51 -42 196 -176l231 -218q214 -207 315 -297q0 19 -3 73q-7 104 -7 171q0 54 -16 256q-17 211 -17 270q0 47 31 83t70 36q49 0 88 -30t39 -71q0 -55 -1 -229q-2 -247 -2 -357q0 -184 21 -336
q10 -75 10 -106q0 -50 -12.5 -70t-50.5 -20q-59 0 -147 87q-9 8 -13 12l-98 97q-169 166 -226 218q-371 329 -444 440q-6 -30 -6 -51q0 -85 26 -315q35 -302 35 -353q0 -42 -34 -72t-68 -30q-61 0 -96 30.5t-35 86.5q0 45 -6 224z" />
    <glyph glyph-name="O" unicode="O" horiz-adv-x="1135" 
d="M82 727q0 163 42.5 303t117.5 229t145 89q36 0 68 -33.5t32 -65.5q0 -70 -17.5 -114.5t-37.5 -44.5q-27 0 -35 16q-9 18 -24 18q-24 0 -47 -127t-23 -317q0 -233 48 -359t128 -126q149 0 262 135.5t113 316.5q0 154 -94 286t-221 185q-50 21 -50 119q0 32 18.5 52
t51.5 20q121 0 237 -96.5t188.5 -254.5t72.5 -317q0 -134 -90.5 -287.5t-226.5 -243.5t-285 -90q-189 0 -281 163t-92 544z" />
    <glyph glyph-name="P" unicode="P" horiz-adv-x="1014" 
d="M336 1094q30 -101 36 -275q1 -42 8 -118q5 -67 5 -91q4 2 11 6q198 97 278 185.5t80 187.5q0 68 -70.5 106t-177.5 38q-94 0 -170 -39zM123 1012q-10 0 -37 -19q-23 -16 -34 -21q-7 -3 -17 -9q-21 -11 -45 -11q-28 0 -45 19t-17 53q0 45 47 80q125 78 283 127t295 49
q196 0 316 -68t120 -190q0 -163 -164 -324.5t-424 -279.5q0 -27 16 -115t32 -148q14 -55 14 -59q0 -41 -49 -73.5t-95 -32.5q-29 0 -56 13.5t-39 38t-30 231.5q-5 60 -9 69.5t-17 26.5q-18 25 -18 37q0 41 21 72q15 22 15 44q0 66 -24 278q-8 78 -17 145t-22 67z" />
    <glyph glyph-name="Q" unicode="Q" horiz-adv-x="1276" 
d="M92 451q0 155 53 305t152.5 279t165.5 159q19 40 45.5 54t81.5 14q127 -13 263 -114t227 -245.5t91 -261.5t-99 -264.5t-214 -220.5q95 -205 192 -345q99 -142 99 -184q0 -29 -29 -49t-80 -20q-47 0 -109 87t-170 328l-46 102q-96 -32 -203 -32q-205 0 -312.5 104
t-107.5 304zM602 1061q-15 0 -37 -11q-16 -8 -26 -11q-21 -7 -68.5 -61t-83.5 -124q-84 -163 -84 -369q0 -108 76 -192t172 -84q57 0 90 20q-22 38 -46 115.5t-24 114.5q0 39 19 71.5t41 32.5q38 0 56.5 -11t29.5 -42q7 -23 38 -104l33 -89q61 36 114.5 125.5t53.5 163.5
q0 146 -129.5 300.5t-224.5 154.5z" />
    <glyph glyph-name="R" unicode="R" horiz-adv-x="1188" 
d="M41 1210q19 49 41.5 69.5t64.5 20.5q28 0 89 -6q92 -8 337 -8q243 0 296 -17q50 -15 88 -50.5t38 -71.5q0 -94 -95.5 -215t-369.5 -359q35 -28 115 -54t168 -37q63 -8 187 -39q120 -29 163 -31q52 -2 87.5 -41.5t35.5 -77.5q0 -30 -25.5 -60t-60.5 -30q-20 0 -96 27
q-194 69 -359 93q-154 22 -280.5 95t-126.5 131q0 45 47 92q90 63 241.5 232t151.5 200q0 45 -67 63.5t-205 18.5q-167 0 -201 -6v-12q0 -64 19 -390t32 -417t45 -250q21 -108 21 -125q0 -37 -32.5 -65.5t-74.5 -28.5q-60 0 -101.5 39t-41.5 106q0 76 -35 472
q-14 155 -16 186q-2 85 -40 366q-2 16 -2 19q-3 23 -19 73q-19 62 -19 88z" />
    <glyph glyph-name="S" unicode="S" horiz-adv-x="1110" 
d="M20 944q0 86 90.5 193.5t227 190.5t221.5 83q94 0 154.5 -63.5t60.5 -137.5q0 -110 -69 -110q-88 0 -106 70q-10 40 -29.5 52.5t-55.5 12.5q-70 0 -190.5 -94.5t-120.5 -141.5q0 -21 82 -36q334 -62 493 -123q173 -67 244.5 -158t71.5 -252q0 -120 -79 -227t-216 -178.5
t-250 -71.5q-79 0 -139 39.5t-95.5 114.5t-35.5 147q0 99 37.5 172.5t99.5 73.5q96 0 96 -72q0 -26 -18 -78q-23 -65 -23 -104q0 -69 32 -101.5t103 -35.5q118 0 204.5 90.5t86.5 210.5q0 95 -43.5 154t-144.5 94q-188 66 -539 119q-150 23 -150 167z" />
    <glyph glyph-name="T" unicode="T" horiz-adv-x="1024" 
d="M371 1040q-43 -6 -147 -33q-128 -34 -167 -34q-31 0 -54 31t-23 61q0 31 20 60.5t49 29.5q43 0 278 48q114 24 134 26q19 2 138 28q272 58 325 58q31 0 55.5 -28.5t24.5 -61.5q0 -34 -29.5 -62t-69.5 -28q-47 0 -158 -15t-172 -30v-15q0 -69 13 -233q8 -91 9 -121
q3 -76 13.5 -235.5t16 -193.5t24.5 -104q23 -81 23 -108q0 -36 -34.5 -58t-86.5 -22q-51 0 -85.5 43.5t-47.5 149.5q-25 192 -25 337q0 92 -11 264q-10 153 -13 246z" />
    <glyph glyph-name="U" unicode="U" horiz-adv-x="1190" 
d="M834 1036q-11 122 -11 146q0 41 35 74.5t76 33.5q49 0 85 -24.5t36 -61.5q0 -24 -5 -138q-6 -153 -6 -196q0 -28 13.5 -285.5t29.5 -486.5v0q0 -121 -104 -121q-98 0 -98 138v12l-2 -1q-73 -59 -173.5 -93.5t-206.5 -34.5q-193 0 -297 120.5t-104 315.5q0 28 11 142
q14 152 14 213q0 55 -5 202q-3 98 -3 123q0 50 40.5 80.5t98.5 30.5q47 0 77.5 -29t30.5 -70q0 -31 -31 -272q-24 -188 -24 -414q0 -131 69 -202.5t200 -71.5q77 0 187 99q24 21 99 67q0 244 -6 366t-26 338z" />
    <glyph glyph-name="V" unicode="V" horiz-adv-x="1071" 
d="M4 1159q0 109 98 109q93 0 133 -73q3 -5 4 -7q11 -18 90.5 -230.5t107.5 -302.5q89 -284 149 -397q4 74 57 288q24 99 32 138q5 26 20 98q69 337 77 391q7 46 36.5 72.5t70.5 26.5q25 0 55.5 -28.5t30.5 -65.5q0 -63 -90 -387q-155 -564 -169 -691q-5 -56 -28 -89.5
t-57 -33.5q-57 0 -108.5 36t-72.5 98q-13 39 -86.5 227.5l-126.5 319t-125 274.5q-98 194 -98 227z" />
    <glyph glyph-name="W" unicode="W" horiz-adv-x="1440" 
d="M1206 1335q97 0 97 -135q0 -70 -24 -387q-26 -350 -26 -436q0 -166 10 -181q31 -46 31 -85q0 -34 -27 -59t-55 -25q-62 0 -166.5 100.5t-205 260t-162.5 312.5q-111 -537 -111 -645q0 -51 -27 -81.5t-71 -30.5q-42 0 -85 63t-46 125q-8 52 -110 323l-64 175q-8 26 -29 84
q-115 326 -115 387q0 92 121 92q28 0 63.5 -61.5t54.5 -149.5q34 -155 96.5 -366.5t107.5 -297.5q0 71 61 470q22 142 25 169q6 55 35.5 88t66.5 33q48 0 76.5 -50t66.5 -140q212 -504 308 -586q-10 160 -10 363q0 123 12 350.5t32.5 274t69.5 46.5z" />
    <glyph glyph-name="X" unicode="X" horiz-adv-x="1081" 
d="M1075 258q0 -44 -29 -79.5t-77 -35.5q-55 0 -233.5 146t-260.5 237l-35 -73q-32 -61 -70 -193t-42 -180q13 10 32 10q10 0 21.5 -14t11.5 -33t-88 -56q-32 -13 -47 -24q-29 -22 -55 -22t-45 19.5t-19 47.5q0 220 203 647q-16 25 -107 136t-124 139q-38 28 -61 64.5
t-23 64.5q0 39 27.5 69.5t68.5 30.5q32 0 79.5 -41t152.5 -172q77 -97 112 -133q3 16 53 94.5t89 127.5q69 87 151 247q25 64 104 64q71 0 71 -87q0 -42 -54 -132.5t-96 -132.5q-37 -37 -111 -146.5t-96 -163.5q0 -21 177.5 -169.5t204.5 -148.5q8 0 23.5 7.5t28.5 7.5
q26 0 44.5 -31t18.5 -92z" />
    <glyph glyph-name="Y" unicode="Y" horiz-adv-x="897" 
d="M-4 1147q0 30 27 51t65 21q56 0 84 -23.5t44 -75.5q19 -61 151 -301q57 -105 73 -137q8 21 36 107q50 147 68 196q78 213 93 277q10 45 44.5 70.5t80.5 25.5q37 0 64.5 -31t27.5 -74q0 -27 -88 -249q-126 -318 -161 -449l-18 -63q-69 -249 -69 -316q0 -15 10 -41
q15 -37 15 -65q0 -41 -48 -78t-104 -37q-36 0 -61 62.5t-25 140.5q0 43 32 163q32 122 32 166q-23 15 -151 228t-150 260q-5 12 -21 42q-51 92 -51 130z" />
    <glyph glyph-name="Z" unicode="Z" horiz-adv-x="1083" 
d="M571 1081q-91 0 -264 -43q-172 -43 -223 -43q-64 0 -64 84q0 39 33 61.5t84 22.5q34 0 141 15.5t173 28.5q132 26 227 26q61 0 99 -15t38 -42q0 -58 -102 -232q-27 -46 -145 -284.5t-159.5 -335t-41.5 -127.5q106 8 293.5 37t331.5 78q65 22 93 22t51 -28.5t23 -57.5
q0 -66 -34.5 -95t-304.5 -67q-340 -48 -494 -53q-31 -1 -72 -8q-32 -5 -49 -5q-30 0 -50 31t-20 76q0 38 138 343t223 464q51 94 75 147z" />
    <glyph glyph-name="bracketleft" unicode="[" horiz-adv-x="674" 
d="M731 -215q0 -32 -21.5 -63t-43.5 -31q-11 0 -46 4q-78 9 -136 9q-38 0 -76 -3q-58 0 -86 20t-31.5 30t-11.5 190q-15 334 -23 473.5t-26 304.5q-35 327 -35 520q0 125 16 154.5t65 29.5q297 0 318 -9q19 -7 31 -30.5t12 -48.5q0 -26 -25 -53t-57 -27q-30 0 -131 9
q-21 -36 -21 -158q0 -66 33 -401q14 -146 17 -185q6 -91 44 -477q15 -157 25 -183l46 3q58 4 81 4q32 0 57 -27.5t25 -54.5z" />
    <glyph glyph-name="backslash" unicode="\" horiz-adv-x="940" 
d="M301 1294q38 -128 260 -549q81 -153 186 -407.5t105 -294.5q0 -33 -28.5 -55.5t-59.5 -22.5q-49 0 -85 23q-11 7 -21 17t-16.5 21t-42.5 121q-86 262 -115.5 329.5t-81.5 173.5q-98 200 -134 259q-67 110 -139 244.5t-72 161.5q0 39 34 61.5t83 22.5q37 0 75 -30t52 -75z
" />
    <glyph glyph-name="bracketright" unicode="]" horiz-adv-x="674" 
d="M508 -125q0 -184 -82 -184q-76 5 -147 5q-53 0 -101 -2.5t-57 -2.5q-24 0 -39.5 28t-15.5 60q0 27 24.5 53.5t56.5 26.5q30 0 132 -9q20 34 20 158q0 68 -33 467l-16 193q-3 49 -20 195q-19 154 -26 235l-12 116q-3 29 -4 37q-18 1 -65 -2.5t-70 -3.5q-32 0 -57 27.5
t-25 54.5q0 32 22 63t44 31q11 0 67.5 -6.5t114.5 -6.5q38 0 76 3q57 0 88 -18q11 -6 18 -13.5t11 -17.5t11 -152q25 -504 46 -726q39 -403 39 -609z" />
    <glyph glyph-name="asciicircum" unicode="^" horiz-adv-x="604" 
d="M303 1409q19 0 37.5 -6.5t43.5 -46.5q49 -80 139 -147q59 -44 59 -70q0 -58 -64 -58q-67 0 -112.5 25.5t-106.5 128.5q-10 -11 -39 -38q-46 -43 -61 -62q-42 -52 -123 -52q-64 0 -64 58q0 20 18 43t114 108q117 103 132 110t27 7z" />
    <glyph glyph-name="underscore" unicode="_" horiz-adv-x="1972" 
d="M1965 -362q27 0 49.5 -34t22.5 -71q0 -27 -22.5 -54.5t-49.5 -27.5h-1958q-25 0 -45.5 24.5t-20.5 52.5q0 41 19 75.5t47 34.5h1958z" />
    <glyph glyph-name="grave" unicode="`" 
d="M408 1143q0 -29 -26 -53.5t-52 -24.5q-23 0 -85.5 41t-111.5 100.5t-49 104.5q0 24 31 55t59 31q25 0 42.5 -11.5t42.5 -52.5q29 -48 54 -73q95 -78 95 -117z" />
    <glyph glyph-name="a" unicode="a" horiz-adv-x="834" 
d="M51 123q0 175 218 349l76.5 61l98.5 76.5t74 41.5q-10 63 -37 100t-67 37q-39 0 -91.5 -24.5t-80.5 -52.5q-39 -39 -54 -39q-31 0 -61.5 26t-30.5 60q0 47 67 84t160 69.5t136 32.5q97 0 160.5 -76.5t103.5 -230.5q39 -125 39 -346q0 -98 -20 -191q-12 -57 -25.5 -67.5
t-39 -17.5t-44.5 -7q-46 0 -74.5 20.5t-28.5 57.5l7 64q-56 -65 -148 -104.5t-178 -39.5q-160 0 -160 117zM537 510q-269 -172 -269 -305q0 -47 51 -47q72 0 150 76q17 16 44 31t30 15v0v-1q0 153 -6 231z" />
    <glyph glyph-name="b" unicode="b" horiz-adv-x="965" 
d="M903 557q0 -110 -97 -232t-262.5 -227.5t-234.5 -105.5q-27 0 -65 17q-20 8 -31 11q-72 20 -72 218q0 58 -26 293q-21 195 -21 235q0 36 -16 205q-27 274 -27 368q0 40 33.5 63t93.5 23q46 0 75.5 -21t29.5 -58q0 -26 -2 -89q-2 -84 -2 -131q0 -42 12 -148q8 -68 10 -95
q25 25 76.5 46t101.5 21q175 0 299.5 -120t124.5 -273zM649 539q0 121 -54.5 193.5t-123.5 72.5q-36 0 -72.5 -23t-53.5 -60q-12 -25 -26 -42q31 -385 31 -502q0 -20 23 -20q6 0 13 9q6 8 16 14q247 159 247 358z" />
    <glyph glyph-name="c" unicode="c" horiz-adv-x="791" 
d="M539 723q-104 -20 -175 -150t-71 -270q0 -67 20 -95t66 -28q60 0 152 55q14 8 20 11q11 6 40 35q67 67 105 67q40 0 67.5 -20t27.5 -47q0 -83 -165 -166.5t-296 -83.5q-126 0 -192 62.5t-66 176.5q0 244 166 445q69 84 152.5 143t123.5 59q94 0 94 -83q0 -98 -69 -111z
" />
    <glyph glyph-name="d" unicode="d" horiz-adv-x="981" 
d="M807 1348q0 -185 9 -434q7 -187 22 -292.5t59 -344.5q37 -200 37 -226q0 -52 -24.5 -70t-80.5 -18q-46 0 -69 13.5t-28 39.5q-2 11 -8 48.5t-19 111.5q-8 -51 -84.5 -80.5t-186.5 -29.5q-164 0 -265 84.5t-101 199.5q0 228 199 397q82 69 187 118.5t148 49.5
q-2 23 -18 149q-29 241 -29 263q0 43 37.5 71.5t103.5 28.5q111 0 111 -79zM626 647q-6 83 -14 129q-20 -31 -69 -39q-7 -1 -10 -2q-117 -50 -164 -132t-47 -216q0 -74 44 -132t113 -58q54 0 91 20.5t67 75.5q6 20 27 26q-30 223 -38 328z" />
    <glyph glyph-name="e" unicode="e" horiz-adv-x="805" 
d="M795 403q0 -66 -215 -229q-7 -5 -30 -23q-183 -147 -226 -147q-87 0 -145 104t-58 232v35q-15 -6 -41 -6q-13 0 -26 19.5t-13 37.5q0 40 13.5 58.5t62.5 39.5q0 109 24.5 204.5t67.5 160.5t76 65q92 0 177 -33t143.5 -89t58.5 -101q0 -53 -10.5 -78t-35 -46.5
t-152.5 -91.5q-126 -70 -144 -85v-49q0 -70 21 -122t46 -52q43 0 157 119q92 95 122 117t55 22q72 0 72 -62zM373 778q-18 0 -37 -67.5t-19 -114.5q15 8 63 30q81 37 99 50q0 34 -32 68t-74 34z" />
    <glyph glyph-name="f" unicode="f" horiz-adv-x="573" 
d="M145 700q-63 0 -94 2q-45 17 -45 54q0 32 12 55t31 23q21 0 54 5l24 3q-8 47 -8 112q0 136 45.5 238.5t132 162.5t172.5 60t141.5 -28t55.5 -78q0 -54 -14.5 -75.5t-47.5 -21.5q-74 0 -74 37q0 23 -63 23q-62 0 -100.5 -74.5t-38.5 -169.5q0 -37 7 -108q4 -36 5 -54
q27 0 94 25q72 26 103 26q18 0 30.5 -17t12.5 -40q0 -59 -39 -80q-122 -39 -183 -39q41 -266 51 -350q4 -30 23 -147q31 -184 31 -211q0 -33 -32 -62.5t-64 -29.5q-47 0 -88.5 20t-44.5 47q-1 8 -8 48q-24 159 -39 308q-24 238 -42 336z" />
    <glyph glyph-name="g" unicode="g" horiz-adv-x="917" 
d="M887 -131q0 -198 -115.5 -340.5t-275.5 -142.5q-140 0 -230 55t-90 153q0 46 28.5 72.5t78.5 26.5q36 0 65 -22t38 -52q32 -104 103 -104q73 0 127 114.5t54 245.5q0 114 -37 297q-20 -60 -94.5 -109t-157.5 -49q-132 0 -212.5 81.5t-80.5 226.5q0 183 62 325t177.5 228
t227.5 86q46 0 88.5 -15t46.5 -37q0 -55 -27 -101t-57 -46q-31 0 -31 12q-4 18 -19 24.5t-28 6.5q-86 0 -149.5 -138.5t-63.5 -336.5q0 -87 31 -127.5t98 -40.5q46 0 78.5 26.5t52 94t23.5 98.5t4 111q0 18 -8 69q-10 71 -10 105q0 45 35 78.5t88 33.5q35 0 66 -24t36 -77
q16 -158 16 -265q0 -52 23 -174q39 -212 39 -369z" />
    <glyph glyph-name="h" unicode="h" horiz-adv-x="961" 
d="M618 111q0 30 8 119q14 158 14 252q0 128 -23.5 211t-59.5 83q-64 0 -143.5 -106.5t-79.5 -196.5q0 -167 22 -279q21 -111 21 -128q0 -75 -85 -75q-47 0 -69 7.5t-37 36.5q-29 84 -75 493q-5 74 -35 287q-45 322 -45 428q0 98 36 141t121 43q46 0 75.5 -24.5t29.5 -61.5
q0 -17 -3 -62q-7 -107 -7 -200q0 -53 14 -190q12 -125 14 -182q20 79 122.5 151t219.5 72q103 0 159 -117.5t56 -339.5q0 -29 -10 -152q-11 -141 -11 -186q-1 -55 -34 -86t-94 -31q-46 4 -73.5 29t-27.5 64z" />
    <glyph glyph-name="i" unicode="i" horiz-adv-x="444" 
d="M334 1100q0 -96 -135 -96q-111 0 -111 79q0 36 37 67.5t80 31.5q129 0 129 -82zM352 109q0 -55 -32.5 -90t-77.5 -35q-115 0 -115 104q0 26 -8 178q-17 350 -17 488q0 50 39.5 83t98.5 33q94 0 94 -82q0 -18 -5 -87q-10 -125 -10 -185q0 -55 20 -249q13 -132 13 -158z
" />
    <glyph glyph-name="j" unicode="j" horiz-adv-x="483" 
d="M217 -78q0 59 -39 293q-6 54 -37 227q-53 296 -53 392q9 35 41.5 60.5t79.5 25.5q125 0 125 -91q0 -252 37 -413q26 -117 48.5 -301t22.5 -289q0 -291 -288 -291q-204 0 -330.5 70t-126.5 166q0 69 22 98t72 29q82 0 116 -80q28 -66 82 -103t120 -37q55 0 81.5 57
t26.5 187zM82 1153q0 36 37 67t80 31q129 0 129 -82q0 -96 -135 -96q-111 0 -111 80z" />
    <glyph glyph-name="k" unicode="k" horiz-adv-x="842" 
d="M344 346q3 -65 20 -163q11 -65 11 -89q0 -36 -33 -65t-72 -29q-42 0 -77 24t-35 60q0 40 -22.5 273.5t-29.5 280.5t-26 153q-39 213 -39 288q0 36 34.5 63t86.5 27q34 0 56 -21.5t24 -55.5q1 -17 30 -160q36 -176 39 -211q29 25 111.5 101.5l117.5 109.5t35 45
q-8 20 -8 39q0 21 41 39t90 18q31 0 54.5 -21.5t23.5 -50.5q0 -68 -56 -120q-47 -43 -191 -162.5t-162 -132.5q-41 -28 -41 -47q0 -6 57 -38q23 -13 31 -18q222 -137 331 -162q42 -10 70.5 -44t28.5 -66t-18.5 -58t-45.5 -26q-80 0 -219.5 75t-216.5 144z" />
    <glyph glyph-name="l" unicode="l" horiz-adv-x="459" 
d="M20 1241q0 184 138 184q45 0 80.5 -19.5t35.5 -59.5q0 -20 -3 -80q-7 -108 -7 -174q0 -55 39 -314q31 -206 34 -258q5 -86 46 -279q25 -120 25 -147q0 -44 -29.5 -69t-79.5 -25q-59 0 -97.5 19.5t-41.5 54.5q-1 25 -14 126q-28 211 -35 322q-6 73 -39 273
q-52 315 -52 446z" />
    <glyph glyph-name="m" unicode="m" horiz-adv-x="1360" 
d="M760 805q44 59 136.5 100t176.5 41q54 0 98 -51.5t64 -135t27 -364.5q1 -44 9 -137q7 -83 7 -111q0 -53 -34 -84.5t-95 -31.5q-113 0 -113 108q0 65 4 248q4 153 4 199q0 202 -69 202q-45 0 -81.5 -20.5t-96.5 -83.5v-3q0 -12 6 -109q11 -154 12 -197q1 -37 4 -118
q4 -100 4 -132q0 -116 -122 -116q-58 0 -83.5 19t-25.5 64q0 8 2 76q6 254 6 354q0 124 -24 185t-62 61q-51 0 -116.5 -87.5t-65.5 -178.5q0 -106 38 -284q25 -115 25 -159q0 -28 -39 -49.5t-71 -21.5q-41 0 -72.5 13.5t-40.5 35.5q-27 89 -46 342q-8 116 -37 274
q-17 96 -17 129q0 39 39 72t71 33q72 0 99.5 -35.5t35.5 -120.5q47 83 122 139t145 56q60 0 108.5 -33t67.5 -88z" />
    <glyph glyph-name="n" unicode="n" horiz-adv-x="971" 
d="M336 737q64 91 147 140t170 49q68 0 116 -44.5t72.5 -128t32.5 -378.5q2 -42 8 -132q7 -87 7 -116q0 -43 -39.5 -76t-89.5 -33q-51 0 -85 24t-34 62q0 24 3 114q5 122 5 167v27q1 34 1 55q0 307 -77 307q-45 0 -103.5 -51.5t-90 -131.5t-31.5 -179q0 -37 19 -167
q22 -146 22 -192q0 -29 -27.5 -48t-64.5 -19q-86 0 -117 59q-21 57 -37 226q-7 72 -12 108q-39 319 -39 360q0 131 127 131q57 0 83.5 -31t33.5 -102z" />
    <glyph glyph-name="o" unicode="o" horiz-adv-x="897" 
d="M72 375q0 138 67.5 285.5t165.5 224.5q9 6 19 22q19 31 53 31q26 0 58 -11q31 -10 54 -10q73 0 156.5 -59.5t128.5 -155t45 -215.5q0 -131 -59 -242t-162.5 -181t-202.5 -70q-151 0 -237 99.5t-86 281.5zM422 147q62 0 118 91t56 206q0 119 -42 222.5t-87 103.5
q-51 0 -106.5 -123.5t-55.5 -259.5q0 -113 31.5 -176.5t85.5 -63.5z" />
    <glyph glyph-name="p" unicode="p" horiz-adv-x="891" 
d="M125 582q-26 0 -45 22.5t-19 50.5q0 14 27 53q14 20 18 29l-6 117q0 54 34.5 85.5t94.5 31.5q37 0 69 -20.5t32 -45.5q27 43 82 43q69 0 181.5 -83.5t182.5 -191t70 -204.5q0 -104 -125.5 -236.5t-342.5 -265.5q-6 -4 -7 -4q20 -370 20 -389q0 -41 -30.5 -69.5
t-73.5 -28.5q-113 0 -113 141q0 30 3 114q5 112 5 165q0 91 -30 369q-27 246 -27 317zM330 676q0 -44 2 -123q2 -86 2 -137q0 -60 13 -203q7 -74 7 -90q28 0 97.5 65.5t112 138.5t42.5 132q0 66 -30.5 142t-77.5 134t-78 58q-37 0 -63.5 -38t-26.5 -79z" />
    <glyph glyph-name="q" unicode="q" horiz-adv-x="946" 
d="M922 -469q0 -39 -26.5 -67.5t-68.5 -28.5q-47 0 -81.5 26.5t-34.5 57.5q0 15 -4 64q-7 86 -9 151q-13 361 -26 438q-20 -54 -122.5 -120t-191.5 -66q-108 0 -192 76t-84 180q0 266 202 461q84 81 190 138.5t149 57.5q88 0 88 -65q0 -43 -25 -91t-55 -72t-49 -24
q-15 0 -15 10q0 6 2 16q3 10 3 15q0 29 -15 29h-2q-102 -60 -179 -180t-77 -220q0 -76 27 -131t69 -55q66 0 129 58t92 105.5t29 97.5q0 9 -1 28q-1 17 -1 26q0 27 -4 86q-4 69 -4 105q0 45 46 87t83 42q34 0 59 -25.5t25 -60.5q0 -19 -2 -92q-4 -129 -4 -189q0 -55 24 -298
q20 -195 22 -248q3 -67 22 -216q12 -88 12 -106z" />
    <glyph glyph-name="r" unicode="r" horiz-adv-x="782" 
d="M741 688q0 -33 -26 -64.5t-53 -31.5q-96 0 -103 49q-7 51 -21 70.5t-42 19.5q-50 0 -172 -162q5 -70 24 -202t42 -223q18 -69 18 -93q0 -28 -37.5 -48.5t-71.5 -20.5q-40 0 -73.5 15.5t-43.5 37.5q-12 40 -28 156.5t-22 189.5q-2 28 -19 137q-27 178 -27 223
q0 78 26.5 110.5t87.5 32.5q46 0 75.5 -20.5t29.5 -46.5q0 -19 -1 -57q-1 -33 -1 -47q66 100 133.5 145t151.5 45q153 0 153 -215z" />
    <glyph glyph-name="s" unicode="s" horiz-adv-x="827" 
d="M799 311q0 -81 -53 -153t-144 -119t-172 -47q-130 0 -206.5 42t-76.5 118q0 88 37.5 142t94.5 54q41 0 70.5 -24.5t29.5 -51.5q0 -55 -23 -66q-26 -13 -26 -44q0 -17 27.5 -27t64.5 -10q80 0 130 40.5t50 92.5q0 174 -252 174q-85 0 -167 -5q-24 -1 -31 -1
q-38 0 -69.5 37t-31.5 90q0 60 69.5 160.5t158 167t158.5 66.5q51 0 89.5 -28.5t63 -82t24.5 -93.5q0 -28 -26 -54.5t-64 -26.5q-77 0 -90 43q-5 17 -18.5 32t-26.5 15q-49 0 -89 -44t-40 -85q0 -16 14 -21.5t56 -5.5q7 0 33 1q60 1 94 1q61 0 153 -39.5t140.5 -102.5
t48.5 -145z" />
    <glyph glyph-name="t" unicode="t" horiz-adv-x="559" 
d="M176 707q-10 -1 -32 -3q-40 -4 -60 -4q-25 0 -44.5 19.5t-19.5 40.5q0 36 18 59t48 23q14 0 41 5q24 5 35 5q0 62 -17 168q-13 81 -13 118q0 43 29 70t75 27q50 0 82 -25t32 -59q0 -15 6 -86q11 -132 11 -186q11 2 28 8q26 10 45 10q33 0 55.5 -24.5t22.5 -59.5
q0 -17 -7 -31.5t-19 -24.5t-107 -28q0 -33 6 -157t10 -166q5 -46 12 -181t7 -168q0 -31 -29 -59.5t-65 -28.5q-53 0 -89 22q-17 11 -26.5 26t-14.5 112q-8 159 -8 246q0 46 -7 211q-5 103 -5 121z" />
    <glyph glyph-name="u" unicode="u" horiz-adv-x="971" 
d="M227 911q117 0 117 -98q0 -23 -4 -109q-6 -127 -6 -178q0 -348 96 -348q91 0 156 95.5t65 220.5q0 119 -40 254q-17 56 -17 79q0 37 39.5 68t93.5 31q63 0 87 -37.5t42 -316.5q10 -160 35 -318q14 -86 14 -131q0 -36 -32.5 -65t-59.5 -29q-56 0 -91 18q-21 11 -30 27.5
t-22 138.5q-78 -104 -182 -166.5t-193 -62.5q-82 0 -132.5 106.5t-56.5 302.5q-1 32 -5 146q-7 215 -7 252q0 54 35.5 87t97.5 33z" />
    <glyph glyph-name="v" unicode="v" horiz-adv-x="815" 
d="M794 807q0 -47 -68 -180q-52 -101 -132.5 -300.5t-97.5 -258.5q-10 -33 -33.5 -54.5t-52.5 -21.5q-32 0 -65 32.5t-50 79.5q-7 22 -58 134q-210 464 -210 563q0 45 31.5 72.5t88.5 27.5q63 0 94.5 -49t45.5 -154q7 -56 56 -196t81 -199q159 461 166 492q26 111 95 111
q51 0 80 -26.5t29 -72.5z" />
    <glyph glyph-name="w" unicode="w" horiz-adv-x="1034" 
d="M578 367q-23 -65 -91 -284q-15 -49 -24.5 -58.5t-23.5 -17.5q-30 -15 -66 -15q-28 0 -58 42.5t-35 78.5q-4 28 -76 203q-163 398 -163 503q0 34 39.5 59t85.5 25q102 0 125 -168q8 -62 48 -209.5t69 -218.5q24 92 39 291q4 46 33.5 86.5t68.5 40.5q61 0 82 -133
q6 -38 96 -172q25 -36 33 -49q8 37 8 114q0 49 -16 173q-13 98 -13 128q0 44 32.5 71.5t76.5 27.5q36 0 65 -44.5t29 -105.5q0 -42 -10 -185q-10 -155 -10 -204q0 -58 3 -158q1 -48 1 -61q0 -26 -23.5 -43.5t-56.5 -17.5q-46 0 -86 40q-24 39 -97 138q-68 93 -85 123z" />
    <glyph glyph-name="x" unicode="x" horiz-adv-x="805" 
d="M-10 834q0 47 32.5 82.5t77.5 35.5q46 0 220 -201q44 -50 55 -61q4 15 15 49q23 66 29 107q6 39 41.5 65.5t69.5 26.5q29 0 62 -25.5t33 -56.5q0 -50 -83 -202q-38 -70 -38 -81v0q6 0 102 -83t147.5 -143t51.5 -89q0 -51 -22 -82t-52 -31q-50 0 -259 203q-41 39 -48 45
q-47 -101 -66 -229q28 22 64 22q11 0 19 -14.5t8 -32.5q0 -27 -29 -56.5t-53 -35.5q-24 -5 -42 -43q-23 -51 -69 -51q-41 0 -67.5 28.5t-26.5 80.5q0 56 44 205.5t77 228.5q-5 15 -132 135q-41 38 -54 52l-25 23q-53 50 -67.5 75.5t-14.5 52.5z" />
    <glyph glyph-name="y" unicode="y" horiz-adv-x="743" 
d="M20 666q0 37 27.5 65.5t65.5 28.5q31 0 50.5 -10.5t53.5 -56.5l18 -24q54 -70 110 -160.5t71 -135.5q0 3 4 32q35 252 35 431q0 45 36.5 71.5t96.5 26.5q40 0 72 -26t32 -56q0 -37 -12 -82q-46 -182 -78.5 -430t-32.5 -465q0 -45 23 -161q20 -102 20 -137
q0 -47 -37.5 -80.5t-72.5 -33.5q-69 0 -105 39q-18 21 -22.5 68t-8.5 136.5t-4 137.5q0 127 15 273q0 28 -96 156.5t-205 252.5q-56 63 -56 140z" />
    <glyph glyph-name="z" unicode="z" horiz-adv-x="895" 
d="M348 170q51 0 161 16t227 54q85 28 112 28q59 0 59 -92q0 -33 -26.5 -64t-83.5 -45.5t-170 -30.5q-281 -40 -434 -40q-113 0 -113 63q0 58 132 334q32 66 40 86q23 52 81.5 147t88.5 134q-25 0 -120 -19q-133 -26 -183 -26q-42 0 -70.5 21t-28.5 48q0 46 20.5 73.5
t53.5 27.5q161 0 393 61q88 23 111 23q107 0 107 -60q0 -31 -109 -224q-67 -117 -83 -153q-6 -14 -40 -85q-112 -229 -125 -277z" />
    <glyph glyph-name="braceleft" unicode="{" horiz-adv-x="678" 
d="M616 1352q0 -46 -21 -72.5t-58 -26.5q-78 0 -110 -23.5t-32 -78.5q0 -63 44 -195t44 -194q0 -106 -131 -154q-9 -3 -10 -4q52 0 101 -45.5t49 -99.5q0 -58 -9 -240q-8 -179 -8 -235q0 -51 28 -83t77 -32q69 0 95.5 -22t26.5 -74q0 -90 -106 -90q-138 0 -230 65.5
t-92 185.5q0 175 11 378q4 85 4 116q0 49 -34.5 87.5t-78.5 49.5q-37 10 -37 56q0 50 62 53q49 2 67.5 22.5t18.5 61.5q0 44 -39 187q-55 200 -55 284q0 93 91.5 144.5t243.5 51.5q88 0 88 -73z" />
    <glyph glyph-name="bar" unicode="|" horiz-adv-x="737" 
d="M436 1282q0 -67 10 -258q13 -244 13 -354q0 -163 23 -514q7 -109 7 -125q0 -78 -88 -78q-40 0 -79 21t-39 44q0 21 2 127q4 171 4 226v34q0 109 -14 423q-3 62 -4 77q-1 42 -16 225q-13 162 -13 181q0 36 27.5 62t70.5 26t69.5 -33.5t26.5 -83.5z" />
    <glyph glyph-name="braceright" unicode="}" horiz-adv-x="678" 
d="M100 -240q0 46 21.5 72.5t58.5 26.5q77 0 109.5 23.5t32.5 78.5q0 63 -44 235q-45 172 -45 234q0 106 132 154q9 3 10 4q-52 0 -101 45.5t-49 99.5q0 58 9 197q8 136 8 192q0 51 -28 83t-77 32q-70 0 -96.5 22t-26.5 74q0 90 107 90q137 0 229 -66t92 -186
q0 -174 -10 -316q-4 -60 -4 -91q0 -49 34 -87t79 -51q37 -10 37 -55q0 -50 -62 -53q-49 -2 -67.5 -22.5t-18.5 -61.5q0 -44 39 -221q55 -246 55 -330q0 -93 -91.5 -144.5t-243.5 -51.5q-89 0 -89 73z" />
    <glyph glyph-name="asciitilde" unicode="~" horiz-adv-x="985" 
d="M37 598q0 64 77 119t175 55q41 0 137 -14q127 -19 197 -19q62 0 91 7.5t39 34.5q2 5 3 7q3 24 30 48t54 24q35 0 76.5 -21t41.5 -46q0 -44 -38.5 -101t-97.5 -89t-130 -32q-46 0 -168 14q-127 15 -178 15q-102 0 -119 -51q-6 -19 -37 -34t-71 -15q-37 0 -59.5 30.5
t-22.5 67.5z" />
    <glyph glyph-name="Adieresis" unicode="&#xc4;" horiz-adv-x="1120" 
d="M303 373q-31 -104 -31 -166q0 -26 3 -75q4 -50 4 -77q0 -36 -34.5 -59t-80.5 -23q-45 0 -74 34.5t-29 94.5q0 90 53 307t85 293q16 38 38.5 141.5t22.5 141.5q0 16 -2 54q-2 29 -2 38q0 36 31.5 63t81.5 27q47 0 77.5 -33t30.5 -71q0 -129 -91 -394q-24 -68 -30 -91
l303 145q-36 117 -123 293t-130 176q-21 0 -42.5 27.5t-21.5 58.5q0 41 39.5 63.5t103.5 22.5q58 0 170 -194.5t170 -354.5q99 0 99 -89q0 -50 -31 -64q28 -46 114.5 -171.5t113.5 -152.5q83 -85 83 -125q0 -107 -102 -107q-37 0 -67 16t-67 63q-7 8 -10 12q-33 47 -132 226
q-77 137 -93 159zM166 1498q0 37 33.5 67.5t74.5 30.5q38 0 69 -44t31 -83q0 -29 -30.5 -50.5t-69.5 -21.5q-108 0 -108 101zM452 1498q0 37 34 67.5t75 30.5q38 0 69 -44t31 -83q0 -29 -30.5 -50.5t-69.5 -21.5q-109 0 -109 101z" />
    <glyph glyph-name="Aring" unicode="&#xc5;" horiz-adv-x="1120" 
d="M303 373q-31 -104 -31 -166q0 -26 3 -75q4 -50 4 -77q0 -36 -34.5 -59t-80.5 -23q-45 0 -74 34.5t-29 94.5q0 90 53 307t85 293q16 38 38.5 141.5t22.5 141.5q0 16 -2 54q-2 29 -2 38q0 36 31.5 63t81.5 27q47 0 77.5 -33t30.5 -71q0 -129 -91 -394q-24 -68 -30 -91
l303 145q-36 117 -123 293t-130 176q-21 0 -42.5 27.5t-21.5 58.5q0 41 39.5 63.5t103.5 22.5q58 0 170 -194.5t170 -354.5q99 0 99 -89q0 -50 -31 -64q28 -46 114.5 -171.5t113.5 -152.5q83 -85 83 -125q0 -107 -102 -107q-37 0 -67 16t-67 63q-7 8 -10 12q-33 47 -132 226
q-77 137 -93 159zM373 1518q0 -22 13 -35.5t30 -13.5q25 0 42 19.5t17 50.5q0 21 -14.5 35t-32.5 14q-22 0 -38.5 -20t-16.5 -50zM461 1733q60 0 109.5 -59t49.5 -127q0 -75 -68 -147t-161 -72q-74 0 -116 43t-42 112q0 101 62.5 175.5t165.5 74.5z" />
    <glyph glyph-name="Ccedilla" unicode="&#xc7;" horiz-adv-x="1159" 
d="M489 72q-4 -18 -4 -19q0 -15 54 -30q44 -12 59.5 -34t15.5 -65q0 -52 -56 -93.5t-130 -41.5q-127 0 -127 59q0 16 11.5 31t27.5 15q12 0 37 -6q29 -6 43 -6q59 0 59 36q0 15 -18 28t-41 17q-17 3 -32 16t-15 25q0 13 7 35q5 16 5 22q-23 -2 -61 -2q-147 0 -205 38.5
t-58 138.5q0 263 103.5 498t283 392.5t330.5 157.5q109 0 109 -70q0 -45 -50 -88.5t-135 -76.5q-212 -95 -324 -286t-112 -452q0 -56 24.5 -77t121.5 -21q71 0 288.5 70t278.5 106q61 34 92 34q40 0 64 -23t24 -60q0 -38 -17 -67t-67 -64q-55 -30 -239 -73t-347 -64z" />
    <glyph glyph-name="Eacute" unicode="&#xc9;" horiz-adv-x="1202" 
d="M137 993q0 32 38.5 57t98.5 25q39 0 65 -19.5t26 -43.5q0 -9 1 -49q1 -103 1 -160q61 14 201 62q131 46 167 46q21 0 36 -32t15 -66q0 -31 -150 -89t-267 -83q1 0 0.5 -139.5t34.5 -216t128 -76.5q63 0 195.5 51.5t190.5 90.5q49 34 93 112q47 82 115 82q54 0 54 -82
q0 -111 -111.5 -207t-311.5 -162.5t-341 -66.5q-132 0 -200.5 123.5t-68.5 355.5q0 51 -2 94l-47 -2q-17 0 -27 24t-10 60q0 27 26.5 51t59.5 29q0 33 -4 93q-6 80 -6 138zM150 1112q0 78 304 156t406 78q84 0 109.5 -15t25.5 -53q0 -58 -26 -91.5t-72 -33.5q-42 0 -159 -9
q-21 -1 -71 -4.5t-344 -49.5q-106 -17 -114 -17q-24 0 -41.5 10.5t-17.5 28.5zM334 1463q0 40 94 117q26 25 55 74q25 41 42 52t42 11q28 0 59.5 -31t31.5 -55q0 -45 -49 -104.5t-112 -100.5t-85 -41q-27 0 -52.5 24.5t-25.5 53.5z" />
    <glyph glyph-name="Ntilde" unicode="&#xd1;" horiz-adv-x="1401" 
d="M119 578q-1 30 -6 94q-11 132 -11 243q0 209 121 209q62 0 120 -48q51 -42 196 -176l231 -218q214 -207 315 -297q0 19 -3 73q-7 104 -7 171q0 54 -16 256q-17 211 -17 270q0 47 31 83t70 36q49 0 88 -30t39 -71q0 -55 -1 -229q-2 -247 -2 -357q0 -184 21 -336
q10 -75 10 -106q0 -50 -12.5 -70t-50.5 -20q-59 0 -147 87q-9 8 -13 12l-98 97q-169 166 -226 218q-371 329 -444 440q-6 -30 -6 -51q0 -85 26 -315q35 -302 35 -353q0 -42 -34 -72t-68 -30q-61 0 -96 30.5t-35 86.5q0 45 -6 224zM278 1326q0 57 56.5 107t123.5 50
q29 0 116 -21q111 -26 158 -26q35 0 49 62q14 63 83 63q22 0 41.5 -20t19.5 -45q0 -39 -23 -106t-67.5 -93.5t-97.5 -26.5q-33 0 -130 22q-99 23 -133 23q-63 0 -73 -41q-3 -12 -24 -21t-44 -9q-25 0 -40 22t-15 60z" />
    <glyph glyph-name="Odieresis" unicode="&#xd6;" horiz-adv-x="1135" 
d="M82 727q0 163 42.5 303t117.5 229t145 89q36 0 68 -33.5t32 -65.5q0 -70 -17.5 -114.5t-37.5 -44.5q-27 0 -35 16q-9 18 -24 18q-24 0 -47 -127t-23 -317q0 -233 48 -359t128 -126q149 0 262 135.5t113 316.5q0 154 -94 286t-221 185q-50 21 -50 119q0 32 18.5 52
t51.5 20q121 0 237 -96.5t188.5 -254.5t72.5 -317q0 -134 -90.5 -287.5t-226.5 -243.5t-285 -90q-189 0 -281 163t-92 544zM234 1498q0 37 33.5 67.5t74.5 30.5q38 0 69 -44t31 -83q0 -29 -30.5 -50.5t-69.5 -21.5q-108 0 -108 101zM520 1498q0 37 34 67.5t75 30.5
q38 0 69 -44t31 -83q0 -29 -30.5 -50.5t-69.5 -21.5q-109 0 -109 101z" />
    <glyph glyph-name="Udieresis" unicode="&#xdc;" horiz-adv-x="1190" 
d="M834 1036q-11 122 -11 146q0 41 35 74.5t76 33.5q49 0 85 -24.5t36 -61.5q0 -24 -5 -138q-6 -153 -6 -196q0 -28 13.5 -285.5t29.5 -486.5v0q0 -121 -104 -121q-98 0 -98 138v12l-2 -1q-73 -59 -173.5 -93.5t-206.5 -34.5q-193 0 -297 120.5t-104 315.5q0 28 11 142
q14 152 14 213q0 55 -5 202q-3 98 -3 123q0 50 40.5 80.5t98.5 30.5q47 0 77.5 -29t30.5 -70q0 -31 -31 -272q-24 -188 -24 -414q0 -131 69 -202.5t200 -71.5q77 0 187 99q24 21 99 67q0 244 -6 366t-26 338zM334 1408q0 37 33.5 67.5t74.5 30.5q38 0 69 -44t31 -83
q0 -29 -30.5 -50.5t-69.5 -21.5q-108 0 -108 101zM620 1408q0 37 34 67.5t75 30.5q38 0 69 -44t31 -83q0 -29 -30.5 -50.5t-69.5 -21.5q-109 0 -109 101z" />
    <glyph glyph-name="aacute" unicode="&#xe1;" horiz-adv-x="834" 
d="M51 123q0 175 218 349l76.5 61l98.5 76.5t74 41.5q-10 63 -37 100t-67 37q-39 0 -91.5 -24.5t-80.5 -52.5q-39 -39 -54 -39q-31 0 -61.5 26t-30.5 60q0 47 67 84t160 69.5t136 32.5q97 0 160.5 -76.5t103.5 -230.5q39 -125 39 -346q0 -98 -20 -191q-12 -57 -25.5 -67.5
t-39 -17.5t-44.5 -7q-46 0 -74.5 20.5t-28.5 57.5l7 64q-56 -65 -148 -104.5t-178 -39.5q-160 0 -160 117zM537 510q-269 -172 -269 -305q0 -47 51 -47q72 0 150 76q17 16 44 31t30 15v0v-1q0 153 -6 231zM234 1143q0 40 94 117q26 25 55 74q25 41 42 52t42 11
q28 0 59.5 -31t31.5 -55q0 -45 -49 -104.5t-112 -100.5t-85 -41q-27 0 -52.5 24.5t-25.5 53.5z" />
    <glyph glyph-name="agrave" unicode="&#xe0;" horiz-adv-x="834" 
d="M51 123q0 175 218 349l76.5 61l98.5 76.5t74 41.5q-10 63 -37 100t-67 37q-39 0 -91.5 -24.5t-80.5 -52.5q-39 -39 -54 -39q-31 0 -61.5 26t-30.5 60q0 47 67 84t160 69.5t136 32.5q97 0 160.5 -76.5t103.5 -230.5q39 -125 39 -346q0 -98 -20 -191q-12 -57 -25.5 -67.5
t-39 -17.5t-44.5 -7q-46 0 -74.5 20.5t-28.5 57.5l7 64q-56 -65 -148 -104.5t-178 -39.5q-160 0 -160 117zM537 510q-269 -172 -269 -305q0 -47 51 -47q72 0 150 76q17 16 44 31t30 15v0v-1q0 153 -6 231zM477 1143q0 -29 -26 -53.5t-52 -24.5q-23 0 -85.5 41t-111.5 100.5
t-49 104.5q0 24 31 55t59 31q25 0 42.5 -11.5t42.5 -52.5q29 -48 54 -73q95 -78 95 -117z" />
    <glyph glyph-name="acircumflex" unicode="&#xe2;" horiz-adv-x="834" 
d="M51 123q0 175 218 349l76.5 61l98.5 76.5t74 41.5q-10 63 -37 100t-67 37q-39 0 -91.5 -24.5t-80.5 -52.5q-39 -39 -54 -39q-31 0 -61.5 26t-30.5 60q0 47 67 84t160 69.5t136 32.5q97 0 160.5 -76.5t103.5 -230.5q39 -125 39 -346q0 -98 -20 -191q-12 -57 -25.5 -67.5
t-39 -17.5t-44.5 -7q-46 0 -74.5 20.5t-28.5 57.5l7 64q-56 -65 -148 -104.5t-178 -39.5q-160 0 -160 117zM537 510q-269 -172 -269 -305q0 -47 51 -47q72 0 150 76q17 16 44 31t30 15v0v-1q0 153 -6 231zM554 1271l48 -41q75 -60 75 -89q0 -23 -28.5 -42.5t-55.5 -19.5
q-56 0 -124 68q-69 69 -111 102q-27 -13 -75 -69q-89 -103 -152 -103q-20 0 -33.5 18.5t-13.5 43.5q0 60 92 142t125 105t65 23q28 0 69 -34.5z" />
    <glyph glyph-name="adieresis" unicode="&#xe4;" horiz-adv-x="834" 
d="M51 123q0 175 218 349l76.5 61l98.5 76.5t74 41.5q-10 63 -37 100t-67 37q-39 0 -91.5 -24.5t-80.5 -52.5q-39 -39 -54 -39q-31 0 -61.5 26t-30.5 60q0 47 67 84t160 69.5t136 32.5q97 0 160.5 -76.5t103.5 -230.5q39 -125 39 -346q0 -98 -20 -191q-12 -57 -25.5 -67.5
t-39 -17.5t-44.5 -7q-46 0 -74.5 20.5t-28.5 57.5l7 64q-56 -65 -148 -104.5t-178 -39.5q-160 0 -160 117zM537 510q-269 -172 -269 -305q0 -47 51 -47q72 0 150 76q17 16 44 31t30 15v0v-1q0 153 -6 231zM124 1178q0 37 33.5 67.5t74.5 30.5q38 0 69 -44t31 -83
q0 -29 -30.5 -50.5t-69.5 -21.5q-108 0 -108 101zM410 1178q0 37 34 67.5t75 30.5q38 0 69 -44t31 -83q0 -29 -30.5 -50.5t-69.5 -21.5q-109 0 -109 101z" />
    <glyph glyph-name="atilde" unicode="&#xe3;" horiz-adv-x="834" 
d="M51 123q0 175 218 349l76.5 61l98.5 76.5t74 41.5q-10 63 -37 100t-67 37q-39 0 -91.5 -24.5t-80.5 -52.5q-39 -39 -54 -39q-31 0 -61.5 26t-30.5 60q0 47 67 84t160 69.5t136 32.5q97 0 160.5 -76.5t103.5 -230.5q39 -125 39 -346q0 -98 -20 -191q-12 -57 -25.5 -67.5
t-39 -17.5t-44.5 -7q-46 0 -74.5 20.5t-28.5 57.5l7 64q-56 -65 -148 -104.5t-178 -39.5q-160 0 -160 117zM537 510q-269 -172 -269 -305q0 -47 51 -47q72 0 150 76q17 16 44 31t30 15v0v-1q0 153 -6 231zM66 1176q0 57 56.5 107t123.5 50q29 0 116 -21q111 -26 158 -26
q35 0 49 62q14 63 83 63q22 0 41.5 -20t19.5 -45q0 -39 -23 -106t-67.5 -93.5t-97.5 -26.5q-33 0 -130 22q-99 23 -133 23q-63 0 -73 -41q-3 -12 -24 -21t-44 -9q-25 0 -40 22t-15 60z" />
    <glyph glyph-name="aring" unicode="&#xe5;" horiz-adv-x="834" 
d="M51 123q0 175 218 349l76.5 61l98.5 76.5t74 41.5q-10 63 -37 100t-67 37q-39 0 -91.5 -24.5t-80.5 -52.5q-39 -39 -54 -39q-31 0 -61.5 26t-30.5 60q0 47 67 84t160 69.5t136 32.5q97 0 160.5 -76.5t103.5 -230.5q39 -125 39 -346q0 -98 -20 -191q-12 -57 -25.5 -67.5
t-39 -17.5t-44.5 -7q-46 0 -74.5 20.5t-28.5 57.5l7 64q-56 -65 -148 -104.5t-178 -39.5q-160 0 -160 117zM537 510q-269 -172 -269 -305q0 -47 51 -47q72 0 150 76q17 16 44 31t30 15v0v-1q0 153 -6 231zM328 1211q0 -22 13 -35.5t30 -13.5q25 0 42 19.5t17 50.5
q0 21 -14.5 35t-32.5 14q-22 0 -38.5 -20t-16.5 -50zM416 1426q60 0 109.5 -59t49.5 -127q0 -75 -68 -147t-161 -72q-74 0 -116 43t-42 112q0 101 62.5 175.5t165.5 74.5z" />
    <glyph glyph-name="ccedilla" unicode="&#xe7;" horiz-adv-x="791" 
d="M412 39q0 -15 53 -29q44 -11 60 -33.5t16 -64.5q0 -53 -56 -94t-131 -41q-127 0 -127 59q0 16 11.5 30.5t27.5 14.5q12 0 38 -5q28 -6 42 -6q60 0 60 36q0 15 -18.5 28t-41.5 17q-17 3 -32 16t-15 25q0 26 6 37q-114 7 -173.5 70t-59.5 171q0 244 166 445
q69 84 152.5 143t123.5 59q94 0 94 -83q0 -98 -69 -111q-104 -20 -175 -150t-71 -270q0 -67 20 -95t66 -28q60 0 152 55q14 8 20 11q11 6 40 35q67 67 105 67q40 0 67.5 -20t27.5 -47q0 -69 -117 -140.5t-262 -101.5z" />
    <glyph glyph-name="eacute" unicode="&#xe9;" horiz-adv-x="805" 
d="M795 403q0 -66 -215 -229q-7 -5 -30 -23q-183 -147 -226 -147q-87 0 -145 104t-58 232v35q-15 -6 -41 -6q-13 0 -26 19.5t-13 37.5q0 40 13.5 58.5t62.5 39.5q0 109 24.5 204.5t67.5 160.5t76 65q92 0 177 -33t143.5 -89t58.5 -101q0 -53 -10.5 -78t-35 -46.5
t-152.5 -91.5q-126 -70 -144 -85v-49q0 -70 21 -122t46 -52q43 0 157 119q92 95 122 117t55 22q72 0 72 -62zM373 778q-18 0 -37 -67.5t-19 -114.5q15 8 63 30q81 37 99 50q0 34 -32 68t-74 34zM234 1143q0 40 94 117q26 25 55 74q25 41 42 52t42 11q28 0 59.5 -31t31.5 -55
q0 -45 -49 -104.5t-112 -100.5t-85 -41q-27 0 -52.5 24.5t-25.5 53.5z" />
    <glyph glyph-name="egrave" unicode="&#xe8;" horiz-adv-x="805" 
d="M795 403q0 -66 -215 -229q-7 -5 -30 -23q-183 -147 -226 -147q-87 0 -145 104t-58 232v35q-15 -6 -41 -6q-13 0 -26 19.5t-13 37.5q0 40 13.5 58.5t62.5 39.5q0 109 24.5 204.5t67.5 160.5t76 65q92 0 177 -33t143.5 -89t58.5 -101q0 -53 -10.5 -78t-35 -46.5
t-152.5 -91.5q-126 -70 -144 -85v-49q0 -70 21 -122t46 -52q43 0 157 119q92 95 122 117t55 22q72 0 72 -62zM373 778q-18 0 -37 -67.5t-19 -114.5q15 8 63 30q81 37 99 50q0 34 -32 68t-74 34zM453 1143q0 -29 -26 -53.5t-52 -24.5q-23 0 -85.5 41t-111.5 100.5t-49 104.5
q0 24 31 55t59 31q25 0 42.5 -11.5t42.5 -52.5q29 -48 54 -73q95 -78 95 -117z" />
    <glyph glyph-name="ecircumflex" unicode="&#xea;" horiz-adv-x="805" 
d="M795 403q0 -66 -215 -229q-7 -5 -30 -23q-183 -147 -226 -147q-87 0 -145 104t-58 232v35q-15 -6 -41 -6q-13 0 -26 19.5t-13 37.5q0 40 13.5 58.5t62.5 39.5q0 109 24.5 204.5t67.5 160.5t76 65q92 0 177 -33t143.5 -89t58.5 -101q0 -53 -10.5 -78t-35 -46.5
t-152.5 -91.5q-126 -70 -144 -85v-49q0 -70 21 -122t46 -52q43 0 157 119q92 95 122 117t55 22q72 0 72 -62zM373 778q-18 0 -37 -67.5t-19 -114.5q15 8 63 30q81 37 99 50q0 34 -32 68t-74 34zM536 1271l48 -41q75 -60 75 -89q0 -23 -28.5 -42.5t-55.5 -19.5q-56 0 -124 68
q-69 69 -111 102q-27 -13 -75 -69q-89 -103 -152 -103q-20 0 -33.5 18.5t-13.5 43.5q0 60 92 142t125 105t65 23q28 0 69 -34.5z" />
    <glyph glyph-name="edieresis" unicode="&#xeb;" horiz-adv-x="805" 
d="M795 403q0 -66 -215 -229q-7 -5 -30 -23q-183 -147 -226 -147q-87 0 -145 104t-58 232v35q-15 -6 -41 -6q-13 0 -26 19.5t-13 37.5q0 40 13.5 58.5t62.5 39.5q0 109 24.5 204.5t67.5 160.5t76 65q92 0 177 -33t143.5 -89t58.5 -101q0 -53 -10.5 -78t-35 -46.5
t-152.5 -91.5q-126 -70 -144 -85v-49q0 -70 21 -122t46 -52q43 0 157 119q92 95 122 117t55 22q72 0 72 -62zM373 778q-18 0 -37 -67.5t-19 -114.5q15 8 63 30q81 37 99 50q0 34 -32 68t-74 34zM115 1178q0 37 33.5 67.5t74.5 30.5q38 0 69 -44t31 -83q0 -29 -30.5 -50.5
t-69.5 -21.5q-108 0 -108 101zM401 1178q0 37 34 67.5t75 30.5q38 0 69 -44t31 -83q0 -29 -30.5 -50.5t-69.5 -21.5q-109 0 -109 101z" />
    <glyph glyph-name="iacute" unicode="&#xed;" horiz-adv-x="444" 
d="M102 754q0 50 39.5 83t98.5 33q94 0 94 -82q0 -18 -5 -87q-10 -125 -10 -185q0 -55 20 -249q13 -132 13 -158q0 -55 -32.5 -90t-77.5 -35q-115 0 -115 104q0 26 -8 178q-17 350 -17 488zM109 1143q0 40 94 117q26 25 55 74q25 41 42 52t42 11q28 0 59.5 -31t31.5 -55
q0 -45 -49 -104.5t-112 -100.5t-85 -41q-27 0 -52.5 24.5t-25.5 53.5z" />
    <glyph glyph-name="igrave" unicode="&#xec;" horiz-adv-x="444" 
d="M102 754q0 50 39.5 83t98.5 33q94 0 94 -82q0 -18 -5 -87q-10 -125 -10 -185q0 -55 20 -249q13 -132 13 -158q0 -55 -32.5 -90t-77.5 -35q-115 0 -115 104q0 26 -8 178q-17 350 -17 488zM283 1143q0 -29 -26 -53.5t-52 -24.5q-23 0 -85.5 41t-111.5 100.5t-49 104.5
q0 24 31 55t59 31q25 0 42.5 -11.5t42.5 -52.5q29 -48 54 -73q95 -78 95 -117z" />
    <glyph glyph-name="icircumflex" unicode="&#xee;" horiz-adv-x="444" 
d="M102 754q0 50 39.5 83t98.5 33q94 0 94 -82q0 -18 -5 -87q-10 -125 -10 -185q0 -55 20 -249q13 -132 13 -158q0 -55 -32.5 -90t-77.5 -35q-115 0 -115 104q0 26 -8 178q-17 350 -17 488zM406 1271l48 -41q75 -60 75 -89q0 -23 -28.5 -42.5t-55.5 -19.5q-56 0 -124 68
q-69 69 -111 102q-27 -13 -75 -69q-89 -103 -152 -103q-20 0 -33.5 18.5t-13.5 43.5q0 60 92 142t125 105t65 23q28 0 69 -34.5z" />
    <glyph glyph-name="idieresis" unicode="&#xef;" horiz-adv-x="444" 
d="M102 754q0 50 39.5 83t98.5 33q94 0 94 -82q0 -18 -5 -87q-10 -125 -10 -185q0 -55 20 -249q13 -132 13 -158q0 -55 -32.5 -90t-77.5 -35q-115 0 -115 104q0 26 -8 178q-17 350 -17 488zM-21 1178q0 37 33.5 67.5t74.5 30.5q38 0 69 -44t31 -83q0 -29 -30.5 -50.5
t-69.5 -21.5q-108 0 -108 101zM265 1178q0 37 34 67.5t75 30.5q38 0 69 -44t31 -83q0 -29 -30.5 -50.5t-69.5 -21.5q-109 0 -109 101z" />
    <glyph glyph-name="ntilde" unicode="&#xf1;" horiz-adv-x="971" 
d="M336 737q64 91 147 140t170 49q68 0 116 -44.5t72.5 -128t32.5 -378.5q2 -42 8 -132q7 -87 7 -116q0 -43 -39.5 -76t-89.5 -33q-51 0 -85 24t-34 62q0 24 3 114q5 122 5 167v27q1 34 1 55q0 307 -77 307q-45 0 -103.5 -51.5t-90 -131.5t-31.5 -179q0 -37 19 -167
q22 -146 22 -192q0 -29 -27.5 -48t-64.5 -19q-86 0 -117 59q-21 57 -37 226q-7 72 -12 108q-39 319 -39 360q0 131 127 131q57 0 83.5 -31t33.5 -102zM117 1176q0 57 56.5 107t123.5 50q29 0 116 -21q111 -26 158 -26q35 0 49 62q14 63 83 63q22 0 41.5 -20t19.5 -45
q0 -39 -23 -106t-67.5 -93.5t-97.5 -26.5q-33 0 -130 22q-99 23 -133 23q-63 0 -73 -41q-3 -12 -24 -21t-44 -9q-25 0 -40 22t-15 60z" />
    <glyph glyph-name="oacute" unicode="&#xf3;" horiz-adv-x="897" 
d="M72 375q0 138 67.5 285.5t165.5 224.5q9 6 19 22q19 31 53 31q26 0 58 -11q31 -10 54 -10q73 0 156.5 -59.5t128.5 -155t45 -215.5q0 -131 -59 -242t-162.5 -181t-202.5 -70q-151 0 -237 99.5t-86 281.5zM422 147q62 0 118 91t56 206q0 119 -42 222.5t-87 103.5
q-51 0 -106.5 -123.5t-55.5 -259.5q0 -113 31.5 -176.5t85.5 -63.5zM259 1143q0 40 94 117q26 25 55 74q25 41 42 52t42 11q28 0 59.5 -31t31.5 -55q0 -45 -49 -104.5t-112 -100.5t-85 -41q-27 0 -52.5 24.5t-25.5 53.5z" />
    <glyph glyph-name="ograve" unicode="&#xf2;" horiz-adv-x="897" 
d="M72 375q0 138 67.5 285.5t165.5 224.5q9 6 19 22q19 31 53 31q26 0 58 -11q31 -10 54 -10q73 0 156.5 -59.5t128.5 -155t45 -215.5q0 -131 -59 -242t-162.5 -181t-202.5 -70q-151 0 -237 99.5t-86 281.5zM422 147q62 0 118 91t56 206q0 119 -42 222.5t-87 103.5
q-51 0 -106.5 -123.5t-55.5 -259.5q0 -113 31.5 -176.5t85.5 -63.5zM492 1143q0 -29 -26 -53.5t-52 -24.5q-23 0 -85.5 41t-111.5 100.5t-49 104.5q0 24 31 55t59 31q25 0 42.5 -11.5t42.5 -52.5q29 -48 54 -73q95 -78 95 -117z" />
    <glyph glyph-name="ocircumflex" unicode="&#xf4;" horiz-adv-x="897" 
d="M72 375q0 138 67.5 285.5t165.5 224.5q9 6 19 22q19 31 53 31q26 0 58 -11q31 -10 54 -10q73 0 156.5 -59.5t128.5 -155t45 -215.5q0 -131 -59 -242t-162.5 -181t-202.5 -70q-151 0 -237 99.5t-86 281.5zM422 147q62 0 118 91t56 206q0 119 -42 222.5t-87 103.5
q-51 0 -106.5 -123.5t-55.5 -259.5q0 -113 31.5 -176.5t85.5 -63.5zM584 1271l48 -41q75 -60 75 -89q0 -23 -28.5 -42.5t-55.5 -19.5q-56 0 -124 68q-69 69 -111 102q-27 -13 -75 -69q-89 -103 -152 -103q-20 0 -33.5 18.5t-13.5 43.5q0 60 92 142t125 105t65 23
q28 0 69 -34.5z" />
    <glyph glyph-name="odieresis" unicode="&#xf6;" horiz-adv-x="897" 
d="M72 375q0 138 67.5 285.5t165.5 224.5q9 6 19 22q19 31 53 31q26 0 58 -11q31 -10 54 -10q73 0 156.5 -59.5t128.5 -155t45 -215.5q0 -131 -59 -242t-162.5 -181t-202.5 -70q-151 0 -237 99.5t-86 281.5zM422 147q62 0 118 91t56 206q0 119 -42 222.5t-87 103.5
q-51 0 -106.5 -123.5t-55.5 -259.5q0 -113 31.5 -176.5t85.5 -63.5zM172 1178q0 37 33.5 67.5t74.5 30.5q38 0 69 -44t31 -83q0 -29 -30.5 -50.5t-69.5 -21.5q-108 0 -108 101zM458 1178q0 37 34 67.5t75 30.5q38 0 69 -44t31 -83q0 -29 -30.5 -50.5t-69.5 -21.5
q-109 0 -109 101z" />
    <glyph glyph-name="otilde" unicode="&#xf5;" horiz-adv-x="897" 
d="M72 375q0 138 67.5 285.5t165.5 224.5q9 6 19 22q19 31 53 31q26 0 58 -11q31 -10 54 -10q73 0 156.5 -59.5t128.5 -155t45 -215.5q0 -131 -59 -242t-162.5 -181t-202.5 -70q-151 0 -237 99.5t-86 281.5zM422 147q62 0 118 91t56 206q0 119 -42 222.5t-87 103.5
q-51 0 -106.5 -123.5t-55.5 -259.5q0 -113 31.5 -176.5t85.5 -63.5zM120 1176q0 57 56.5 107t123.5 50q29 0 116 -21q111 -26 158 -26q35 0 49 62q14 63 83 63q22 0 41.5 -20t19.5 -45q0 -39 -23 -106t-67.5 -93.5t-97.5 -26.5q-33 0 -130 22q-99 23 -133 23q-63 0 -73 -41
q-3 -12 -24 -21t-44 -9q-25 0 -40 22t-15 60z" />
    <glyph glyph-name="uacute" unicode="&#xfa;" horiz-adv-x="971" 
d="M227 911q117 0 117 -98q0 -23 -4 -109q-6 -127 -6 -178q0 -348 96 -348q91 0 156 95.5t65 220.5q0 119 -40 254q-17 56 -17 79q0 37 39.5 68t93.5 31q63 0 87 -37.5t42 -316.5q10 -160 35 -318q14 -86 14 -131q0 -36 -32.5 -65t-59.5 -29q-56 0 -91 18q-21 11 -30 27.5
t-22 138.5q-78 -104 -182 -166.5t-193 -62.5q-82 0 -132.5 106.5t-56.5 302.5q-1 32 -5 146q-7 215 -7 252q0 54 35.5 87t97.5 33zM334 1143q0 40 94 117q26 25 55 74q25 41 42 52t42 11q28 0 59.5 -31t31.5 -55q0 -45 -49 -104.5t-112 -100.5t-85 -41q-27 0 -52.5 24.5
t-25.5 53.5z" />
    <glyph glyph-name="ugrave" unicode="&#xf9;" horiz-adv-x="971" 
d="M227 911q117 0 117 -98q0 -23 -4 -109q-6 -127 -6 -178q0 -348 96 -348q91 0 156 95.5t65 220.5q0 119 -40 254q-17 56 -17 79q0 37 39.5 68t93.5 31q63 0 87 -37.5t42 -316.5q10 -160 35 -318q14 -86 14 -131q0 -36 -32.5 -65t-59.5 -29q-56 0 -91 18q-21 11 -30 27.5
t-22 138.5q-78 -104 -182 -166.5t-193 -62.5q-82 0 -132.5 106.5t-56.5 302.5q-1 32 -5 146q-7 215 -7 252q0 54 35.5 87t97.5 33zM483 1143q0 -29 -26 -53.5t-52 -24.5q-23 0 -85.5 41t-111.5 100.5t-49 104.5q0 24 31 55t59 31q25 0 42.5 -11.5t42.5 -52.5q29 -48 54 -73
q95 -78 95 -117z" />
    <glyph glyph-name="ucircumflex" unicode="&#xfb;" horiz-adv-x="971" 
d="M227 911q117 0 117 -98q0 -23 -4 -109q-6 -127 -6 -178q0 -348 96 -348q91 0 156 95.5t65 220.5q0 119 -40 254q-17 56 -17 79q0 37 39.5 68t93.5 31q63 0 87 -37.5t42 -316.5q10 -160 35 -318q14 -86 14 -131q0 -36 -32.5 -65t-59.5 -29q-56 0 -91 18q-21 11 -30 27.5
t-22 138.5q-78 -104 -182 -166.5t-193 -62.5q-82 0 -132.5 106.5t-56.5 302.5q-1 32 -5 146q-7 215 -7 252q0 54 35.5 87t97.5 33zM636 1271l48 -41q75 -60 75 -89q0 -23 -28.5 -42.5t-55.5 -19.5q-56 0 -124 68q-69 69 -111 102q-27 -13 -75 -69q-89 -103 -152 -103
q-20 0 -33.5 18.5t-13.5 43.5q0 60 92 142t125 105t65 23q28 0 69 -34.5z" />
    <glyph glyph-name="udieresis" unicode="&#xfc;" horiz-adv-x="971" 
d="M227 911q117 0 117 -98q0 -23 -4 -109q-6 -127 -6 -178q0 -348 96 -348q91 0 156 95.5t65 220.5q0 119 -40 254q-17 56 -17 79q0 37 39.5 68t93.5 31q63 0 87 -37.5t42 -316.5q10 -160 35 -318q14 -86 14 -131q0 -36 -32.5 -65t-59.5 -29q-56 0 -91 18q-21 11 -30 27.5
t-22 138.5q-78 -104 -182 -166.5t-193 -62.5q-82 0 -132.5 106.5t-56.5 302.5q-1 32 -5 146q-7 215 -7 252q0 54 35.5 87t97.5 33zM209 1178q0 37 33.5 67.5t74.5 30.5q38 0 69 -44t31 -83q0 -29 -30.5 -50.5t-69.5 -21.5q-108 0 -108 101zM495 1178q0 37 34 67.5t75 30.5
q38 0 69 -44t31 -83q0 -29 -30.5 -50.5t-69.5 -21.5q-109 0 -109 101z" />
    <glyph glyph-name="dagger" unicode="&#x2020;" horiz-adv-x="737" 
d="M479 793q2 -17 2 -123q0 -163 16 -514q5 -109 5 -125q0 -33 -36.5 -55.5t-74.5 -22.5q-35 0 -73.5 19.5t-38.5 45.5q0 144 4 353v57q0 233 -11 360v0q0 1 -2 1q-4 0 -25 -2q-72 -5 -116 -5t-72 29.5t-28 62.5q0 32 25.5 61.5t62.5 29.5q32 0 73 -5q36 -4 62 -4
q-19 351 -19 355q0 33 35 60.5t82 27.5q113 0 113 -117q0 -168 10 -326q13 0 62 6q52 7 67 7q30 0 48 -31.5t18 -69.5q0 -30 -18.5 -56t-47.5 -26t-123 7z" />
    <glyph glyph-name="degree" unicode="&#xb0;" horiz-adv-x="829" 
d="M424 1427q85 0 157 -85.5t72 -180.5q0 -66 -48 -144.5t-121 -122.5t-158 -44q-105 0 -164.5 61.5t-59.5 161.5q0 142 88.5 248t233.5 106zM397 1251q-52 0 -85 -42t-33 -95q0 -38 22 -64t59 -26q47 0 83 42t36 81q0 35 -26 69.5t-56 34.5z" />
    <glyph glyph-name="cent" unicode="&#xa2;" horiz-adv-x="829" 
d="M408 558v0q-3 0 -4 19q-1 24 -4 41q-6 32 -15 97q-17 120 -33 200q-47 -52 -66.5 -106t-19.5 -164q0 -43 26.5 -68.5t55.5 -25.5q33 0 60 7zM555 455q20 -78 20 -123q0 -36 -24.5 -64t-46.5 -28q-51 0 -51 61q0 42 -21 100q-60 -8 -93 -8q-116 0 -181.5 60t-65.5 157
q0 141 55.5 266.5t153.5 215.5q0 34 -22 140q-17 80 -17 99q0 38 19.5 65t46.5 27q94 0 94 -59q0 -93 6 -178q11 11 39 28t37 17q43 0 75.5 -20.5t32.5 -51.5q0 -100 -55 -123q-28 -12 -88 -45q33 -173 43 -301q0 -16 10 -68q3 -16 4 -20q12 3 27.5 8.5t48.5 34.5
q61 55 94 55q18 0 40 -38t22 -66q0 -33 -60.5 -74t-142.5 -67z" />
    <glyph glyph-name="sterling" unicode="&#xa3;" horiz-adv-x="985" 
d="M82 45q13 94 48 153q33 56 60 121t27 95q0 52 -10 110q-24 -6 -41 -6q-26 0 -48 25t-22 49q0 15 7.5 36.5t18.5 34.5t39 19q18 4 23 6q-6 35 -6 117q0 136 105 253.5t233 117.5q94 0 165 -34.5t115 -100t44 -119.5q0 -40 -27.5 -62t-75.5 -22q-123 0 -123 65q0 8 6 31
q5 17 5 22q0 15 -41 32.5t-88 17.5q-117 0 -117 -203q0 -30 10 -80q58 22 98 22q20 0 36 -29t16 -54q0 -38 -22 -61t-83 -36q-24 -6 -31 -10q11 -40 11 -102q0 -54 -44 -149q-16 -35 -22 -52q84 39 166 39q26 0 50 -8.5t86 -43.5q81 -47 105.5 -56t49.5 -9q14 0 45 10
q37 11 57 11q26 0 55 -36t29 -75q0 -58 -40 -74.5t-138 -16.5q-50 0 -97.5 13.5t-131.5 53.5q-90 44 -125 44q-112 0 -152 -53q-53 -69 -147 -69q-78 0 -78 63z" />
    <glyph glyph-name="section" unicode="&#xa7;" horiz-adv-x="1196" 
d="M1049 164q0 -121 -89 -237.5t-235.5 -192.5t-280.5 -76q-94 0 -150 88t-56 203q0 104 37.5 177t91.5 73q51 0 90 -22t39 -58q0 -29 -22 -79q-19 -45 -19 -67q0 -112 100 -112q107 0 199 76t92 180q0 82 -37 132t-156 93l-286 94q-77 25 -138 89.5t-61 131.5
q0 66 13.5 101t82.5 112q-81 17 -114 59t-33 142q0 66 81 152.5t195.5 139t229.5 52.5q82 0 150.5 -72t68.5 -133q0 -47 -22 -78.5t-54 -31.5q-34 0 -70.5 20.5t-36.5 44.5q0 29 -20 50.5t-47 21.5q-123 0 -206 -47t-83 -103q0 -48 221 -122l318 -107q174 -66 174 -213
q0 -52 -12.5 -84t-68.5 -94l-28 -31q93 -54 117.5 -105.5t24.5 -166.5zM444 809q-69 -42 -69 -113q0 -32 29.5 -60t72.5 -40l250 -86q61 31 61 108q0 76 -75 105z" />
    <glyph glyph-name="bullet" unicode="&#x2022;" horiz-adv-x="717" 
d="M113 647q0 108 84.5 202.5t185.5 94.5q116 0 179 -76.5t63 -218.5q0 -93 -78 -182.5t-164 -89.5q-141 0 -205.5 65t-64.5 205z" />
    <glyph glyph-name="paragraph" unicode="&#xb6;" horiz-adv-x="942" 
d="M594 1192l-84 -8q0 -13 4 -108q12 -295 12 -412q0 -115 27 -489q8 -110 8 -120q0 -24 -33 -51t-61 -27q-29 0 -55.5 23t-26.5 53q0 14 -2 135q-4 323 -4 422l-2 170l-43 -6q-148 0 -210.5 55.5t-62.5 169.5q0 142 157 238q107 65 218 76q66 6 160.5 13t120.5 7
q20 0 40.5 -20t20.5 -39q0 -36 -34 -51q-5 -2 -7 -24q0 -234 29.5 -572.5t52.5 -476.5q29 -30 29 -37q0 -31 -42.5 -77t-72.5 -46q-61 0 -74 180q-2 71 -13 255q-7 124 -9 165q-3 68 -22 297q-21 255 -21 305z" />
    <glyph glyph-name="germandbls" unicode="&#xdf;" horiz-adv-x="1024" 
d="M166 88q-2 16 -7 109q-15 327 -43 469q-40 199 -40 299q0 211 89 327.5t232 116.5q125 0 212 -52.5t87 -135.5q0 -121 -91 -171q-93 -52 -93 -116q0 -26 22.5 -45.5t132.5 -73.5q147 -73 196.5 -121.5t72 -115.5t22.5 -166q0 -173 -88 -299.5t-219 -126.5
q-118 0 -183 39.5t-65 105.5q0 49 23 81.5t56 32.5q52 0 72 -42q10 -21 34.5 -34t48.5 -13q129 0 129 235q0 86 -48 146t-192 121q-119 50 -168 107.5t-49 139.5q0 52 27 103t69 80q62 42 79.5 68.5t17.5 60.5q0 27 -25.5 44t-57.5 17q-157 0 -157 -279q0 -167 46 -476
q9 -56 10 -70q3 -31 26 -166q33 -197 33 -224q0 -31 -30.5 -52t-72.5 -21q-39 0 -68.5 29t-39.5 69z" />
    <glyph glyph-name="registered" unicode="&#xae;" horiz-adv-x="1415" 
d="M397 1028q32 53 74 53q77 0 96 -2h160q250 0 250 -82q0 -57 -33.5 -107.5t-94.5 -127t-106 -117.5q49 -39 131 -55q4 -1 11 -3q155 -30 202 -34q54 -4 54 -74q0 -25 -14.5 -52.5t-32.5 -27.5q-14 0 -77 21q-117 40 -204 58t-157 59t-70 74q0 43 30 77q51 35 128 138
t77 124q0 31 -28 31q-39 0 -134.5 -3.5t-99.5 -4.5q11 -207 19.5 -330t36.5 -284q12 -72 12 -83q0 -21 -20.5 -38t-45.5 -17q-40 0 -69 23t-29 61q0 44 -19 273q-8 102 -9 122q-2 34 -16 155q-9 70 -9 77q-1 11 -5 34q-8 43 -8 62zM705 72q230 0 350.5 178.5t120.5 523.5
q0 218 -107 341.5t-350 158.5q-23 4 -56 21q-18 10 -24 10q-89 0 -185 -82.5t-146 -225t-50 -336.5q0 -130 61.5 -279.5t160 -229.5t225.5 -80zM129 651q0 344 162 560q72 96 168.5 156t156.5 60q9 0 42 -8q41 -10 65 -14q271 -44 417 -197t146 -403q0 -441 -146.5 -647.5
t-459.5 -206.5q-159 0 -281 93.5t-196 270t-74 336.5z" />
    <glyph glyph-name="copyright" unicode="&#xa9;" horiz-adv-x="1411" 
d="M981 457q-44 -30 -189 -62.5t-227 -32.5t-133 41t-51 109q0 154 53 287.5t147 222t173 88.5q104 0 104 -63q0 -34 -104 -74q-213 -109 -213 -384v-12v-8q0 -22 25 -40.5t59 -18.5q37 0 132 24t127 41q51 27 77 27q15 0 32 -22.5t17 -44.5q0 -64 -29 -78zM705 72
q230 0 350.5 178.5t120.5 523.5q0 218 -107 341.5t-350 158.5q-23 4 -56 21q-18 10 -24 10q-89 0 -185 -82.5t-146 -225t-50 -336.5q0 -130 61.5 -279.5t160 -229.5t225.5 -80zM129 651q0 344 162 560q72 96 168.5 156t156.5 60q9 0 42 -8q41 -10 65 -14q271 -44 417 -197
t146 -403q0 -441 -146.5 -647.5t-459.5 -206.5q-159 0 -281 93.5t-196 270t-74 336.5z" />
    <glyph glyph-name="trademark" unicode="&#x2122;" horiz-adv-x="1540" 
d="M584 1321q0 -36 -12.5 -63t-34.5 -27q-158 0 -211 -27q-1 -9 -1 -22q0 -188 40 -461q12 -81 12 -90q0 -39 -88 -39q-57 0 -67 65q-7 39 -15 128t-8 126q0 46 -5 127q-5 70 -5 105q0 17 1 33q-40 -5 -124 -24q-86 -19 -111 -19q-21 0 -37 21t-16 40q0 30 9.5 53t25.5 23
q28 0 189 29q80 15 95 16q13 1 90 16q192 35 230 35q43 0 43 -45zM1429 700q0 -19 -18 -33t-41 -14q-26 0 -56 16q-26 13 -29 35t-7.5 61t-8.5 87q-18 199 -18 281l-10 -5q-27 -45 -83 -187.5t-56 -162.5q0 -35 -22 -61.5t-68 -26.5q-18 0 -40 12t-30 27q-16 14 -95 178
q-72 148 -95 183l-13 12q-3 -11 -3 -31q0 -17 3 -55q3 -35 3 -51q2 -78 19 -150q13 -54 13 -158q0 -51 -39 -51q-54 0 -80 15q-12 7 -17.5 16.5t-11 59t-10.5 132.5q-14 223 -14 353q0 76 7.5 96.5t17.5 27.5q8 5 15 13q20 24 67 24q4 1 8 1q43 0 54 -27
q33 -83 111.5 -219.5t123.5 -196.5q13 51 51 115q9 20 82 155q58 109 64 123q21 47 95 47q40 0 65.5 -32.5t25.5 -87.5q0 -197 29 -421q11 -85 11 -100z" />
    <glyph glyph-name="acute" unicode="&#xb4;" 
d="M84 1143q0 40 94 117q26 25 55 74q25 41 42 52t42 11q28 0 59.5 -31t31.5 -55q0 -45 -49 -104.5t-112 -100.5t-85 -41q-27 0 -52.5 24.5t-25.5 53.5z" />
    <glyph glyph-name="dieresis" unicode="&#xa8;" horiz-adv-x="717" 
d="M109 1178q0 37 33.5 67.5t74.5 30.5q38 0 69 -44t31 -83q0 -29 -30.5 -50.5t-69.5 -21.5q-108 0 -108 101zM395 1178q0 37 34 67.5t75 30.5q38 0 69 -44t31 -83q0 -29 -30.5 -50.5t-69.5 -21.5q-109 0 -109 101z" />
    <glyph glyph-name="notequal" unicode="&#x2260;" horiz-adv-x="1085" 
d="M354 264q-13 0 -46 -6q-26 -4 -34 -4q-30 0 -51.5 18.5t-21.5 44.5q0 23 11.5 42.5t32.5 31.5t88 21q95 11 113 14q33 40 86 127v0q0 -1 -102 -21t-117 -20q-67 0 -67 49q0 39 36.5 79t67.5 40q25 0 208 30l79 13q8 10 36 58q46 81 88.5 121t67.5 40q17 0 39.5 -12.5
t22.5 -29.5q0 -33 -64 -135q-8 -14 -10 -17q12 0 45 1q22 1 27 1q19 0 38 -23t19 -45q0 -38 -25 -70t-51 -32q-10 -1 -22 -1t-36 2q-31 2 -49 2q-24 0 -48 -3q-15 -17 -68 -96q-25 -38 -31 -46q134 23 209 23q60 0 60 -74q0 -32 -24 -63t-50 -31q-205 0 -276 -17
q-28 -38 -69 -99q-48 -71 -76.5 -89t-84.5 -18q-15 0 -27 15t-12 26q6 55 88 153z" />
    <glyph glyph-name="AE" unicode="&#xc6;" horiz-adv-x="1595" 
d="M1438 1331q0 -50 -11.5 -74.5t-54.5 -42.5q-52 -20 -250 -35q-86 -6 -339 -38q-115 -15 -124 -15q-26 0 -48.5 11t-22.5 28q0 78 304 156t406 78q87 0 113.5 -15.5t26.5 -52.5zM1612 500q0 -111 -111.5 -207t-311.5 -163t-341 -67q-122 0 -189 106.5t-67 285.5v94
l-322 -156q-41 -138 -41 -186q0 -26 3 -75q4 -50 4 -77q0 -36 -34.5 -59t-80.5 -23q-45 0 -74 34.5t-29 94.5q0 86 40.5 239.5t78.5 238.5q16 35 54 143.5t51 153.5q18 64 69 209q30 87 63 116t68 29q47 0 77 -33.5t30 -71.5q0 -30 -106 -230q-87 -166 -132 -333l281 137
q-1 29 -5 113q-9 157 -9 223q0 76 129 76q39 0 64.5 -19.5t25.5 -43.5q0 -9 1 -49q1 -103 1 -160q52 12 211 66q123 42 157 42q52 0 52 -57q0 -69 -109 -128t-308 -105q-1 -131 10.5 -233t40 -133.5t112.5 -31.5q75 0 240 70q103 44 146 73.5t85 86.5q67 92 123 92
q53 0 53 -82z" />
    <glyph glyph-name="Oslash" unicode="&#xd8;" horiz-adv-x="1135" 
d="M1092 641q0 -134 -90.5 -287.5t-227 -243.5t-285.5 -90q-127 0 -223 84q-3 -5 -9 -17q-62 -126 -112 -126q-16 0 -28.5 21t-12.5 49q0 43 91 178q-78 164 -78 518q0 160 47 299.5t130 230.5t155 91q46 0 90 -64q21 25 55 25q103 0 205 -72q94 174 150 174
q26 0 42.5 -20.5t16.5 -55.5q0 -32 -71 -111q-36 -41 -52 -63q0 -1 1 -2t1 -2q94 -101 149.5 -239.5t55.5 -276.5zM688 1047q-32 25 -86 45q-51 19 -70 47q-17 -49 -38 -49q-29 2 -43 23q-8 11 -17 11q-16 0 -42 -65.5t-40 -162.5t-14 -216q0 -121 12 -203zM889 647
q0 171 -119 318l-381 -648q48 -122 125 -122q149 0 262 135.5t113 316.5z" />
    <glyph glyph-name="infinity" unicode="&#x221e;" horiz-adv-x="1556" 
d="M1477 631q0 -128 -89 -207.5t-217 -79.5q-99 0 -280 145l-2 -10q-37 -123 -152.5 -206t-218.5 -83q-203 0 -322.5 107.5t-119.5 300.5q0 156 84.5 270.5t193.5 114.5q99 0 175 -27.5t257 -150.5q65 125 149 196.5t173 71.5q369 0 369 -442zM1282 672q0 196 -152 196
q-51 0 -88.5 -35t-69.5 -125l-7 -20q111 -147 235 -147q31 0 56.5 39t25.5 92zM739 618q-2 1 -5 4q-46 39 -144.5 87.5t-179.5 48.5q-45 0 -75 -48t-30 -124q0 -97 54 -157t151 -60q71 0 130.5 54.5t84.5 147.5z" />
    <glyph glyph-name="plusminus" unicode="&#xb1;" horiz-adv-x="1085" 
d="M225 51q0 46 25.5 80.5t56.5 34.5q34 0 147 10.5t204 31.5q98 21 126 21q33 0 57.5 -22t24.5 -47q0 -46 -19.5 -80.5t-45.5 -34.5q-18 0 -118 -13q-82 -10 -118 -13q-20 -2 -110 -15q-137 -20 -154 -20q-27 0 -51.5 20.5t-24.5 46.5zM176 459q0 36 23 80t53 48
q29 5 111 21l63 13v7q0 18 -5 69q-7 64 -7 91q0 46 34.5 82.5t81.5 36.5q70 0 70 -86q0 -33 -1 -115q-1 -42 -1 -51q11 3 53 17q169 53 195 53q21 0 35 -33.5t14 -66.5q0 -21 -21.5 -52.5t-48.5 -36.5q-42 -10 -144 -38q-59 -17 -71 -19q0 -3 1 -36q3 -109 3 -134
q0 -28 -33 -58t-65 -30q-34 0 -54 22t-20 54q0 106 -4 137q-28 -5 -102 -27q-89 -26 -109 -26q-21 0 -36 25.5t-15 52.5z" />
    <glyph glyph-name="lessequal" unicode="&#x2264;" horiz-adv-x="1065" 
d="M231 662q0 40 23 55q14 17 146 107q106 71 137 96q118 94 196 94q29 0 57.5 -23.5t28.5 -46.5q0 -34 -42.5 -73t-147.5 -103q-140 -87 -158 -106q41 -57 214 -182q42 -31 67.5 -70.5t25.5 -69.5q0 -34 -27 -63t-61 -29q-38 0 -121 79q-39 37 -61 56l-152.5 135
t-109.5 108t-15 36zM258 51q0 46 25.5 80.5t56.5 34.5q34 0 146.5 11t203.5 30q98 22 127 22q33 0 57.5 -22t24.5 -47q0 -46 -20 -80.5t-45 -34.5q-18 0 -118 -13q-82 -10 -118 -13q-20 -2 -111 -15q-137 -20 -153 -20q-27 0 -51.5 20.5t-24.5 46.5z" />
    <glyph glyph-name="greaterequal" unicode="&#x2265;" horiz-adv-x="1065" 
d="M891 588q0 -40 -23 -56q-13 -17 -146 -106q-106 -72 -136 -96q-118 -94 -197 -94q-30 0 -58 23t-28 46q0 33 42.5 73t145.5 103q143 87 160 107q-40 55 -214 181q-42 31 -67.5 71t-25.5 69q0 34 27 63t61 29q21 0 45 -14.5t78 -66.5q38 -36 59 -54l152 -135.5t109.5 -107
t15.5 -35.5zM862 164q0 -46 -25.5 -80.5t-56.5 -34.5q-34 0 -146.5 -11t-203.5 -30q-98 -22 -127 -22q-33 0 -57.5 22t-24.5 47q0 46 20 80.5t46 34.5q17 0 116 12q83 11 119 14q20 2 111 15q137 20 153 20q27 0 51.5 -20.5t24.5 -46.5z" />
    <glyph glyph-name="yen" unicode="&#xa5;" horiz-adv-x="895" 
d="M530 264q-12 -24 -12 -88q0 -15 10 -41q15 -37 15 -65q0 -41 -48 -78t-104 -37q-36 0 -61 62.5t-25 140.5q0 49 10 69q-90 -12 -92 -12q-22 0 -41.5 27t-19.5 57t21.5 50t52.5 20q47 0 116 10q17 87 17 108q-23 15 -151 228t-150 260q-5 12 -21 42q-51 92 -51 130
q0 30 27 51t65 21q56 0 84 -23.5t44 -75.5q19 -61 151 -301q57 -105 73 -137q8 21 36 107q50 147 68 196q78 213 93 277q10 45 44.5 70.5t80.5 25.5q37 0 64.5 -31t27.5 -74q0 -27 -88 -250q-126 -317 -162 -448l-39 -143q48 2 104 15q38 9 58 9q68 0 68 -57
q0 -43 -18.5 -68.5t-47.5 -25.5q-32 0 -119 -12q-63 -9 -80 -9z" />
    <glyph glyph-name="mu1" unicode="&#xb5;" horiz-adv-x="891" 
d="M858 123q0 -36 -32.5 -65t-59.5 -29q-54 0 -89 17q-19 9 -28.5 22.5t-23.5 119.5q0 5 -1 13t-1 12q-61 -96 -164.5 -154.5t-188.5 -58.5q0 -39 7 -208q4 -106 4 -122q0 -50 -47 -83t-99 -33q-34 0 -60 19t-26 52q0 54 23 267q10 89 10 98q0 57 -6 243q-13 110 -17 302
q-1 42 -7 135q-5 91 -5 121q0 54 35.5 87t97.5 33q117 0 117 -98q0 -31 -4 -117q-6 -114 -6 -158q0 -48 6 -142q1 -11 1 -17q13 -201 89 -201q39 0 71 19.5t89 85.5q61 71 61 211q0 115 -40 253q-17 57 -17 80q0 37 39.5 68t93.5 31q63 0 87 -37.5t42 -316.5
q10 -160 35 -318q14 -86 14 -131z" />
    <glyph glyph-name="partialdiff" unicode="&#x2202;" horiz-adv-x="838" 
d="M299 1264q-55 55 -55 110q0 53 90 53q54 0 124 -70.5t127 -178.5l24 -44q97 -182 124 -297.5t27 -269.5q0 -170 -51 -297.5t-147.5 -201.5t-199.5 -74q-131 0 -205.5 99.5t-74.5 281.5q0 143 56 290t139 221q4 3 13 12q48 50 93 50q72 0 72 -63q0 -94 -41 -123
q-125 -88 -125 -385q0 -86 23.5 -151.5t58.5 -65.5q75 0 122.5 102t47.5 258q0 190 -15.5 287t-64.5 202q-57 122 -93.5 172t-68.5 83z" />
    <glyph glyph-name="summation" unicode="&#x3a3;" horiz-adv-x="1075" 
d="M365 798q-134 168 -178 238.5t-44 104.5q0 23 26 41t117 49q41 13 62 21q83 30 222.5 62t191.5 32q74 0 91 -13.5t17 -50.5q0 -80 -14 -106.5t-51 -26.5q-20 0 -63 2q-37 2 -53 2q-50 0 -151.5 -16t-181.5 -39q0 -6 88 -115q278 -346 278 -405q0 -23 -153 -341
q-145 -301 -145 -321q0 -35 37 -35q251 0 515 183q54 38 81 38q20 0 29.5 -27t9.5 -108q0 -61 -108 -116.5t-299.5 -95.5t-313.5 -40q-94 0 -135.5 14t-41.5 54q0 4 1 13v14q0 47 213 514q107 237 107 249q0 31 -154 225z" />
    <glyph glyph-name="product" unicode="&#x220f;" horiz-adv-x="1096" 
d="M895 1325q59 0 84 -21t25 -75q0 -25 -26 -55.5t-52 -31.5q-32 -1 -56 -5q0 -116 26 -447l13 -196q27 -421 39 -496q4 -1 14 -1q35 -1 35 -36q0 -36 -44 -79.5t-91 -43.5q-54 0 -96 50t-47 130q-2 48 -6 221q-9 348 -22 554q-17 261 -17 333l-283 -22q0 -23 6 -173
q13 -324 13 -431q0 -109 10 -326q4 -81 8 -151t13 -91q8 -18 8 -36q0 -25 -58 -53.5t-92 -28.5q-41 0 -65.5 21t-24.5 54q0 62 -6 578l-8 625l-70 -2q-29 0 -46.5 29.5t-17.5 80.5q0 49 62 78q62 6 402.5 26.5t369.5 20.5z" />
    <glyph glyph-name="pi" unicode="&#x3c0;" horiz-adv-x="1065" 
d="M479 537q1 -14 1 -33q0 -71 -11 -275q-6 -117 -6 -141q0 -35 -30 -55.5t-73 -20.5q-28 0 -57 26.5t-29 51.5q0 13 10 121q19 221 19 274v13q-113 -15 -117 -15q-29 0 -45 28.5t-16 70.5q0 24 27 45.5t65 27.5q11 1 80 22q377 111 532 111q68 0 90.5 -16.5t22.5 -54.5
q0 -40 -37 -69t-90 -40v0v0q0 -26 44 -210q54 -227 54 -265q0 -55 -110 -55q-45 0 -67.5 19.5t-30.5 66.5q-3 17 -21 113q-50 257 -55 298q-115 -34 -150 -38z" />
    <glyph glyph-name="integral" unicode="&#x222b;" horiz-adv-x="651" 
d="M317 1196q0 -30 21 -185q19 -135 29 -218q19 -154 48 -364q16 -116 21 -163q2 -10 5 -37q59 -478 59 -551q0 -48 -31 -82.5t-66 -34.5q-50 0 -133.5 19.5t-117.5 44.5h-1q-42 31 -42 62q0 26 17.5 54t41.5 28q23 0 88 -32q28 -13 32 -13q1 0 1 1v3q0 82 -45 484t-97 688
q-39 213 -47 368q0 30 51 61t111 31q80 0 173 -35q4 -1 14 -4q69 -22 69 -68q0 -102 -53 -102q-42 0 -62 22q-11 7 -26 20q-22 21 -51 21z" />
    <glyph glyph-name="ordfeminine" unicode="&#xaa;" horiz-adv-x="799" 
d="M152 881q0 108 136 209.5t175 101.5q-22 43 -80 43q-32 0 -56 -19q-22 -16 -48 -16q-16 0 -32 19t-16 43q0 31 28 47q25 15 77.5 30t87.5 15q156 0 211 -191q31 -82 31 -207q0 -75 -23 -117t-65 -42q-54 0 -54 53v10q-54 -34 -121.5 -60t-109.5 -26q-63 0 -102 28.5
t-39 78.5zM492 1087q-18 -12 -53 -31q-63 -34 -99.5 -64.5t-36.5 -63.5q0 -27 33 -27q24 0 64 19.5t67 40.5q21 16 41 20q0 28 -16 106z" />
    <glyph glyph-name="ordmasculine" unicode="&#xba;" horiz-adv-x="799" 
d="M150 1010q0 82 40 166t101 131q4 2 14 11q30 30 45 30q11 0 30 -6q23 -7 38 -7q46 0 101.5 -36t85.5 -92.5t30 -127.5q0 -128 -81.5 -213.5t-193.5 -85.5q-94 0 -152 61.5t-58 168.5zM369 913q45 0 71.5 36t26.5 100q0 97 -13.5 128t-43.5 31q-95 0 -95 -200
q0 -44 15 -69.5t39 -25.5z" />
    <glyph glyph-name="Omega" unicode="&#x3a9;" horiz-adv-x="1458" 
d="M588 141q39 -47 39 -90q0 -67 -56 -67l-383 6q-27 0 -43 31.5t-16 76.5q0 40 17 66t47 26l155 -28q-2 4 -10 18q-156 260 -156 490q0 200 69.5 346.5t201 229.5t280.5 83q158 0 286 -78t194.5 -221.5t66.5 -343.5q0 -238 -173 -516q-9 -15 -11 -18l174 14
q26 0 42.5 -18.5t16.5 -45.5q0 -47 -13 -74.5t-34 -27.5l-403 -8q-52 0 -52 55q0 33 38 98q72 123 121.5 273.5t49.5 263.5q0 216 -77 332t-207 116q-154 0 -237 -121.5t-83 -351.5q0 -121 43.5 -260.5t112.5 -255.5z" />
    <glyph glyph-name="ae" unicode="&#xe6;" horiz-adv-x="1292" 
d="M1257 403q0 -29 -6.5 -49.5t-19.5 -35t-99 -79.5q-79 -60 -101 -80q-54 -48 -134 -101.5t-111 -53.5q-59 0 -121 53t-71 93q-10 -38 -143.5 -91t-210.5 -53q-160 0 -160 117q0 168 196 330q67 59 223 164q10 6 13 8q0 1 2 2q28 17 33 24q-21 137 -105 137
q-32 0 -62.5 -14t-116.5 -75q-15 -11 -25 -11q-64 0 -88 13.5t-24 59.5q0 38 38 64.5t108 56.5q145 62 215 62q102 0 166 -86q51 96 95 96q168 0 273 -83t105 -140q0 -40 -10.5 -68.5t-32 -51t-172.5 -109.5q-80 -46 -94 -56l-33 -18v-37q5 -82 24.5 -133t43.5 -51
q22 0 45 15.5t80 74.5q100 102 137.5 134t58.5 32q38 0 61 -17.5t23 -42.5zM836 778q-30 0 -50 -137q-1 -11 -2 -16l2 -29l57 28q80 39 99 52q0 9 -10 28t-19 27q-31 47 -77 47zM561 510q-264 -171 -264 -305q0 -47 51 -47q71 0 161 87q37 36 62 36q1 0 1 -1l-1 -1
q0 101 -10 231z" />
    <glyph glyph-name="oslash" unicode="&#xf8;" horiz-adv-x="917" 
d="M260 25l-32 -49q-35 -58 -78 -58q-28 0 -47 15.5t-19 39.5q0 60 33 95q1 1 6 9q15 21 29 38q-70 99 -70 260q0 138 67.5 285.5t165.5 224.5q9 6 19 22q19 31 53 31q26 0 59 -11q31 -10 54 -10q71 0 153 -59l38 58q35 50 40 62q10 26 41 26q29 0 46.5 -18.5t17.5 -49.5
q0 -29 -33 -88l-2 -2q-4 -8 -27 -41l-26 -39q81 -117 81 -279q0 -131 -58.5 -242t-162 -181t-202.5 -70q-83 0 -146 31zM354 172q28 -41 78 -41q61 0 117.5 98t56.5 215q0 49 -6 93zM309 328q33 48 105 164q92 148 135 208q-37 70 -72 70q-33 0 -76.5 -62t-70.5 -149
t-27 -172q0 -5 3 -32q3 -23 3 -27z" />
    <glyph glyph-name="questiondown" unicode="&#xbf;" horiz-adv-x="917" 
d="M799 655q0 -41 -37.5 -74.5t-83.5 -33.5q-42 0 -77.5 48.5t-35.5 90.5q0 32 34 56t79 24q121 0 121 -111zM999 -471q0 -93 -109 -157t-245 -64q-192 0 -315 112.5t-123 290.5q0 145 96.5 275.5t274.5 228.5q45 25 45 102q0 7 -6 37q-7 31 -7 39q0 18 26 33.5t56 15.5
q61 0 99 -53.5t38 -144.5q0 -39 -31 -82t-73 -68q-117 -71 -207 -181t-90 -208q0 -102 59.5 -162.5t147.5 -60.5q103 0 184 79q47 46 84 46q36 0 66 -26.5t30 -51.5z" />
    <glyph glyph-name="exclamdown" unicode="&#xa1;" 
d="M131 502q0 53 24.5 88t66.5 35q41 0 79.5 -26t38.5 -58q0 -18 -1 -132q-3 -209 -3 -270q0 -55 13 -304q9 -169 9 -195q0 -48 -31.5 -87.5t-74.5 -39.5q-113 0 -113 135q0 8 1 47q2 131 2 224q0 141 -7 408q-4 140 -4 175zM139 872q0 42 37.5 75.5t83.5 33.5
q42 0 77.5 -48.5t35.5 -90.5q0 -32 -34 -56t-79 -24q-121 0 -121 110z" />
    <glyph glyph-name="logicalnot" unicode="&#xac;" horiz-adv-x="922" 
d="M211 456q-62 -10 -75 -10q-16 0 -36 29.5t-20 64.5q0 23 21 50.5t37 27.5q9 0 88 7q130 12 158 13q35 0 152 14q199 24 262 24q16 0 31.5 -23t15.5 -45q0 -24 -26 -136q-36 -152 -36 -196q0 -40 -23 -64t-61 -24q-84 0 -84 84q0 40 33 146q15 47 15 55q0 31 -15 31
q-156 0 -437 -48z" />
    <glyph glyph-name="radical" unicode="&#x221a;" horiz-adv-x="881" 
d="M674 1096q-9 -68 -83 -462l-51 -277q-50 -275 -55.5 -293t-14 -31t-20.5 -22q-32 -25 -94 -25q-23 0 -43.5 13.5t-56.5 59.5q-19 26 -34 43q-148 166 -148 256q0 86 69 86q73 0 101 -49q4 -8 23 -39q68 -113 81 -141q4 66 50 403l11 78q18 131 57 356q28 162 38 182.5
t27 31t42 10.5h238q22 0 37.5 -18t15.5 -46q0 -46 -24 -77t-56 -31q-35 0 -72.5 -3.5t-37.5 -4.5z" />
    <glyph glyph-name="florin" unicode="&#x192;" horiz-adv-x="811" 
d="M745 1339q83 0 132 -38t49 -97q0 -96 -107 -96q-16 0 -42 21t-28 38q-6 39 -63 39q-48 0 -80.5 -88t-42.5 -244l115 5h5q65 0 65 -91q0 -39 -27.5 -63.5t-69.5 -26.5l-90 -2q-18 -255 -92.5 -554t-175.5 -456t-221 -157q-87 0 -141 62.5t-54 164.5q0 28 22 51t54 23
q68 0 91 -67q17 -52 44 -52q74 0 123.5 229t91.5 767l-72 2q-65 5 -65 84q0 29 18.5 50t44.5 21l99 2q18 209 138 341t279 132z" />
    <glyph glyph-name="approxequal" unicode="&#x2248;" horiz-adv-x="901" 
d="M-14 598q0 65 76.5 119.5t175.5 54.5q41 0 137 -14q126 -19 196 -19q62 0 91.5 7.5t39.5 34.5q2 5 3 7q4 29 35 50.5t75 21.5q37 0 64.5 -20t27.5 -47q0 -44 -38.5 -101t-97.5 -89t-130 -32q-46 0 -168 14q-127 15 -178 15q-102 0 -119 -51q-6 -19 -37 -34t-71 -15
q-37 0 -59.5 30.5t-22.5 67.5zM-14 244q0 65 76.5 119.5t175.5 54.5q41 0 137 -14q126 -19 196 -19q62 0 91.5 7.5t39.5 34.5q2 5 3 7q4 29 35 50.5t75 21.5q37 0 64.5 -20t27.5 -48q0 -44 -39 -101t-98 -88.5t-129 -31.5q-46 0 -168 14q-127 15 -178 15q-102 0 -119 -51
q-6 -19 -37 -34.5t-71 -15.5q-37 0 -59.5 31t-22.5 68z" />
    <glyph glyph-name="Delta" unicode="&#x2206;" horiz-adv-x="1143" 
d="M213 -25q-40 0 -53 23t-13 80q0 118 109 563q39 157 39 324q0 18 -3 60q-3 31 -3 40q0 34 33 58t86 24q27 0 46 -18.5t19 -43.5q0 -215 -22 -380.5t-62 -333.5q-31 -126 -31 -156q0 -41 15 -41l536 59q-35 39 -90.5 131t-107.5 199t-119 302q-68 200 -103.5 259.5
t-70.5 59.5q-53 0 -53 92q0 33 29.5 52.5t82.5 19.5q68 0 128.5 -79.5t159.5 -342.5q169 -451 359 -695q52 -65 52 -125q0 -61 -43 -61q-227 0 -789 -58q-120 -12 -131 -12z" />
    <glyph glyph-name="guillemotleft" unicode="&#xab;" horiz-adv-x="1008" 
d="M180 602q0 33 65 83q47 37 88 76q81 81 142 81q22 0 37.5 -13t15.5 -32q0 -53 -45 -83q-126 -85 -143 -114q93 -103 131 -137q51 -45 51 -103q0 -44 -60 -44q-31 0 -103 73q-21 22 -33 33q-35 39 -88 90q-41 39 -49.5 56t-8.5 34zM471 602q0 34 66 84q47 36 87 75
q81 81 142 81q22 0 37.5 -13t15.5 -32q0 -53 -45 -82q-125 -83 -143 -115q93 -103 131 -137q51 -45 51 -103q0 -44 -60 -44q-30 0 -102 71q-22 23 -35 35q-36 41 -91 93q-39 38 -46.5 54t-7.5 33z" />
    <glyph glyph-name="guillemotright" unicode="&#xbb;" horiz-adv-x="961" 
d="M765 515q-55 -52 -91 -93q-13 -12 -36 -35q-71 -71 -100 -71q-61 0 -61 44q0 58 51 103q49 44 131 137q-18 32 -143 115q-45 29 -45 82q0 18 15.5 31.5t37.5 13.5q61 0 143 -81q39 -39 86 -75q66 -50 66 -84q0 -17 -7.5 -33t-46.5 -54zM472 513q-54 -51 -89 -91
q-12 -11 -33 -33q-72 -73 -103 -73q-61 0 -61 44q0 58 51 104q43 37 132 136q-19 32 -144 115q-45 29 -45 82q0 18 15.5 31.5t37.5 13.5q61 0 143 -81q39 -39 86 -75q66 -50 66 -84q0 -17 -7.5 -34t-48.5 -55z" />
    <glyph glyph-name="ellipsis" unicode="&#x2026;" horiz-adv-x="1241" 
d="M90 76q0 41 37.5 74.5t83.5 33.5q42 0 77.5 -48.5t35.5 -90.5q0 -32 -34 -56t-79 -24q-121 0 -121 111zM504 76q0 41 37.5 74.5t83.5 33.5q42 0 79 -49t37 -90q0 -32 -35.5 -56t-80.5 -24q-121 0 -121 111zM917 76q0 41 37.5 74.5t83.5 33.5q42 0 77.5 -48.5t35.5 -90.5
q0 -33 -34 -56.5t-79 -23.5q-121 0 -121 111z" />
    <glyph glyph-name="nbspace" unicode="&#xa0;" horiz-adv-x="1065" 
 />
    <glyph glyph-name="Agrave" unicode="&#xc0;" horiz-adv-x="1120" 
d="M303 373q-31 -104 -31 -166q0 -26 3 -75q4 -50 4 -77q0 -36 -34.5 -59t-80.5 -23q-45 0 -74 34.5t-29 94.5q0 90 53 307t85 293q16 38 38.5 141.5t22.5 141.5q0 16 -2 54q-2 29 -2 38q0 36 31.5 63t81.5 27q47 0 77.5 -33t30.5 -71q0 -129 -91 -394q-24 -68 -30 -91
l303 145q-36 117 -123 293t-130 176q-21 0 -42.5 27.5t-21.5 58.5q0 41 39.5 63.5t103.5 22.5q58 0 170 -194.5t170 -354.5q99 0 99 -89q0 -50 -31 -64q28 -46 114.5 -171.5t113.5 -152.5q83 -85 83 -125q0 -107 -102 -107q-37 0 -67 16t-67 63q-7 8 -10 12q-33 47 -132 226
q-77 137 -93 159zM504 1463q0 -29 -26 -53.5t-52 -24.5q-23 0 -85.5 41t-111.5 100.5t-49 104.5q0 24 31 55t59 31q25 0 42.5 -11.5t42.5 -52.5q29 -48 54 -73q95 -78 95 -117z" />
    <glyph glyph-name="Atilde" unicode="&#xc3;" horiz-adv-x="1120" 
d="M303 373q-31 -104 -31 -166q0 -26 3 -75q4 -50 4 -77q0 -36 -34.5 -59t-80.5 -23q-45 0 -74 34.5t-29 94.5q0 90 53 307t85 293q16 38 38.5 141.5t22.5 141.5q0 16 -2 54q-2 29 -2 38q0 36 31.5 63t81.5 27q47 0 77.5 -33t30.5 -71q0 -129 -91 -394q-24 -68 -30 -91
l303 145q-36 117 -123 293t-130 176q-21 0 -42.5 27.5t-21.5 58.5q0 41 39.5 63.5t103.5 22.5q58 0 170 -194.5t170 -354.5q99 0 99 -89q0 -50 -31 -64q28 -46 114.5 -171.5t113.5 -152.5q83 -85 83 -125q0 -107 -102 -107q-37 0 -67 16t-67 63q-7 8 -10 12q-33 47 -132 226
q-77 137 -93 159zM132 1486q0 57 56.5 107t123.5 50q29 0 116 -21q111 -26 158 -26q35 0 49 62q14 63 83 63q22 0 41.5 -20t19.5 -45q0 -39 -23 -106t-67.5 -93.5t-97.5 -26.5q-33 0 -130 22q-99 23 -133 23q-63 0 -73 -41q-3 -12 -24 -21t-44 -9q-25 0 -40 22t-15 60z" />
    <glyph glyph-name="Otilde" unicode="&#xd5;" horiz-adv-x="1135" 
d="M82 727q0 163 42.5 303t117.5 229t145 89q36 0 68 -33.5t32 -65.5q0 -70 -17.5 -114.5t-37.5 -44.5q-27 0 -35 16q-9 18 -24 18q-24 0 -47 -127t-23 -317q0 -233 48 -359t128 -126q149 0 262 135.5t113 316.5q0 154 -94 286t-221 185q-50 21 -50 119q0 32 18.5 52
t51.5 20q121 0 237 -96.5t188.5 -254.5t72.5 -317q0 -134 -90.5 -287.5t-226.5 -243.5t-285 -90q-189 0 -281 163t-92 544zM142 1476q0 57 56.5 107t123.5 50q29 0 116 -21q111 -26 158 -26q35 0 49 62q14 63 83 63q22 0 41.5 -20t19.5 -45q0 -39 -23 -106t-67.5 -93.5
t-97.5 -26.5q-33 0 -130 22q-99 23 -133 23q-63 0 -73 -41q-3 -12 -24 -21t-44 -9q-25 0 -40 22t-15 60z" />
    <glyph glyph-name="OE" unicode="&#x152;" horiz-adv-x="2050" 
d="M1798 1341q0 -80 -19 -111.5t-79 -31.5q-43 0 -161 -9q-20 -1 -28 -2q-84 -5 -320 -31q-113 -13 -122 -13q-21 0 -56.5 22t-35.5 41q0 48 107.5 93.5t307 86.5t271.5 41q135 0 135 -86zM1903 463q0 -111 -111.5 -207t-311.5 -162.5t-341 -66.5q-170 0 -232 198
q-184 -205 -418 -205q-189 0 -280.5 163.5t-91.5 543.5q0 163 42.5 303t117.5 229t145 89q36 0 68 -33.5t32 -65.5q0 -69 -17.5 -114t-37.5 -45q-27 0 -35 16q-9 18 -24 18q-24 0 -47 -127t-23 -317q0 -233 48 -359t128 -126q149 0 262 135.5t113 316.5q0 154 -94.5 286
t-221.5 185q-49 20 -49 119q0 32 18.5 52t51.5 20q78 0 173 -71.5t146 -166.5l7 35q17 30 27.5 38t47.5 15q37 0 63.5 -41t26.5 -76q0 -8 1 -44q4 -96 4 -154q61 14 201 62q131 46 167 46q23 0 37 -19t14 -46q0 -58 -55.5 -99.5t-222.5 -85.5q-38 -10 -55 -15
q-55 -15 -84 -21v-72q0 -103 11 -205.5t40 -134t112 -31.5t262.5 83.5t229.5 164.5q46 74 102 74q54 0 54 -82z" />
    <glyph glyph-name="oe" unicode="&#x153;" horiz-adv-x="1282" 
d="M1284 403q0 -29 -6.5 -50t-20 -35.5t-98.5 -78.5q-79 -60 -101 -80q-53 -47 -134 -101t-111 -54q-91 0 -147 119q-61 -60 -134.5 -94.5t-138.5 -34.5q-151 0 -237 99.5t-86 281.5q0 138 67.5 285.5t165.5 224.5q9 6 19 22q19 31 53 31q26 0 58 -11q31 -10 54 -10
q87 0 183 -77q58 114 104 114q168 0 273.5 -83t105.5 -140q0 -40 -11 -69t-32.5 -51.5t-181.5 -114.5l-117 -68v-35q4 -82 23.5 -134t44.5 -52t53.5 21.5t87.5 83.5q142 151 180 151t61 -17.5t23 -42.5zM862 778q-15 0 -29.5 -45t-21.5 -108l-2 -29q14 8 62 30q79 37 98 50
q0 11 -17.5 40.5t-42.5 45.5t-47 16zM594 444q0 119 -42 222.5t-87 103.5q-51 0 -106.5 -123.5t-55.5 -259.5q0 -133 27.5 -194.5t89.5 -61.5q61 0 117.5 98t56.5 215z" />
    <glyph glyph-name="endash" unicode="&#x2013;" horiz-adv-x="1008" 
d="M125 540q0 34 29.5 71.5t67.5 37.5q8 0 77 1q131 1 161 1q148 0 323 19q37 4 41 4q23 0 40.5 -29t17.5 -72q0 -48 -20.5 -78t-49.5 -30q-16 0 -59 1q-67 3 -108 3q-50 0 -273 -10q-27 -1 -35 -1q-9 0 -53 -6q-83 -10 -107 -10q-21 0 -36.5 29.5t-15.5 68.5z" />
    <glyph glyph-name="emdash" unicode="&#x2014;" horiz-adv-x="1972" 
d="M227 544q0 105 112 105q15 0 178 1q320 1 379 1q388 0 667 19q54 4 64 4q37 0 61.5 -32t24.5 -67q0 -32 -26.5 -69t-59.5 -37h-20q-121 4 -228 4q-95 0 -667 -12q-49 -1 -60 -1q-19 0 -108 -6q-165 -10 -211 -10q-33 0 -69.5 29.5t-36.5 70.5z" />
    <glyph glyph-name="quotedblleft" unicode="&#x201c;" horiz-adv-x="784" 
d="M410 1372q0 -29 -55 -102q-25 -33 -59 -96q-36 -68 -55 -87.5t-38 -19.5q-46 0 -86.5 30.5t-40.5 57.5q0 15 23.5 66.5t52.5 97.5q27 38 82.5 76.5t80.5 38.5q39 0 67 -17.5t28 -44.5zM723 1325q0 -29 -55 -103q-26 -34 -59 -97q-37 -67 -55.5 -86t-37.5 -19
q-45 0 -86 30.5t-41 57.5q0 15 23.5 66.5t52.5 97.5q28 38 83 76t81 38q39 0 66.5 -17t27.5 -44z" />
    <glyph glyph-name="quotedblright" unicode="&#x201d;" horiz-adv-x="627" 
d="M285 1075q0 29 56 105q25 33 59 96q36 66 54.5 85t37.5 19q45 0 85.5 -30.5t40.5 -57.5q0 -16 -23 -67t-52 -97q-28 -38 -83 -76t-81 -38q-39 0 -66.5 17t-27.5 44zM-29 1122q0 29 56 104q24 32 58 95q37 67 55.5 86.5t37.5 19.5q46 0 86.5 -30.5t40.5 -57.5
q0 -26 -44 -106t-105 -126t-90 -46q-40 0 -67.5 17t-27.5 44z" />
    <glyph glyph-name="quoteleft" unicode="&#x2018;" 
d="M406 1372q0 -29 -55 -102q-25 -33 -59 -96q-36 -68 -55 -87.5t-38 -19.5q-46 0 -86.5 30.5t-40.5 57.5q0 16 23 67t52 97q28 38 83.5 76.5t80.5 38.5q39 0 67 -17.5t28 -44.5z" />
    <glyph glyph-name="quoteright" unicode="&#x2019;" horiz-adv-x="356" 
d="M-8 1122q0 29 56 105q25 33 59 95q36 67 54.5 86t37.5 19q45 0 86 -30.5t41 -57.5q0 -26 -44 -106.5t-105 -126t-91 -45.5q-39 0 -66.5 17t-27.5 44z" />
    <glyph glyph-name="divide" unicode="&#xf7;" horiz-adv-x="1065" 
d="M428 864q0 33 28 58.5t62 25.5q29 0 57.5 -37.5t28.5 -68.5q0 -26 -28 -47t-58 -21q-90 0 -90 90zM106 540q0 35 28 73t65 38q49 0 376 38q230 26 269 26q44 0 71 -29t27 -65q0 -39 -23 -71t-61 -32q-48 0 -161 -7t-164 -16q-310 -53 -342 -53q-37 0 -61 31t-24 67z
M442 301q0 33 30.5 59.5t68.5 26.5q33 0 61.5 -39t28.5 -72q0 -26 -27 -44.5t-63 -18.5q-99 0 -99 88z" />
    <glyph glyph-name="lozenge" unicode="&#x25ca;" horiz-adv-x="1042" 
d="M584 -4q-79 0 -277 230.5t-198 322.5q0 52 61 161q117 208 117 261q0 18 -3 53q-3 29 -3 41q0 27 27.5 50.5t56.5 23.5t54 -16.5t25 -37.5q0 -97 -21.5 -184t-81.5 -207q-46 -90 -46 -127q0 -16 12 -53q30 -63 99 -143.5t135 -134.5q9 -6 16 -28q5 -18 12 -18q13 0 23 29
q5 14 8 19q43 75 78 203t35 218q0 20 -27 82q-11 24 -32 75q-67 162 -111 230.5t-83 96.5q-34 24 -65 41q-51 29 -51 94q0 33 33 51.5t86 18.5q71 0 192.5 -184t212.5 -406q2 -6 8 -18q23 -51 23 -105q0 -55 -88 -275.5t-149 -306.5q-33 -57 -78 -57z" />
    <glyph glyph-name="ydieresis" unicode="&#xff;" horiz-adv-x="743" 
d="M20 666q0 37 27.5 65.5t65.5 28.5q31 0 50.5 -10.5t53.5 -56.5l18 -24q54 -70 110 -160.5t71 -135.5q0 3 4 32q35 252 35 431q0 45 36.5 71.5t96.5 26.5q40 0 72 -26t32 -56q0 -37 -12 -82q-46 -182 -78.5 -430t-32.5 -465q0 -45 23 -161q20 -102 20 -137
q0 -47 -37.5 -80.5t-72.5 -33.5q-69 0 -105 39q-18 21 -22.5 68t-8.5 136.5t-4 137.5q0 127 15 273q0 28 -96 156.5t-205 252.5q-56 63 -56 140zM108 1153q0 37 33.5 67.5t74.5 30.5q38 0 69 -44t31 -83q0 -29 -30.5 -50.5t-69.5 -21.5q-108 0 -108 101zM394 1153
q0 37 34 67.5t75 30.5q38 0 69 -44t31 -83q0 -29 -30.5 -50.5t-69.5 -21.5q-109 0 -109 101z" />
    <glyph glyph-name="Ydieresis" unicode="&#x178;" horiz-adv-x="895" 
d="M-4 1147q0 30 27 51t65 21q56 0 84 -23.5t44 -75.5q19 -61 151 -301q57 -105 73 -137q8 21 36 107q50 147 68 196q78 213 93 277q10 45 44.5 70.5t80.5 25.5q37 0 64.5 -31t27.5 -74q0 -27 -88 -249q-126 -318 -161 -449l-18 -63q-69 -249 -69 -316q0 -15 10 -41
q15 -37 15 -65q0 -41 -48 -78t-104 -37q-36 0 -61 62.5t-25 140.5q0 43 32 163q32 122 32 166q-23 15 -151 228t-150 260q-5 12 -21 42q-51 92 -51 130zM148 1478q0 37 33.5 67.5t74.5 30.5q38 0 69 -44t31 -83q0 -29 -30.5 -50.5t-69.5 -21.5q-108 0 -108 101zM434 1478
q0 37 34 67.5t75 30.5q38 0 69 -44t31 -83q0 -29 -30.5 -50.5t-69.5 -21.5q-109 0 -109 101z" />
    <glyph glyph-name="fraction" unicode="&#x2215;" horiz-adv-x="737" 
d="M652 1300q14 46 44.5 72.5t65.5 26.5q49 0 83 -22.5t34 -61.5q0 -29 -84.5 -185t-224.5 -375q-225 -352 -317 -517.5t-104 -200.5q-13 -35 -48.5 -56.5t-82.5 -21.5q-31 0 -59.5 22.5t-28.5 55.5q0 43 77.5 180t289.5 456q139 209 237.5 386t117.5 241z" />
    <glyph glyph-name="currency" unicode="&#xa4;" horiz-adv-x="838" 
d="M772 786q0 -53 -76 -94q56 -89 56 -196q0 -144 -101 -254q56 -60 56 -99q0 -19 -19.5 -40t-38.5 -21q-73 0 -119 57q-57 -39 -147 -39q-81 0 -143 35q-38 -57 -99 -57q-22 0 -42.5 13t-20.5 30q0 52 61 119q-37 52 -37 166q0 123 84 245q-71 44 -71 113q0 23 11 40t28 17
q54 0 129 -55q80 74 182 74q92 0 135 -33q54 45 121 45q22 0 36.5 -18t14.5 -48zM565 483q0 185 -110 185q-33 0 -73.5 -37t-62.5 -94.5t-22 -128.5q0 -64 28 -102t66 -38q69 0 121.5 62.5t52.5 152.5z" />
    <glyph glyph-name="guilsinglleft" unicode="&#x2039;" horiz-adv-x="737" 
d="M180 602q0 33 65 83q47 37 88 76q81 81 142 81q22 0 37.5 -13t15.5 -32q0 -53 -45 -83q-126 -85 -143 -114q93 -103 131 -137q51 -45 51 -103q0 -44 -60 -44q-31 0 -103 73q-21 22 -33 33q-35 39 -88 90q-41 39 -49.5 56t-8.5 34z" />
    <glyph glyph-name="guilsinglright" unicode="&#x203a;" horiz-adv-x="737" 
d="M472 513q-54 -51 -89 -91q-12 -11 -33 -33q-72 -73 -103 -73q-61 0 -61 44q0 58 51 104q43 37 132 136q-19 32 -144 115q-45 29 -45 82q0 18 15.5 31.5t37.5 13.5q61 0 143 -81q39 -39 86 -75q66 -50 66 -84q0 -17 -7.5 -34t-48.5 -55z" />
    <glyph glyph-name="fi" unicode="&#xf001;" horiz-adv-x="995" 
d="M872 1100q0 -51 -32 -73.5t-103 -22.5q-110 0 -110 79q0 36 37 67.5t79 31.5q129 0 129 -82zM647 1309q0 -54 -14 -75.5t-47 -21.5q-74 0 -74 37q0 23 -63 23t-101.5 -75t-38.5 -169q0 -22 13 -162q21 0 109 28q72 23 87 23q19 0 31 -16.5t12 -40.5q0 -60 -39 -80
q-117 -39 -182 -39q43 -266 51 -350q3 -33 26 -173q27 -161 27 -185q0 -33 -32 -62.5t-64 -29.5q-46 0 -88 20t-45 47l-12 94q-22 170 -33 269q-25 233 -43 329q-64 0 -94 2q-45 17 -45 54q0 32 12 55t31 23q21 0 53 5l25 3q-9 45 -9 112q0 136 46 238.5t132.5 162.5
t172.5 60q85 0 140.5 -28t55.5 -78zM891 109q0 -55 -33 -90t-78 -35q-114 0 -114 104q0 26 -8 178q-17 350 -17 488q0 50 39 83t98 33q94 0 94 -82q0 -18 -5 -87q-9 -125 -9 -185q0 -55 20 -249q13 -132 13 -158z" />
    <glyph glyph-name="fl" unicode="&#xf002;" horiz-adv-x="1024" 
d="M133 700q-63 0 -94 2q-45 17 -45 54q0 32 12 55t31 23q21 0 54 5l24 3q-9 53 -9 112q0 136 46 238.5t132.5 162.5t172.5 60q141 0 141 -143q0 -54 -14 -75t-47 -21q-74 0 -74 36q0 21 -8 38.5t-21 17.5q-53 0 -86 -74t-33 -166q0 -35 7 -104q5 -39 6 -58q22 0 111 28
q71 23 85 23q19 0 31 -16.5t12 -40.5q0 -60 -39 -80q-117 -39 -182 -39q43 -266 51 -350q3 -34 27 -174q27 -160 27 -184q0 -33 -32.5 -62.5t-64.5 -29.5q-46 0 -88 20t-45 47l-12 94q-22 170 -33 269q-25 233 -43 329zM659 1239q0 184 138 184q45 0 80.5 -19.5t35.5 -53.5
q0 -21 -8 -95q-16 -137 -16 -206q0 -79 10 -269.5t47 -477.5q27 -210 27 -239q0 -44 -29.5 -69t-79.5 -25q-58 0 -97 20t-42 54q-1 25 -12 153q-54 665 -54 1043z" />
    <glyph glyph-name="daggerdbl" unicode="&#x2021;" horiz-adv-x="737" 
d="M487 295q13 -206 13 -264q0 -32 -39 -55t-76 -23q-27 0 -64.5 22t-37.5 43t2 122q2 128 2 161v0h-2q-3 0 -23 -1q-65 -5 -104 -5q-38 0 -63 29t-25 61q0 31 22.5 60.5t54.5 29.5q26 0 65 -4q42 -4 73 -4q0 189 -9 371h1v0q-1 0 -8 -1q-87 -10 -136 -10q-39 0 -65.5 24.5
t-26.5 51.5q0 45 26 81t62 36q63 0 121 -8v-1v0q0 1 -3 52q-14 217 -14 244q0 35 34 63.5t83 28.5q111 0 111 -117q0 -194 8 -268h-1q0 -1 2 -1q3 0 32 5q54 8 67 8q33 0 65 -23t32 -57q0 -43 -27.5 -73.5t-63.5 -30.5q-23 0 -62.5 3l-39.5 3v0h4q2 -72 2 -178q0 -82 6 -205
h6q17 0 77 7q48 5 59 5q27 0 43 -29t16 -75q0 -30 -36.5 -54t-74.5 -24q-16 0 -40 1h-23q-13 0 -25 -1z" />
    <glyph glyph-name="periodcentered" unicode="&#xb7;" 
d="M109 715q0 41 37 74.5t83 33.5q42 0 77.5 -48.5t35.5 -90.5q0 -33 -34 -56.5t-79 -23.5q-120 0 -120 111z" />
    <glyph glyph-name="periodcentered" unicode="&#x2219;" 
d="M109 715q0 41 37 74.5t83 33.5q42 0 77.5 -48.5t35.5 -90.5q0 -33 -34 -56.5t-79 -23.5q-120 0 -120 111z" />
    <glyph glyph-name="quotesinglbase" unicode="&#x201a;" horiz-adv-x="356" 
d="M39 -184q0 29 55 103q26 34 59 97q37 67 55.5 86t37.5 19q45 0 86 -30.5t41 -57.5q0 -16 -23 -66.5t-53 -97.5q-28 -39 -83 -77t-81 -38q-39 0 -66.5 17.5t-27.5 44.5z" />
    <glyph glyph-name="quotedblbase" unicode="&#x201e;" horiz-adv-x="627" 
d="M285 -209q0 29 56 105q25 33 59 96q36 66 54.5 85t37.5 19q45 0 85.5 -30.5t40.5 -57.5q0 -16 -23 -67t-52 -97q-28 -38 -83 -76t-81 -38q-39 0 -66.5 17t-27.5 44zM-29 -162q0 29 56 104q24 32 58 95q37 67 55.5 86.5t37.5 19.5q46 0 86.5 -30.5t40.5 -57.5
q0 -15 -23.5 -66.5t-52.5 -97.5q-28 -38 -83 -76t-80 -38q-40 0 -67.5 17t-27.5 44z" />
    <glyph glyph-name="perthousand" unicode="&#x2030;" horiz-adv-x="1921" 
d="M662 1069q0 -83 -81.5 -151t-209.5 -68q-158 0 -158 156q0 131 71 200.5t193 69.5q80 0 132.5 -63.5t52.5 -143.5zM1165 1264q0 -27 -164 -254q-35 -48 -131 -211t-147 -275q-127 -277 -168 -381l14 -2q17 -4 17 -41q0 -13 -42 -54q-14 -13 -20 -19q-36 -39 -102 -39
q-26 0 -37.5 8.5t-11.5 38.5q0 71 76 229q17 35 25 53q64 137 209 410t210 367q16 23 56 86q102 159 120 159q96 0 96 -75zM1810 281q0 -92 -81 -167t-209 -75q-158 0 -158 172q0 97 69.5 197t124.5 100q20 0 38 -6q16 -6 32 -6q69 0 126.5 -70t57.5 -145zM1262 281
q0 -92 -81.5 -167t-209.5 -75q-158 0 -158 172q0 97 69.5 197t125.5 100q13 0 27 -3h1q4 -1 12 -4q16 -5 29 -5q69 0 127 -70t58 -145zM500 1075q0 43 -19 70.5t-43 27.5q-22 0 -49 -45.5t-27 -99.5q0 -70 44 -70q34 0 64 33.5t30 83.5zM1649 287q0 47 -19.5 77.5
t-42.5 30.5q-21 0 -48.5 -50t-27.5 -109q0 -78 43 -78q34 0 64.5 37t30.5 92zM1100 287q0 47 -19.5 77.5t-42.5 30.5q-21 0 -48 -50t-27 -109q0 -78 43 -78q33 0 63.5 37t30.5 92z" />
    <glyph glyph-name="Acircumflex" unicode="&#xc2;" horiz-adv-x="1120" 
d="M303 373q-31 -104 -31 -166q0 -26 3 -75q4 -50 4 -77q0 -36 -34.5 -59t-80.5 -23q-45 0 -74 34.5t-29 94.5q0 90 53 307t85 293q16 38 38.5 141.5t22.5 141.5q0 16 -2 54q-2 29 -2 38q0 36 31.5 63t81.5 27q47 0 77.5 -33t30.5 -71q0 -129 -91 -394q-24 -68 -30 -91
l303 145q-36 117 -123 293t-130 176q-21 0 -42.5 27.5t-21.5 58.5q0 41 39.5 63.5t103.5 22.5q58 0 170 -194.5t170 -354.5q99 0 99 -89q0 -50 -31 -64q28 -46 114.5 -171.5t113.5 -152.5q83 -85 83 -125q0 -107 -102 -107q-37 0 -67 16t-67 63q-7 8 -10 12q-33 47 -132 226
q-77 137 -93 159zM651 1571l48 -41q75 -60 75 -89q0 -23 -28.5 -42.5t-55.5 -19.5q-56 0 -124 68q-69 69 -111 102q-27 -13 -75 -69q-89 -103 -152 -103q-20 0 -33.5 18.5t-13.5 43.5q0 60 92 142t125 105t65 23q28 0 69 -34.5z" />
    <glyph glyph-name="Ecircumflex" unicode="&#xca;" horiz-adv-x="1202" 
d="M137 993q0 32 38.5 57t98.5 25q39 0 65 -19.5t26 -43.5q0 -9 1 -49q1 -103 1 -160q61 14 201 62q131 46 167 46q21 0 36 -32t15 -66q0 -31 -150 -89t-267 -83q1 0 0.5 -139.5t34.5 -216t128 -76.5q63 0 195.5 51.5t190.5 90.5q49 34 93 112q47 82 115 82q54 0 54 -82
q0 -111 -111.5 -207t-311.5 -162.5t-341 -66.5q-132 0 -200.5 123.5t-68.5 355.5q0 51 -2 94l-47 -2q-17 0 -27 24t-10 60q0 27 26.5 51t59.5 29q0 33 -4 93q-6 80 -6 138zM150 1112q0 78 304 156t406 78q84 0 109.5 -15t25.5 -53q0 -58 -26 -91.5t-72 -33.5q-42 0 -159 -9
q-21 -1 -71 -4.5t-344 -49.5q-106 -17 -114 -17q-24 0 -41.5 10.5t-17.5 28.5zM726 1591l48 -41q75 -60 75 -89q0 -23 -28.5 -42.5t-55.5 -19.5q-56 0 -124 68q-69 69 -111 102q-27 -13 -75 -69q-89 -103 -152 -103q-20 0 -33.5 18.5t-13.5 43.5q0 60 92 142t125 105t65 23
q28 0 69 -34.5z" />
    <glyph glyph-name="Aacute" unicode="&#xc1;" horiz-adv-x="1120" 
d="M303 373q-31 -104 -31 -166q0 -26 3 -75q4 -50 4 -77q0 -36 -34.5 -59t-80.5 -23q-45 0 -74 34.5t-29 94.5q0 90 53 307t85 293q16 38 38.5 141.5t22.5 141.5q0 16 -2 54q-2 29 -2 38q0 36 31.5 63t81.5 27q47 0 77.5 -33t30.5 -71q0 -129 -91 -394q-24 -68 -30 -91
l303 145q-36 117 -123 293t-130 176q-21 0 -42.5 27.5t-21.5 58.5q0 41 39.5 63.5t103.5 22.5q58 0 170 -194.5t170 -354.5q99 0 99 -89q0 -50 -31 -64q28 -46 114.5 -171.5t113.5 -152.5q83 -85 83 -125q0 -107 -102 -107q-37 0 -67 16t-67 63q-7 8 -10 12q-33 47 -132 226
q-77 137 -93 159zM234 1463q0 40 94 117q26 25 55 74q25 41 42 52t42 11q28 0 59.5 -31t31.5 -55q0 -45 -49 -104.5t-112 -100.5t-85 -41q-27 0 -52.5 24.5t-25.5 53.5z" />
    <glyph glyph-name="Edieresis" unicode="&#xcb;" horiz-adv-x="1202" 
d="M137 993q0 32 38.5 57t98.5 25q39 0 65 -19.5t26 -43.5q0 -9 1 -49q1 -103 1 -160q61 14 201 62q131 46 167 46q21 0 36 -32t15 -66q0 -31 -150 -89t-267 -83q1 0 0.5 -139.5t34.5 -216t128 -76.5q63 0 195.5 51.5t190.5 90.5q49 34 93 112q47 82 115 82q54 0 54 -82
q0 -111 -111.5 -207t-311.5 -162.5t-341 -66.5q-132 0 -200.5 123.5t-68.5 355.5q0 51 -2 94l-47 -2q-17 0 -27 24t-10 60q0 27 26.5 51t59.5 29q0 33 -4 93q-6 80 -6 138zM150 1112q0 78 304 156t406 78q84 0 109.5 -15t25.5 -53q0 -58 -26 -91.5t-72 -33.5q-42 0 -159 -9
q-21 -1 -71 -4.5t-344 -49.5q-106 -17 -114 -17q-24 0 -41.5 10.5t-17.5 28.5zM259 1498q0 37 33.5 67.5t74.5 30.5q38 0 69 -44t31 -83q0 -29 -30.5 -50.5t-69.5 -21.5q-108 0 -108 101zM545 1498q0 37 34 67.5t75 30.5q38 0 69 -44t31 -83q0 -29 -30.5 -50.5t-69.5 -21.5
q-109 0 -109 101z" />
    <glyph glyph-name="Egrave" unicode="&#xc8;" horiz-adv-x="1202" 
d="M137 993q0 32 38.5 57t98.5 25q39 0 65 -19.5t26 -43.5q0 -9 1 -49q1 -103 1 -160q61 14 201 62q131 46 167 46q21 0 36 -32t15 -66q0 -31 -150 -89t-267 -83q1 0 0.5 -139.5t34.5 -216t128 -76.5q63 0 195.5 51.5t190.5 90.5q49 34 93 112q47 82 115 82q54 0 54 -82
q0 -111 -111.5 -207t-311.5 -162.5t-341 -66.5q-132 0 -200.5 123.5t-68.5 355.5q0 51 -2 94l-47 -2q-17 0 -27 24t-10 60q0 27 26.5 51t59.5 29q0 33 -4 93q-6 80 -6 138zM150 1112q0 78 304 156t406 78q84 0 109.5 -15t25.5 -53q0 -58 -26 -91.5t-72 -33.5q-42 0 -159 -9
q-21 -1 -71 -4.5t-344 -49.5q-106 -17 -114 -17q-24 0 -41.5 10.5t-17.5 28.5zM553 1463q0 -29 -26 -53.5t-52 -24.5q-23 0 -85.5 41t-111.5 100.5t-49 104.5q0 24 31 55t59 31q25 0 42.5 -11.5t42.5 -52.5q29 -48 54 -73q95 -78 95 -117z" />
    <glyph glyph-name="Iacute" unicode="&#xcd;" horiz-adv-x="551" 
d="M117 1167q0 70 37 110t94 40q54 0 89.5 -32.5t35.5 -74.5q0 -17 -8 -104q-19 -205 -19 -297q0 -304 78 -653q12 -54 12 -62q0 -36 -40.5 -62t-76.5 -26q-51 0 -89 29t-41 67q-3 21 -12 93q-60 483 -60 972zM117 1463q0 40 94 117q26 25 55 74q25 41 42 52t42 11
q28 0 59.5 -31t31.5 -55q0 -45 -49 -104.5t-112 -100.5t-85 -41q-27 0 -52.5 24.5t-25.5 53.5z" />
    <glyph glyph-name="Icircumflex" unicode="&#xce;" horiz-adv-x="551" 
d="M117 1167q0 70 37 110t94 40q54 0 89.5 -32.5t35.5 -74.5q0 -17 -8 -104q-19 -205 -19 -297q0 -304 78 -653q12 -54 12 -62q0 -36 -40.5 -62t-76.5 -26q-51 0 -89 29t-41 67q-3 21 -12 93q-60 483 -60 972zM436 1521l48 -41q75 -60 75 -89q0 -23 -28.5 -42.5t-55.5 -19.5
q-56 0 -124 68q-69 69 -111 102q-27 -13 -75 -69q-89 -103 -152 -103q-20 0 -33.5 18.5t-13.5 43.5q0 60 92 142t125 105t65 23q28 0 69 -34.5z" />
    <glyph glyph-name="Idieresis" unicode="&#xcf;" horiz-adv-x="551" 
d="M117 1167q0 70 37 110t94 40q54 0 89.5 -32.5t35.5 -74.5q0 -17 -8 -104q-19 -205 -19 -297q0 -304 78 -653q12 -54 12 -62q0 -36 -40.5 -62t-76.5 -26q-51 0 -89 29t-41 67q-3 21 -12 93q-60 483 -60 972zM-11 1498q0 37 33.5 67.5t74.5 30.5q38 0 69 -44t31 -83
q0 -29 -30.5 -50.5t-69.5 -21.5q-108 0 -108 101zM275 1498q0 37 34 67.5t75 30.5q38 0 69 -44t31 -83q0 -29 -30.5 -50.5t-69.5 -21.5q-109 0 -109 101z" />
    <glyph glyph-name="Igrave" unicode="&#xcc;" horiz-adv-x="551" 
d="M117 1167q0 70 37 110t94 40q54 0 89.5 -32.5t35.5 -74.5q0 -17 -8 -104q-19 -205 -19 -297q0 -304 78 -653q12 -54 12 -62q0 -36 -40.5 -62t-76.5 -26q-51 0 -89 29t-41 67q-3 21 -12 93q-60 483 -60 972zM348 1463q0 -29 -26 -53.5t-52 -24.5q-23 0 -85.5 41
t-111.5 100.5t-49 104.5q0 24 31 55t59 31q25 0 42.5 -11.5t42.5 -52.5q29 -48 54 -73q95 -78 95 -117z" />
    <glyph glyph-name="Oacute" unicode="&#xd3;" horiz-adv-x="1135" 
d="M82 727q0 163 42.5 303t117.5 229t145 89q36 0 68 -33.5t32 -65.5q0 -70 -17.5 -114.5t-37.5 -44.5q-27 0 -35 16q-9 18 -24 18q-24 0 -47 -127t-23 -317q0 -233 48 -359t128 -126q149 0 262 135.5t113 316.5q0 154 -94 286t-221 185q-50 21 -50 119q0 32 18.5 52
t51.5 20q121 0 237 -96.5t188.5 -254.5t72.5 -317q0 -134 -90.5 -287.5t-226.5 -243.5t-285 -90q-189 0 -281 163t-92 544zM284 1463q0 40 94 117q26 25 55 74q25 41 42 52t42 11q28 0 59.5 -31t31.5 -55q0 -45 -49 -104.5t-112 -100.5t-85 -41q-27 0 -52.5 24.5t-25.5 53.5
z" />
    <glyph glyph-name="Ocircumflex" unicode="&#xd4;" horiz-adv-x="1135" 
d="M82 727q0 163 42.5 303t117.5 229t145 89q36 0 68 -33.5t32 -65.5q0 -70 -17.5 -114.5t-37.5 -44.5q-27 0 -35 16q-9 18 -24 18q-24 0 -47 -127t-23 -317q0 -233 48 -359t128 -126q149 0 262 135.5t113 316.5q0 154 -94 286t-221 185q-50 21 -50 119q0 32 18.5 52
t51.5 20q121 0 237 -96.5t188.5 -254.5t72.5 -317q0 -134 -90.5 -287.5t-226.5 -243.5t-285 -90q-189 0 -281 163t-92 544zM617 1591l48 -41q75 -60 75 -89q0 -23 -28.5 -42.5t-55.5 -19.5q-56 0 -124 68q-69 69 -111 102q-27 -13 -75 -69q-89 -103 -152 -103
q-20 0 -33.5 18.5t-13.5 43.5q0 60 92 142t125 105t65 23q28 0 69 -34.5z" />
    <glyph glyph-name="Ograve" unicode="&#xd2;" horiz-adv-x="1135" 
d="M82 727q0 163 42.5 303t117.5 229t145 89q36 0 68 -33.5t32 -65.5q0 -70 -17.5 -114.5t-37.5 -44.5q-27 0 -35 16q-9 18 -24 18q-24 0 -47 -127t-23 -317q0 -233 48 -359t128 -126q149 0 262 135.5t113 316.5q0 154 -94 286t-221 185q-50 21 -50 119q0 32 18.5 52
t51.5 20q121 0 237 -96.5t188.5 -254.5t72.5 -317q0 -134 -90.5 -287.5t-226.5 -243.5t-285 -90q-189 0 -281 163t-92 544zM558 1463q0 -29 -26 -53.5t-52 -24.5q-23 0 -85.5 41t-111.5 100.5t-49 104.5q0 24 31 55t59 31q25 0 42.5 -11.5t42.5 -52.5q29 -48 54 -73
q95 -78 95 -117z" />
    <glyph glyph-name="Uacute" unicode="&#xda;" horiz-adv-x="1190" 
d="M834 1036q-11 122 -11 146q0 41 35 74.5t76 33.5q49 0 85 -24.5t36 -61.5q0 -24 -5 -138q-6 -153 -6 -196q0 -28 13.5 -285.5t29.5 -486.5v0q0 -121 -104 -121q-98 0 -98 138v12l-2 -1q-73 -59 -173.5 -93.5t-206.5 -34.5q-193 0 -297 120.5t-104 315.5q0 28 11 142
q14 152 14 213q0 55 -5 202q-3 98 -3 123q0 50 40.5 80.5t98.5 30.5q47 0 77.5 -29t30.5 -70q0 -31 -31 -272q-24 -188 -24 -414q0 -131 69 -202.5t200 -71.5q77 0 187 99q24 21 99 67q0 244 -6 366t-26 338zM459 1373q0 40 94 117q26 25 55 74q25 41 42 52t42 11
q28 0 59.5 -31t31.5 -55q0 -45 -49 -104.5t-112 -100.5t-85 -41q-27 0 -52.5 24.5t-25.5 53.5z" />
    <glyph glyph-name="Ucircumflex" unicode="&#xdb;" horiz-adv-x="1190" 
d="M834 1036q-11 122 -11 146q0 41 35 74.5t76 33.5q49 0 85 -24.5t36 -61.5q0 -24 -5 -138q-6 -153 -6 -196q0 -28 13.5 -285.5t29.5 -486.5v0q0 -121 -104 -121q-98 0 -98 138v12l-2 -1q-73 -59 -173.5 -93.5t-206.5 -34.5q-193 0 -297 120.5t-104 315.5q0 28 11 142
q14 152 14 213q0 55 -5 202q-3 98 -3 123q0 50 40.5 80.5t98.5 30.5q47 0 77.5 -29t30.5 -70q0 -31 -31 -272q-24 -188 -24 -414q0 -131 69 -202.5t200 -71.5q77 0 187 99q24 21 99 67q0 244 -6 366t-26 338zM786 1501l48 -41q75 -60 75 -89q0 -23 -28.5 -42.5t-55.5 -19.5
q-56 0 -124 68q-69 69 -111 102q-27 -13 -75 -69q-89 -103 -152 -103q-20 0 -33.5 18.5t-13.5 43.5q0 60 92 142t125 105t65 23q28 0 69 -34.5z" />
    <glyph glyph-name="Ugrave" unicode="&#xd9;" horiz-adv-x="1190" 
d="M834 1036q-11 122 -11 146q0 41 35 74.5t76 33.5q49 0 85 -24.5t36 -61.5q0 -24 -5 -138q-6 -153 -6 -196q0 -28 13.5 -285.5t29.5 -486.5v0q0 -121 -104 -121q-98 0 -98 138v12l-2 -1q-73 -59 -173.5 -93.5t-206.5 -34.5q-193 0 -297 120.5t-104 315.5q0 28 11 142
q14 152 14 213q0 55 -5 202q-3 98 -3 123q0 50 40.5 80.5t98.5 30.5q47 0 77.5 -29t30.5 -70q0 -31 -31 -272q-24 -188 -24 -414q0 -131 69 -202.5t200 -71.5q77 0 187 99q24 21 99 67q0 244 -6 366t-26 338zM608 1373q0 -29 -26 -53.5t-52 -24.5q-23 0 -85.5 41
t-111.5 100.5t-49 104.5q0 24 31 55t59 31q25 0 42.5 -11.5t42.5 -52.5q29 -48 54 -73q95 -78 95 -117z" />
    <glyph glyph-name="dotlessi" unicode="&#x131;" horiz-adv-x="444" 
d="M102 754q0 50 39.5 83t98.5 33q94 0 94 -82q0 -18 -5 -87q-10 -125 -10 -185q0 -55 20 -249q13 -132 13 -158q0 -55 -32.5 -90t-77.5 -35q-115 0 -115 104q0 26 -8 178q-17 350 -17 488z" />
    <glyph glyph-name="circumflex" unicode="&#x2c6;" horiz-adv-x="737" 
d="M536 1271l48 -41q75 -60 75 -89q0 -23 -28.5 -42.5t-55.5 -19.5q-56 0 -124 68q-69 69 -111 102q-27 -13 -75 -69q-89 -103 -152 -103q-20 0 -33.5 18.5t-13.5 43.5q0 60 92 142t125 105t65 23q28 0 69 -34.5z" />
    <glyph glyph-name="tilde" unicode="&#x2dc;" horiz-adv-x="784" 
d="M78 1176q0 57 56.5 107t123.5 50q29 0 116 -21q111 -26 158 -26q35 0 49 62q14 63 83 63q22 0 41.5 -20t19.5 -45q0 -39 -23 -106t-67.5 -93.5t-97.5 -26.5q-33 0 -130 22q-99 23 -133 23q-63 0 -73 -41q-3 -12 -24 -21t-44 -9q-25 0 -40 22t-15 60z" />
    <glyph glyph-name="macron" unicode="&#xaf;" horiz-adv-x="737" 
d="M109 1165q0 104 131 113q42 3 219 27q76 10 164 10q19 0 32 -20t13 -42q0 -56 -16 -78t-50 -22q-8 0 -37 4q-52 6 -78 6q-17 0 -102 -13t-102.5 -17.5t-45.5 -17.5q-44 -19 -73 -19q-18 0 -36.5 22t-18.5 47z" />
    <glyph glyph-name="breve" unicode="&#x2d8;" horiz-adv-x="672" 
d="M106 1266q0 22 20 47.5t42 25.5q29 0 51.5 -19.5t22.5 -45.5t28 -44t68 -18q63 0 90 95q19 67 90 67q59 0 59 -94q0 -82 -83.5 -151.5t-178.5 -69.5q-96 0 -152.5 55t-56.5 152z" />
    <glyph glyph-name="dotaccent" unicode="&#x2d9;" 
d="M88 1169q0 42 37 75.5t84 33.5q42 0 77.5 -48.5t35.5 -90.5q0 -32 -34 -56t-79 -24q-121 0 -121 110z" />
    <glyph glyph-name="ring" unicode="&#x2da;" horiz-adv-x="758" 
d="M328 1208q0 -22 13 -35.5t30 -13.5q25 0 42 19.5t17 50.5q0 21 -14.5 35t-32.5 14q-22 0 -38.5 -20t-16.5 -50zM416 1423q60 0 109.5 -59t49.5 -127q0 -75 -68 -147t-161 -72q-74 0 -116 43t-42 112q0 101 62.5 175.5t165.5 74.5z" />
    <glyph glyph-name="cedilla" unicode="&#xb8;" horiz-adv-x="799" 
d="M422 76q-10 -22 -10 -35q0 -17 53 -31q44 -11 60 -33.5t16 -64.5q0 -53 -56 -94t-131 -41q-127 0 -127 59q0 16 11.5 30.5t27.5 14.5q12 0 38 -5q28 -6 42 -6q60 0 60 36q0 15 -18.5 28t-41.5 17q-17 3 -32 16t-15 25q0 16 10 51z" />
    <glyph glyph-name="hungarumlaut" unicode="&#x2ba;" horiz-adv-x="823" 
d="M84 1143q0 40 94 117q26 25 55 74q25 41 42 52t42 11q28 0 59.5 -31t31.5 -55q0 -45 -49 -104.5t-112 -100.5t-85 -41q-27 0 -52.5 24.5t-25.5 53.5zM434 1143q0 40 94 117q26 25 55 73q25 41 42.5 52.5t42.5 11.5q28 0 59 -31t31 -55q0 -45 -49 -104.5t-111.5 -100.5
t-85.5 -41q-27 0 -52.5 24.5t-25.5 53.5z" />
    <glyph glyph-name="ogonek" unicode="&#x2db;" horiz-adv-x="799" 
d="M365 0q-23 -41 -23 -84t39 -43q24 0 54 24q18 15 42 15q16 0 26.5 -18t10.5 -39q0 -32 -49 -62.5t-115 -30.5q-50 0 -93.5 39.5t-43.5 98.5q0 65 33 100h119z" />
    <glyph glyph-name="caron" unicode="&#x2c7;" horiz-adv-x="737" 
d="M659 1335q0 -29 -75 -89l-48 -41l-119 -103.5t-69 -34.5q-31 0 -61.5 20.5t-102.5 83.5q-75 67 -96.5 100.5t-21.5 65.5q0 25 13.5 43.5t33.5 18.5q63 0 152 -103q48 -56 75 -69q42 33 111 102q68 68 124 68q27 0 55.5 -19.5t28.5 -42.5z" />
    <glyph glyph-name="Scaron" unicode="&#x160;" horiz-adv-x="1110" 
d="M20 944q0 86 90.5 193.5t227 190.5t221.5 83q94 0 154.5 -63.5t60.5 -137.5q0 -110 -69 -110q-88 0 -106 70q-10 40 -29.5 52.5t-55.5 12.5q-70 0 -190.5 -94.5t-120.5 -141.5q0 -21 82 -36q334 -62 493 -123q173 -67 244.5 -158t71.5 -252q0 -120 -79 -227t-216 -178.5
t-250 -71.5q-79 0 -139 39.5t-95.5 114.5t-35.5 147q0 99 37.5 172.5t99.5 73.5q96 0 96 -72q0 -26 -18 -78q-23 -65 -23 -104q0 -69 32 -101.5t103 -35.5q118 0 204.5 90.5t86.5 210.5q0 95 -43.5 154t-144.5 94q-188 66 -539 119q-150 23 -150 167zM759 1705
q0 -29 -75 -89l-48 -41l-119 -103.5t-69 -34.5q-31 0 -61.5 20.5t-102.5 83.5q-75 67 -96.5 100.5t-21.5 65.5q0 25 13.5 43.5t33.5 18.5q63 0 152 -103q48 -56 75 -69q42 33 111 102q68 68 124 68q27 0 55.5 -19.5t28.5 -42.5z" />
    <glyph glyph-name="scaron" unicode="&#x161;" horiz-adv-x="827" 
d="M799 311q0 -81 -53 -153t-144 -119t-172 -47q-130 0 -206.5 42t-76.5 118q0 88 37.5 142t94.5 54q41 0 70.5 -24.5t29.5 -51.5q0 -55 -23 -66q-26 -13 -26 -44q0 -17 27.5 -27t64.5 -10q80 0 130 40.5t50 92.5q0 174 -252 174q-85 0 -167 -5q-24 -1 -31 -1
q-38 0 -69.5 37t-31.5 90q0 60 69.5 160.5t158 167t158.5 66.5q51 0 89.5 -28.5t63 -82t24.5 -93.5q0 -28 -26 -54.5t-64 -26.5q-77 0 -90 43q-5 17 -18.5 32t-26.5 15q-49 0 -89 -44t-40 -85q0 -16 14 -21.5t56 -5.5q7 0 33 1q60 1 94 1q61 0 153 -39.5t140.5 -102.5
t48.5 -145zM659 1335q0 -29 -75 -89l-48 -41l-119 -103.5t-69 -34.5q-31 0 -61.5 20.5t-102.5 83.5q-75 67 -96.5 100.5t-21.5 65.5q0 25 13.5 43.5t33.5 18.5q63 0 152 -103q48 -56 75 -69q42 33 111 102q68 68 124 68q27 0 55.5 -19.5t28.5 -42.5z" />
    </font>
</defs>
</svg>
